# Blender v2.93.1 OBJ File: 'HUMANBASE_FROMSCRATCH.blend'
# www.blender.org
mtllib lasso2d_1.mtl
o lasso_plane_base_Plane.002
v 0.407597 -1.066920 -0.000000
v 0.537067 -1.085999 -0.000000
v 0.532436 -0.896800 -0.000000
v 0.407597 -0.869219 -0.000000
v 0.729726 -1.057856 -0.000000
v 0.744693 -0.904520 -0.000000
v 0.995344 -0.982057 -0.000000
v 0.983335 -0.829824 -0.000000
v 1.222808 -0.773369 -0.000000
v 1.146812 -0.633739 -0.000000
v 1.271657 -0.341142 -0.000000
v 1.097214 -0.353618 -0.000000
v 1.143638 -0.142279 -0.000000
v 0.967728 -0.240970 -0.000000
v 0.930979 -0.085090 -0.000000
v 0.766318 -0.216042 -0.000000
v 0.685028 -0.015025 -0.000000
v 0.605673 -0.209870 -0.000000
v 0.514194 0.000309 0.000000
v 0.507137 -0.209957 -0.000000
v 0.407597 0.010474 0.000000
v 0.407597 -0.199792 -0.000000
v 0.685028 -0.015025 -0.000000
v 0.514194 0.000309 0.000000
v 0.282758 -0.896800 -0.000000
v 0.278127 -1.085999 -0.000000
v 0.070501 -0.904520 -0.000000
v 0.085468 -1.057856 -0.000000
v -0.168141 -0.829824 -0.000000
v -0.180150 -0.982057 -0.000000
v -0.331618 -0.633739 -0.000000
v -0.407614 -0.773369 -0.000000
v -0.282020 -0.353618 -0.000000
v -0.456463 -0.341142 -0.000000
v -0.152534 -0.240970 -0.000000
v -0.328444 -0.142279 -0.000000
v 0.048876 -0.216042 -0.000000
v -0.115785 -0.085090 -0.000000
v 0.209521 -0.209870 -0.000000
v 0.130166 -0.015025 -0.000000
v 0.308057 -0.209957 -0.000000
v 0.301000 0.000309 0.000000
v 0.301000 0.000309 0.000000
v 0.130166 -0.015025 -0.000000
v -0.456463 -0.341142 -0.000000
v -0.407614 -0.773369 -0.000000
v -0.315798 0.173891 0.000000
v -0.443816 -0.024972 -0.000000
v -0.315798 0.173891 0.000000
v -0.443816 -0.024972 -0.000000
v -0.322121 0.414179 0.000000
v -0.450139 0.215316 0.000000
v -0.350925 0.668038 0.000000
v -0.522510 0.505269 0.000000
v -0.382542 0.845093 0.000000
v -0.554127 0.682323 0.000000
v -0.458422 0.990530 0.000000
v -0.630007 0.827761 0.000000
v -0.540626 1.116998 0.000000
v -0.712211 0.954229 0.000000
v -0.679741 1.205526 0.000000
v -0.851326 1.042756 0.000000
v -0.907383 1.287730 0.000000
v -1.078968 1.124960 0.000000
v -1.027527 1.382580 0.000000
v -1.199112 1.219811 0.000000
v -1.128701 1.578605 0.000000
v -1.300286 1.415836 0.000000
v -1.130577 1.793121 0.000000
v -1.323705 1.656604 0.000000
vt 0.500000 0.000000
vt 1.000000 0.000000
vt 1.000000 1.000000
vt 0.500000 1.000000
vt 1.000000 0.000000
vt 1.000000 1.000000
vt 1.000000 0.000000
vt 1.000000 1.000000
vt 1.000000 0.000000
vt 1.000000 1.000000
vt 1.000000 0.000000
vt 1.000000 1.000000
vt 1.000000 0.000000
vt 1.000000 1.000000
vt 1.000000 0.000000
vt 1.000000 1.000000
vt 1.000000 0.000000
vt 1.000000 1.000000
vt 1.000000 0.000000
vt 1.000000 1.000000
vt 1.000000 0.000000
vt 1.000000 1.000000
vt 1.000000 0.000000
vt 1.000000 0.000000
vt 1.000000 1.000000
vt 1.000000 0.000000
vt 1.000000 1.000000
vt 1.000000 0.000000
vt 1.000000 1.000000
vt 1.000000 0.000000
vt 1.000000 1.000000
vt 1.000000 0.000000
vt 1.000000 1.000000
vt 1.000000 0.000000
vt 1.000000 1.000000
vt 1.000000 0.000000
vt 1.000000 1.000000
vt 1.000000 0.000000
vt 1.000000 1.000000
vt 1.000000 0.000000
vt 1.000000 1.000000
vt 1.000000 0.000000
vt 1.000000 0.000000
vt 1.000000 0.000000
vt 1.000000 0.000000
vt 1.000000 0.000000
vt 1.000000 0.000000
vt 1.000000 0.000000
vt 1.000000 0.000000
vt 1.000000 0.000000
vt 1.000000 0.000000
vt 1.000000 0.000000
vt 1.000000 0.000000
vt 1.000000 0.000000
vt 1.000000 0.000000
vt 1.000000 0.000000
vt 1.000000 0.000000
vt 1.000000 0.000000
vt 1.000000 0.000000
vt 1.000000 0.000000
vt 1.000000 0.000000
vt 1.000000 0.000000
vt 1.000000 0.000000
vt 1.000000 0.000000
vt 1.000000 0.000000
vt 1.000000 0.000000
vt 1.000000 0.000000
vt 1.000000 0.000000
vt 1.000000 0.000000
vt 1.000000 0.000000
vn 0.0000 -0.0000 1.0000
usemtl None.013
s 1
f 1/1/1 2/2/1 3/3/1 4/4/1
f 3/3/1 2/2/1 5/5/1 6/6/1
f 6/6/1 5/5/1 7/7/1 8/8/1
f 8/8/1 7/7/1 9/9/1 10/10/1
f 10/10/1 9/9/1 11/11/1 12/12/1
f 12/12/1 11/11/1 13/13/1 14/14/1
f 14/14/1 13/13/1 15/15/1 16/16/1
f 16/16/1 15/15/1 17/17/1 18/18/1
f 18/18/1 17/17/1 19/19/1 20/20/1
f 20/20/1 19/19/1 21/21/1 22/22/1
f 19/19/1 17/17/1 23/23/1 24/24/1
f 1/1/1 4/4/1 25/25/1 26/26/1
f 25/25/1 27/27/1 28/28/1 26/26/1
f 27/27/1 29/29/1 30/30/1 28/28/1
f 29/29/1 31/31/1 32/32/1 30/30/1
f 31/31/1 33/33/1 34/34/1 32/32/1
f 33/33/1 35/35/1 36/36/1 34/34/1
f 35/35/1 37/37/1 38/38/1 36/36/1
f 37/37/1 39/39/1 40/40/1 38/38/1
f 39/39/1 41/41/1 42/42/1 40/40/1
f 41/41/1 22/22/1 21/21/1 42/42/1
f 42/42/1 43/43/1 44/44/1 40/40/1
f 32/32/1 34/34/1 45/45/1 46/46/1
f 34/34/1 36/36/1 47/47/1 48/48/1
f 48/48/1 47/47/1 49/49/1 50/50/1
f 50/50/1 49/49/1 51/51/1 52/52/1
f 52/52/1 51/51/1 53/53/1 54/54/1
f 54/54/1 53/53/1 55/55/1 56/56/1
f 56/56/1 55/55/1 57/57/1 58/58/1
f 58/58/1 57/57/1 59/59/1 60/60/1
f 60/60/1 59/59/1 61/61/1 62/62/1
f 62/62/1 61/61/1 63/63/1 64/64/1
f 64/64/1 63/63/1 65/65/1 66/66/1
f 66/66/1 65/65/1 67/67/1 68/68/1
f 68/68/1 67/67/1 69/69/1 70/70/1
