####
#
# OBJ File Generated by Meshlab
#
####
# Object blouse-symmetric.obj
#
# Vertices: 72
# Faces: 88
#
####
mtllib ./blouse-symmetric.obj.mtl

vn 1.819138 -0.576167 -5.441892
v 0.126893 -0.006789 -0.124779
vn 1.497264 0.276395 -1.964089
v 0.208119 -0.257256 -0.111187
vn 0.001408 -0.105138 -3.139458
v 0.001791 -0.257254 -0.121797
vn 0.000661 -0.026863 -6.278798
v 0.001100 -0.029419 -0.127161
vn 3.595828 -1.015950 0.318955
v 0.202090 0.017884 0.001788
vn 2.722659 0.543975 -0.160502
v 0.254422 -0.243847 0.002455
vn -0.219899 -0.179291 2.709679
v 0.244751 0.083405 0.129633
vn 1.374696 -0.687996 5.714971
v 0.117543 0.020870 0.115172
vn -0.650356 0.692521 2.872230
v 0.260848 0.108218 0.126560
vn -0.106780 3.171534 -0.249785
v 0.106551 0.239826 -0.028497
vn -0.015491 1.745248 1.661002
v 0.100664 0.255314 0.108341
vn -0.003138 1.754337 1.319941
v 0.293554 0.257255 0.108101
vn -0.002850 3.155201 -0.104872
v 0.294596 0.240276 -0.020099
vn -0.000001 0.373176 3.012981
v 0.292314 0.220545 0.112648
vn 0.000001 0.414638 3.347542
v 0.090594 0.218721 0.112874
vn 0.000004 0.423069 3.416007
v 0.080777 0.200805 0.115093
vn -0.000006 0.434829 3.510852
v 0.064052 0.184640 0.117095
vn 0.000002 0.377257 3.045962
v 0.287529 0.186640 0.116847
vn 0.016036 0.290147 6.257156
v 0.076443 0.155703 0.120679
vn -0.125825 0.297959 3.004431
v 0.271832 0.130643 0.123782
vn -0.000001 0.370940 2.995094
v 0.281177 0.157278 0.120484
vn 0.001120 0.080172 6.241264
v 0.000556 0.135870 0.123135
vn -0.000209 -0.194031 6.278807
v 0.000898 -0.002175 0.113892
vn -0.000001 0.477639 3.856358
v 0.000751 0.159833 0.120167
vn 0.467412 -0.913065 -2.746142
v 0.257900 0.069148 -0.127729
vn -0.055025 -0.023231 -3.024521
v 0.272865 0.095333 -0.128219
vn -0.081359 1.494446 -1.465101
v 0.298880 0.247741 -0.129633
vn -0.183347 1.563259 -2.018657
v 0.106431 0.231126 -0.125021
vn -0.071380 -0.015947 -3.035545
v 0.299274 0.210719 -0.129448
vn -0.080715 -0.017964 -3.432248
v 0.089006 0.174782 -0.124314
vn -0.079177 -0.017790 -3.367406
v 0.098008 0.193550 -0.124625
vn -0.072171 -0.016166 -3.069036
v 0.296007 0.176249 -0.129190
vn -0.077643 -0.014156 -3.583964
v 0.073031 0.157250 -0.123847
vn -0.068457 -0.014114 -3.025944
v 0.282830 0.118726 -0.128577
vn -0.114745 0.020151 -6.281661
v 0.086686 0.129083 -0.124019
vn -0.070988 -0.015916 -3.018966
v 0.290973 0.146230 -0.128913
vn 0.001145 0.134606 -6.276649
v 0.000003 0.103921 -0.122299
vn -0.003140 0.003882 -3.911062
v 0.000671 0.127633 -0.122276
vn -0.000142 -0.045459 3.118075
v 0.000796 -0.231616 0.110206
vn 1.608738 0.377814 1.965244
v 0.211443 -0.229228 0.112810
vn -1.496302 0.276073 -1.964147
v -0.207686 -0.257256 -0.111187
vn -1.817038 -0.577404 -5.442396
v -0.126462 -0.006789 -0.124779
vn -2.722678 0.543968 -0.160511
v -0.253989 -0.243847 0.002455
vn -3.597669 -1.020505 0.315768
v -0.201657 0.017884 0.001788
vn 0.220562 -0.177464 2.707608
v -0.244752 0.083405 0.129633
vn -1.379332 -0.690603 5.711237
v -0.117544 0.020870 0.115172
vn 0.650390 0.692563 2.872278
v -0.260848 0.108218 0.126560
vn 0.003138 1.754345 1.319940
v -0.293555 0.257255 0.108101
vn 0.015491 1.745255 1.661001
v -0.100664 0.255314 0.108341
vn 0.106780 3.171527 -0.249784
v -0.106550 0.239826 -0.028497
vn 0.002850 3.155185 -0.104872
v -0.294597 0.240276 -0.020099
vn 0.000001 0.373179 3.013010
v -0.292314 0.220545 0.112648
vn -0.000004 0.423069 3.416007
v -0.080778 0.200805 0.115093
vn -0.000001 0.414638 3.347542
v -0.090595 0.218721 0.112874
vn -0.000002 0.377250 3.045901
v -0.287531 0.186640 0.116847
vn 0.000006 0.435807 3.518745
v -0.064053 0.184640 0.117095
vn 0.125823 0.297954 3.004363
v -0.271832 0.130643 0.123782
vn -0.015191 0.289501 6.257154
v -0.076443 0.155703 0.120679
vn 0.000001 0.370948 2.995159
v -0.281178 0.157278 0.120484
vn -0.465464 -0.912247 -2.743595
v -0.257900 0.069148 -0.127729
vn 0.054787 -0.023338 -3.024525
v -0.272865 0.095333 -0.128219
vn 0.183346 1.563258 -2.018632
v -0.106432 0.231126 -0.125021
vn 0.081359 1.494455 -1.465100
v -0.298880 0.247741 -0.129633
vn 0.071380 -0.015948 -3.035574
v -0.299274 0.210719 -0.129448
vn 0.079178 -0.017791 -3.367432
v -0.098010 0.193550 -0.124625
vn 0.080716 -0.017962 -3.432279
v -0.089006 0.174782 -0.124314
vn 0.077558 -0.014453 -3.590337
v -0.073032 0.157250 -0.123847
vn 0.072170 -0.016167 -3.069007
v -0.296009 0.176249 -0.129190
vn 0.114632 0.020235 -6.281661
v -0.086687 0.129083 -0.124019
vn 0.068411 -0.014082 -3.025979
v -0.282830 0.118726 -0.128577
vn 0.070987 -0.015915 -3.018932
v -0.290975 0.146230 -0.128913
vn -1.608977 0.377214 1.965253
v -0.211012 -0.229228 0.112810
# 72 vertices, 0 vertices normals


usemtl material_0
vt 0.041826 -0.239107
vt -0.064950 -0.509355
vt -0.001143 -0.509354
f 1/1/1 2/2/2 3/3/3
vt 0.095890 -0.282179
f 1/1/1 3/3/3 4/4/4
vt -0.018632 -0.240075
f 2/2/2 1/1/1 5/5/5
vt -0.123642 -0.510334
f 2/2/2 5/5/5 6/6/6
vt -0.085246 0.263267
vt 0.069628 0.292387
vt -0.042985 0.287572
f 7/7/7 8/8/8 5/9/5
vt -0.103603 0.249307
f 9/10/9 8/8/8 7/7/7
vt 0.101426 0.108789
vt 0.106234 0.158375
vt -0.141654 0.165042
f 10/11/10 11/12/11 12/13/12
vt -0.142902 0.112780
f 10/11/10 12/13/12 13/14/13
vt -0.139972 0.185842
vt 0.114944 0.176865
vt 0.123334 0.185889
f 14/15/14 15/16/15 16/17/16
f 11/12/11 15/16/15 14/15/14
f 11/12/11 14/15/14 12/13/12
vt 0.137545 0.193985
vt -0.134314 0.205029
f 16/17/16 17/18/17 18/19/18
f 16/17/16 18/19/18 14/15/14
vt 0.104140 0.221185
vt -0.116169 0.236667
f 19/20/19 8/8/8 20/21/20
vt -0.126920 0.221631
f 19/20/19 20/21/20 21/22/21
f 20/21/20 8/8/8 9/10/9
f 18/19/18 17/18/17 19/20/19
f 18/19/18 19/20/19 21/22/21
vt 0.152925 0.231979
vt 0.137986 0.292386
f 19/20/19 22/23/22 23/24/23
f 19/20/19 23/24/23 8/8/8
vt 0.158226 0.206200
f 17/18/17 24/25/24 22/23/22
f 17/18/17 22/23/22 19/20/19
vt -0.104228 -0.043007
vt -0.064902 -0.069324
vt 0.046814 -0.079676
f 25/26/25 5/27/5 1/28/1
vt -0.120916 -0.028184
f 26/29/26 25/26/25 1/28/1
vt -0.149117 0.057706
vt 0.100174 0.053075
vt 0.100350 0.105291
f 27/30/27 28/31/28 10/32/10
vt -0.144323 0.109872
f 27/30/27 10/32/10 13/33/13
vt -0.149843 0.036884
vt 0.114563 0.024636
vt 0.107070 0.034127
f 29/34/29 30/35/30 31/36/31
f 29/34/29 31/36/31 28/31/28
f 29/34/29 28/31/28 27/30/27
vt -0.146419 0.017476
vt 0.127949 0.015726
f 32/37/32 33/38/33 30/35/30
f 32/37/32 30/35/30 29/34/29
vt -0.131984 -0.014962
vt 0.089449 -0.010389
f 34/39/34 1/28/1 35/40/35
vt -0.140966 0.000559
f 34/39/34 35/40/35 36/41/36
f 34/39/34 26/29/26 1/28/1
f 32/37/32 36/41/36 35/40/35
f 32/37/32 35/40/35 33/38/33
vt 0.089447 -0.084086
vt 0.122473 -0.024973
f 4/42/4 37/43/37 35/40/35
f 4/42/4 35/40/35 1/28/1
vt 0.138031 0.012611
f 37/43/37 38/44/38 33/38/33
f 37/43/37 33/38/33 35/40/35
vt 0.083618 0.739968
vt -0.066817 0.737255
vt 0.043871 0.468853
f 39/45/39 40/46/40 8/47/8
vt 0.138960 0.513596
f 39/45/39 8/47/8 23/48/23
vt -0.125540 0.737187
vt -0.016619 0.468787
f 40/46/40 6/49/6 5/50/5
f 40/46/40 5/50/5 8/47/8
vt 0.373034 -0.509354
vt 0.436842 -0.509355
vt 0.330065 -0.239107
f 3/51/3 41/52/41 42/53/42
vt 0.276001 -0.282179
f 3/51/3 42/53/42 4/54/4
vt 0.495534 -0.510334
vt 0.390524 -0.240075
f 41/52/41 43/55/43 44/56/44
f 41/52/41 44/56/44 42/53/42
vt 0.476956 0.263267
vt 0.434695 0.287572
vt 0.322082 0.292387
f 45/57/45 44/58/44 46/59/46
vt 0.495313 0.249307
f 47/60/47 45/57/45 46/59/46
vt 0.533364 0.165042
vt 0.285476 0.158375
vt 0.290284 0.108789
f 48/61/48 49/62/49 50/63/50
vt 0.534612 0.112780
f 48/61/48 50/63/50 51/64/51
vt 0.531682 0.185842
vt 0.268375 0.185889
vt 0.276766 0.176865
f 52/65/52 53/66/53 54/67/54
f 52/65/52 54/67/54 49/62/49
f 52/65/52 49/62/49 48/61/48
vt 0.526024 0.205029
vt 0.254165 0.193985
f 55/68/55 56/69/56 53/66/53
f 55/68/55 53/66/53 52/65/52
vt 0.507879 0.236667
vt 0.287569 0.221185
f 57/70/57 46/59/46 58/71/58
vt 0.518630 0.221631
f 57/70/57 58/71/58 59/72/59
f 57/70/57 47/60/47 46/59/46
f 55/68/55 59/72/59 58/71/58
f 55/68/55 58/71/58 56/69/56
vt 0.253723 0.292386
vt 0.238785 0.231979
f 23/73/23 22/74/22 58/71/58
f 23/73/23 58/71/58 46/59/46
vt 0.233486 0.206200
f 22/74/22 24/75/24 56/69/56
f 22/74/22 56/69/56 58/71/58
vt 0.495937 -0.043007
vt 0.344896 -0.079676
vt 0.456612 -0.069324
f 60/76/60 42/77/42 44/78/44
vt 0.512625 -0.028184
f 61/79/61 42/77/42 60/76/60
vt 0.291360 0.105291
vt 0.291536 0.053075
vt 0.540826 0.057706
f 50/80/50 62/81/62 63/82/63
vt 0.536033 0.109872
f 50/80/50 63/82/63 51/83/51
vt 0.541553 0.036884
vt 0.284639 0.034127
vt 0.277147 0.024636
f 64/84/64 65/85/65 66/86/66
f 62/81/62 65/85/65 64/84/64
f 62/81/62 64/84/64 63/82/63
vt 0.263761 0.015726
vt 0.538128 0.017476
f 66/86/66 67/87/67 68/88/68
f 66/86/66 68/88/68 64/84/64
vt 0.302261 -0.010389
vt 0.523693 -0.014962
f 69/89/69 42/77/42 70/90/70
vt 0.532675 0.000559
f 69/89/69 70/90/70 71/91/71
f 70/90/70 42/77/42 61/79/61
f 68/88/68 67/87/67 69/89/69
f 68/88/68 69/89/69 71/91/71
vt 0.269237 -0.024973
vt 0.302263 -0.084086
f 69/89/69 37/92/37 4/93/4
f 69/89/69 4/93/4 42/77/42
vt 0.253678 0.012611
f 67/87/67 38/94/38 37/92/37
f 67/87/67 37/92/37 69/89/69
vt 0.328021 0.468853
vt 0.438709 0.737255
vt 0.288273 0.739968
f 46/95/46 72/96/72 39/97/39
vt 0.232932 0.513596
f 46/95/46 39/97/39 23/98/23
vt 0.388511 0.468787
f 72/96/72 46/95/46 44/99/44
vt 0.497431 0.737187
f 72/96/72 44/99/44 43/100/43
# 88 faces, 100 coords texture

# End of File
