####
#
# OBJ File Generated by Meshlab
#
####
# Object pants.obj
#
# Vertices: 109
# Faces: 188
#
####
mtllib ./pants.obj.mtl

vn -0.997385 0.048485 0.053587
v -0.200272 -0.423839 0.004417
vn -0.681498 0.098770 -0.725125
v -0.179611 -0.511289 -0.132358
vn -0.986487 0.006068 -0.163728
v -0.200825 -0.517279 0.004286
vn -0.000039 0.084208 0.996448
v -0.001809 0.473732 0.151533
vn 0.006315 0.298459 0.954402
v -0.001683 0.511124 0.139839
vn -0.189803 0.156150 0.969326
v -0.050094 0.513916 0.139839
vn -0.927331 0.353645 0.122445
v -0.199222 0.482368 0.024539
vn -0.712089 0.216872 0.667755
v -0.141850 0.518035 0.082229
vn -0.887854 0.431403 0.160019
v -0.180246 0.519201 0.030526
vn -0.493420 0.211737 0.843626
v -0.097145 0.515816 0.121533
vn -0.486709 0.041751 0.872566
v -0.133734 0.343522 0.143376
vn -0.978138 0.201043 0.053181
v -0.219162 0.427879 0.014804
vn 0.233124 0.071377 -0.969824
v -0.118627 -0.508679 -0.132358
vn -0.304146 0.160325 -0.939037
v -0.153162 -0.395884 -0.132358
vn 0.747806 0.231427 -0.622277
v -0.038634 -0.503449 -0.096827
vn 0.995951 0.074917 -0.049697
v -0.022656 -0.420989 -0.024319
vn 0.986086 -0.036332 0.162215
v -0.026075 -0.514329 -0.024441
vn 0.000107 0.002580 0.999997
v -0.001888 0.422630 0.151388
vn -0.999900 -0.003149 0.013769
v -0.222765 0.344989 0.006845
vn 0.438864 0.203833 0.875129
v 0.094057 0.513808 0.121533
vn 0.498842 0.034911 0.865989
v 0.130758 0.341009 0.143376
vn 0.710711 0.190294 0.677257
v 0.139112 0.516026 0.091533
vn 0.191505 0.155377 0.969115
v 0.047006 0.511908 0.139839
vn -0.233128 0.071381 -0.969823
v 0.086708 -0.518119 -0.132358
vn 0.187525 0.051285 -0.980920
v 0.121243 -0.405329 -0.132358
vn 0.616239 0.090737 -0.782315
v 0.147692 -0.520729 -0.132358
vn 0.958723 0.004834 -0.284301
v 0.191401 -0.523409 0.004981
vn 0.999782 0.001888 -0.020817
v 0.190757 -0.429969 0.004398
vn -0.800000 0.250062 -0.545408
v 0.006716 -0.512889 -0.096827
vn -0.995811 0.088032 0.024708
v 0.005307 -0.426979 -0.024347
vn 0.979791 0.193164 0.051943
v 0.210345 0.422321 0.014121
vn 0.941968 0.332196 0.048391
v 0.190304 0.476836 0.024270
vn -0.999279 0.012073 -0.036003
v -0.002598 -0.267277 -0.024137
vn -0.996861 -0.060671 -0.050857
v -0.002094 -0.332828 -0.024292
vn 0.078898 -0.037695 0.996170
v 0.131089 -0.288424 0.143376
vn -0.952783 -0.034796 0.301653
v 0.008758 -0.521309 -0.024328
vn -0.001822 -0.072139 0.997393
v -0.001271 0.355583 0.143376
vn -0.014152 -0.061902 0.997982
v 0.067319 0.330201 0.143376
vn -0.998232 -0.054839 -0.022940
v -0.233463 0.053714 0.003996
vn 0.004979 -0.116723 -0.993152
v -0.111047 0.042655 -0.132358
vn -0.999397 0.034194 -0.006089
v -0.227763 -0.017899 0.004795
vn 0.945354 0.317245 0.075244
v 0.177113 0.514773 0.030049
vn 0.000093 -0.093223 -0.995645
v 0.115508 -0.294392 -0.151533
vn 0.991632 -0.057550 -0.115561
v -0.014860 -0.326849 -0.024270
vn -0.988207 -0.147668 0.040515
v -0.209402 -0.337550 0.004965
vn -0.105724 -0.026358 -0.994046
v -0.134134 -0.284948 -0.132358
vn 0.994011 0.014421 -0.108325
v -0.014269 -0.260914 -0.024303
vn 0.012793 -0.062319 0.997974
v -0.070295 0.332712 0.143376
vn -0.002903 -0.405553 0.914067
v -0.001828 0.247584 0.131256
vn -0.002840 -0.120969 0.992652
v -0.001864 0.307354 0.143376
vn -0.995483 0.085011 0.042262
v -0.240837 0.220089 0.006769
vn -0.200613 -0.196155 0.959832
v -0.119731 0.209377 0.143376
vn -0.999015 0.043998 -0.005736
v -0.240051 -0.128717 0.004480
vn 0.994556 -0.010740 -0.103647
v -0.018570 -0.136865 -0.024335
vn -0.026185 -0.748016 0.663164
v -0.001783 0.211403 0.089769
vn 0.100184 -0.018551 0.994796
v -0.114551 0.025385 0.143376
vn 0.948836 -0.230382 0.215952
v -0.031321 0.130383 0.020057
vn -0.049420 -0.988715 -0.141423
v -0.008603 0.196757 0.005863
vn -0.996254 -0.073715 0.045220
v -0.236337 0.138055 0.006196
vn 0.999380 -0.003971 0.034977
v 0.213786 0.339317 0.006001
vn 0.987336 0.155179 0.032982
v 0.210441 0.282261 0.006448
vn 0.219765 -0.183481 0.958143
v 0.117296 0.206614 0.143376
vn 0.494716 -0.074655 -0.865842
v 0.173995 0.016544 -0.132358
vn -0.994755 0.010569 -0.101736
v 0.001036 -0.142768 -0.024422
vn -0.453340 -0.211648 -0.865845
v 0.061285 0.030685 -0.132358
vn 0.974160 -0.223887 -0.029774
v 0.211443 -0.343662 -0.010248
vn 0.995955 0.003225 -0.089797
v 0.240837 -0.134812 -0.037430
vn 0.969462 0.014257 0.244829
v 0.218294 -0.024038 0.004646
vn 0.995146 0.042749 -0.088644
v -0.023639 -0.015733 -0.024334
vn 0.985905 0.094012 0.138394
v 0.231669 0.213978 0.006013
vn -0.024799 -0.038203 0.998962
v 0.115312 0.024880 0.143376
vn -0.928466 -0.232740 0.289454
v 0.014203 0.124438 0.020029
vn -0.998754 -0.026885 0.042044
v 0.009444 0.041861 -0.024278
vn 0.621511 0.082051 -0.779097
v 0.187811 0.181968 -0.132358
vn 0.458988 0.147813 -0.876060
v 0.148303 0.269395 -0.132358
vn -0.997303 0.045497 0.057597
v 0.006434 -0.021889 -0.024304
vn -0.017920 -0.059354 0.998076
v -0.133519 -0.285663 0.143376
vn -0.988831 -0.148895 0.006634
v -0.233096 -0.255399 0.005912
vn 0.982690 -0.156344 -0.099381
v 0.233966 -0.261561 -0.026630
vn 0.995579 -0.038435 -0.085709
v -0.026484 0.048021 -0.024306
vn -0.006017 -0.179017 -0.983828
v -0.013984 0.286117 -0.132358
vn -0.048797 0.003283 -0.998803
v 0.089955 0.210116 -0.132358
vn -0.989339 0.140610 -0.037920
v -0.219981 0.287372 0.004794
vn -0.479214 0.051595 -0.876180
v -0.140553 0.289712 -0.132358
vn -0.506294 -0.012463 -0.862271
v -0.153079 0.196412 -0.132358
vn 0.982591 -0.048722 0.179282
v 0.227123 0.131931 0.005017
vn 0.487271 -0.010794 -0.873184
v -0.061666 0.188098 -0.132358
vn -0.007883 -0.511486 -0.859255
v -0.015900 0.247680 -0.107332
vn -0.013405 -0.859758 -0.510525
v -0.015288 0.223520 -0.067454
vn 0.983638 -0.055351 0.171442
v 0.223713 0.047725 0.006700
vn 0.582442 0.247225 -0.774365
v 0.153539 0.412865 -0.106184
vn -0.499260 0.238435 -0.832999
v -0.139715 0.421449 -0.124346
vn 0.025483 0.058648 -0.997953
v -0.015547 0.333778 -0.132358
vn -0.527444 0.508120 -0.680894
v -0.122458 0.527642 -0.058467
vn -0.235384 0.551884 -0.800012
v -0.076990 0.531444 -0.072878
vn -0.777935 0.413859 -0.472799
v -0.156616 0.522573 -0.018467
vn -0.038967 0.302509 0.952350
v -0.146270 -0.527229 0.143376
vn -0.798322 0.422200 0.429452
v -0.213598 -0.522439 0.076580
vn 0.001821 0.462430 -0.886654
v -0.015554 0.502460 -0.108322
vn 0.054504 0.159404 -0.985708
v -0.015384 0.434341 -0.124346
vn -0.011158 0.654383 -0.756081
v -0.012570 0.534369 -0.080749
vn 0.692109 0.301349 0.655876
v -0.079339 -0.531609 0.086321
vn 0.067763 0.297819 0.952214
v 0.143840 -0.529999 0.143376
vn 0.796507 0.400893 -0.452616
v 0.149985 0.515706 -0.018467
vn 0.243793 0.448959 -0.859652
v 0.070463 0.524576 -0.078467
vn 0.564068 0.472377 -0.677265
v 0.120463 0.520775 -0.058467
vn 0.799372 0.462260 0.383822
v 0.211168 -0.525199 0.076580
vn -0.683456 0.250798 0.685557
v 0.076908 -0.534369 0.086321
vn -0.541610 -0.093986 -0.835360
v 0.037232 0.164104 -0.132358
# 109 vertices, 0 vertices normals


usemtl material_0
vt 0.461767 0.208951
vt 0.383283 0.126455
vt 0.461756 0.127823
f 1/1/1 2/2/2 3/3/3
vt 0.707990 1.017950
vt 0.678680 1.071820
vt 0.636361 1.066910
f 4/4/4 5/5/5 6/6/6
vt 0.502612 0.995509
vt 0.572835 1.065870
vt 0.530735 1.071280
f 7/7/7 8/8/8 9/9/9
vt 0.603897 1.066240
vt 0.592544 0.911716
f 6/6/6 10/10/10 11/11/11
vt 0.489021 0.950487
f 12/12/12 11/11/11 8/8/8
vt 0.321825 0.122631
vt 0.344925 0.223026
vt 0.238018 0.121560
f 13/13/13 14/14/14 15/15/15
vt 0.179133 0.199878
vt 0.185930 0.122133
f 16/16/16 17/17/17 15/15/15
f 14/14/14 13/13/13 2/2/2
vt 0.715582 0.985069
f 18/18/18 6/6/6 11/11/11
f 18/18/18 4/4/4 6/6/6
vt 0.481921 0.913816
f 12/12/12 19/19/19 11/11/11
f 14/14/14 2/2/2 1/1/1
f 7/7/7 12/12/12 8/8/8
f 16/16/16 15/15/15 14/14/14
vt 1.194730 1.067300
vt 1.208080 0.912281
vt 1.230440 1.066930
f 20/20/20 21/21/21 22/22/22
vt 1.162490 1.067970
vt 1.120800 1.073080
vt 1.095220 1.019070
f 23/23/23 5/24/5 4/25/4
vt 1.086630 0.984941
f 23/23/23 18/26/18 21/21/21
vt 1.479410 0.122940
vt 1.453590 0.222999
vt 1.416660 0.125952
f 24/27/24 25/28/25 26/29/26
vt 1.339270 0.128697
vt 1.338080 0.207905
f 27/30/27 26/29/26 28/31/28
vt 1.561880 0.120538
vt 1.619630 0.199601
f 25/28/25 29/32/29 30/33/30
vt 1.312310 0.950423
vt 1.299310 0.995466
f 22/22/22 31/34/31 32/35/32
f 4/25/4 18/26/18 23/23/23
f 22/22/22 21/21/21 31/34/31
vt 1.056420 0.322054
vt 1.064280 0.262565
vt 1.193010 0.324366
f 33/36/33 34/37/34 35/38/35
vt 1.630150 0.274444
f 30/33/30 34/39/34 25/28/25
vt 1.615220 0.121792
f 36/40/36 30/33/30 29/32/29
vt 1.074560 0.926051
vt 1.135500 0.904663
f 37/41/37 38/42/38 18/26/18
vt 0.465597 0.645593
vt 0.358802 0.586924
vt 0.465597 0.563123
f 39/43/39 40/44/40 41/45/41
vt 1.266540 1.072110
f 22/22/22 32/35/32 42/46/42
vt 1.486180 0.313776
f 43/47/43 25/28/25 34/39/34
vt 0.170097 0.274579
f 44/48/44 16/16/16 14/14/14
vt 0.461775 0.279010
vt 0.313588 0.313389
f 45/49/45 46/50/46 14/14/14
vt 0.163994 0.328495
f 44/48/44 46/50/46 47/51/47
vt 0.665103 0.905260
f 48/52/48 18/18/18 11/11/11
f 8/8/8 11/11/11 10/10/10
vt 0.738796 0.801491
vt 0.731349 0.875351
f 49/53/49 50/54/50 48/52/48
vt 0.726590 0.924971
f 50/54/50 37/55/37 48/52/48
vt 0.472089 0.774499
vt 0.622380 0.740805
f 51/56/51 52/57/52 11/11/11
vt 0.466867 0.463225
f 46/50/46 53/58/53 40/44/40
f 40/44/40 53/58/53 41/45/41
vt 0.148905 0.436679
f 47/51/47 46/50/46 54/59/54
vt 0.757967 0.747635
f 49/53/49 52/57/52 55/60/55
vt 0.624431 0.594751
vt 0.790594 0.661966
f 52/57/52 56/61/56 57/62/57
f 57/62/57 55/60/55 52/57/52
vt 0.802195 0.726901
f 55/60/55 57/62/57 58/63/58
f 49/53/49 48/52/48 52/57/52
vt 0.472764 0.719184
f 59/64/59 56/61/56 52/57/52
vt 1.318220 0.913374
vt 1.323350 0.871605
f 60/65/60 21/21/21 61/66/61
vt 1.178810 0.741045
f 62/67/62 21/21/21 38/42/38
vt 1.062350 0.801593
f 49/68/49 62/67/62 38/42/38
vt 1.635480 0.328431
f 34/39/34 33/69/33 43/47/43
vt 1.439000 0.587588
vt 1.650280 0.436815
vt 1.555770 0.590034
f 63/70/63 64/71/64 65/72/65
vt 1.337000 0.280308
f 28/31/28 25/28/25 66/73/66
f 26/29/26 25/28/25 28/31/28
vt 1.334280 0.462124
vt 1.332850 0.563440
f 67/74/67 63/70/63 68/75/68
vt 1.042620 0.747309
f 55/76/55 62/67/62 49/68/49
vt 0.133548 0.536154
f 54/59/54 40/44/40 69/77/69
vt 1.328470 0.773995
f 21/21/21 62/67/62 70/78/70
vt 1.176770 0.595144
vt 1.010000 0.663285
vt 1.019380 0.591631
f 71/79/71 72/80/72 73/81/73
f 70/78/70 61/66/61 21/21/21
vt 0.998995 0.727172
f 72/80/72 55/76/55 58/82/58
vt 1.332560 0.867628
vt 1.440070 0.723137
vt 1.474490 0.831351
f 61/83/61 74/84/74 75/85/75
f 63/70/63 43/47/43 64/71/64
vt 1.665500 0.536495
f 65/72/65 64/71/64 76/86/76
f 62/67/62 72/80/72 71/79/71
vt 0.471469 0.279333
vt 0.606909 0.324172
vt 0.472140 0.350910
f 45/87/45 77/88/77 78/89/78
vt 1.335930 0.351941
f 67/74/67 79/90/79 43/47/43
f 20/20/20 23/23/23 21/21/21
vt 0.780488 0.591103
f 56/61/56 80/91/80 57/62/57
f 74/84/74 63/70/63 65/72/65
vt 0.465598 0.353024
f 46/50/46 78/92/78 53/58/53
vt 0.123687 0.593531
f 40/44/40 80/93/80 69/77/69
f 14/14/14 46/50/46 44/48/44
f 18/26/18 38/42/38 21/21/21
vt 1.630420 0.820661
vt 1.545870 0.785157
f 81/94/81 75/85/75 82/95/82
f 45/49/45 78/92/78 46/50/46
f 45/49/45 14/14/14 1/1/1
vt 0.467970 0.867058
vt 0.324961 0.831128
vt 0.359792 0.723932
f 83/96/83 84/97/84 85/98/85
vt 1.334100 0.718999
f 63/70/63 74/84/74 86/99/86
vt 1.070220 0.876871
f 50/100/50 38/42/38 37/41/37
vt 0.477440 0.872716
f 19/19/19 83/101/83 11/11/11
vt 0.205545 0.724213
f 85/98/85 87/102/87 40/44/40
f 46/50/46 40/44/40 54/59/54
vt 0.161193 0.783301
f 87/102/87 85/98/85 88/103/88
vt 0.465521 0.717637
f 59/104/59 40/44/40 39/43/39
vt 0.772815 0.526210
vt 0.762254 0.435959
f 69/105/69 56/61/56 54/106/54
f 85/98/85 40/44/40 59/104/59
f 87/102/87 80/93/80 40/44/40
vt 0.081324 0.741141
vt 0.111207 0.678339
vt 0.134144 0.757761
f 58/107/58 57/108/57 89/109/89
vt 0.170093 0.821122
f 88/103/88 85/98/85 81/110/81
f 89/109/89 57/108/57 87/102/87
vt 0.468805 0.772269
f 85/98/85 51/111/51 83/96/83
vt 0.737617 0.262963
vt 0.744131 0.321801
f 44/112/44 47/113/47 77/88/77
f 84/97/84 81/110/81 85/98/85
f 77/88/77 54/106/54 56/61/56
vt 0.465525 0.912905
f 83/96/83 19/114/19 84/97/84
f 69/105/69 80/91/80 56/61/56
vt 0.472117 0.556762
vt 0.471456 0.459798
f 56/61/56 41/115/41 53/116/53
vt 1.328470 0.648559
vt 1.328470 0.555917
f 90/117/90 71/79/71 68/118/68
f 78/89/78 77/88/77 53/116/53
vt 1.075650 0.192260
f 35/38/35 34/37/34 30/119/30
vt 1.331910 0.648402
f 63/70/63 90/120/90 68/75/68
vt 1.328470 0.460139
f 71/79/71 67/121/67 68/118/68
f 74/84/74 82/95/82 75/85/75
vt 1.025090 0.524562
vt 1.038950 0.436350
f 71/79/71 76/122/76 64/123/64
vt 1.328470 0.719826
f 71/79/71 86/124/86 62/67/62
f 35/38/35 67/121/67 71/79/71
vt 0.472837 0.208323
f 45/87/45 1/125/1 77/88/77
vt 1.480490 0.940791
vt 1.333990 0.913488
f 75/85/75 91/126/91 60/127/60
vt 1.328470 0.350583
f 35/38/35 79/128/79 67/121/67
f 60/127/60 61/83/61 75/85/75
f 33/36/33 35/38/35 64/123/64
f 64/123/64 35/38/35 71/79/71
vt 1.331410 0.773628
f 70/129/70 86/99/86 74/84/74
f 77/88/77 56/61/56 53/116/53
vt 0.724922 0.192683
f 77/88/77 16/130/16 44/112/44
vt 0.319151 0.941057
vt 0.178705 0.891912
f 92/131/92 93/132/93 84/97/84
f 81/110/81 84/97/84 93/132/93
vt 0.325282 1.067810
vt 0.293648 1.069710
f 92/131/92 94/133/94 95/134/95
vt 0.351519 1.067230
vt 0.463772 0.954904
f 96/135/96 92/131/92 12/136/12
vt 0.594469 0.119034
f 16/130/16 77/88/77 97/137/97
vt 0.525147 0.123176
f 98/138/98 97/137/97 1/125/1
vt 0.474871 0.126193
f 1/125/1 3/139/3 98/138/98
f 77/88/77 1/125/1 97/137/97
vt 0.454987 0.996828
f 96/135/96 12/136/12 7/140/7
vt 0.212394 1.031450
vt 0.177048 0.965182
f 92/131/92 99/141/99 100/142/100
f 95/134/95 99/141/99 92/131/92
vt 0.242826 1.076310
f 95/134/95 101/143/101 99/141/99
vt 0.663383 0.115252
vt 0.719245 0.113369
f 102/144/102 17/145/17 16/130/16
vt 0.404308 1.071730
f 7/140/7 9/146/9 96/135/96
f 92/131/92 96/135/96 94/133/94
f 97/137/97 102/144/102 16/130/16
vt 1.328470 0.279590
vt 1.328470 0.207933
f 66/147/66 35/38/35 28/148/28
vt 1.206140 0.118522
f 35/38/35 103/149/103 28/148/28
f 103/149/103 35/38/35 30/119/30
vt 1.335080 0.954834
vt 1.449740 1.066180
vt 1.343250 0.994894
f 31/150/31 104/151/104 32/152/32
f 104/151/104 31/150/31 91/126/91
vt 1.505460 1.069480
vt 1.476850 1.068250
f 91/126/91 105/153/105 106/154/106
vt 1.397790 1.071450
f 32/152/32 104/151/104 42/155/42
vt 1.587430 1.029760
f 91/126/91 99/156/99 105/153/105
f 79/128/79 35/38/35 66/147/66
vt 1.275460 0.122666
f 103/149/103 107/157/107 28/148/28
vt 1.328470 0.125679
f 28/148/28 107/157/107 27/158/27
f 60/127/60 91/126/91 31/150/31
vt 1.081360 0.112857
vt 1.137220 0.114739
f 30/119/30 36/159/36 108/160/108
vt 1.555280 1.077060
f 105/153/105 99/156/99 101/161/101
f 108/160/108 103/149/103 30/119/30
vt 1.675710 0.594007
vt 1.689880 0.678016
vt 1.592470 0.726182
f 73/162/73 72/163/72 109/164/109
vt 1.665100 0.757737
vt 1.718120 0.741793
f 89/165/89 72/163/72 58/166/58
f 89/165/89 109/164/109 72/163/72
vt 1.638750 0.782940
f 88/167/88 109/164/109 89/165/89
f 89/109/89 87/102/87 88/103/88
f 83/101/83 51/56/51 11/11/11
f 88/167/88 82/95/82 109/164/109
vt 1.622360 0.965634
f 99/156/99 91/126/91 100/168/100
vt 1.621100 0.891341
f 93/169/93 75/85/75 81/94/81
f 91/126/91 106/154/106 104/151/104
f 109/164/109 65/72/65 73/162/73
f 71/79/71 90/117/90 86/124/86
f 76/122/76 71/79/71 73/81/73
f 92/131/92 84/97/84 19/114/19
f 65/72/65 76/86/76 73/162/73
f 79/90/79 66/73/66 43/47/43
f 88/167/88 81/94/81 82/95/82
f 21/21/21 60/65/60 31/34/31
f 93/169/93 100/168/100 91/126/91
f 72/80/72 62/67/62 55/76/55
f 19/114/19 12/136/12 92/131/92
f 66/73/66 25/28/25 43/47/43
f 86/99/86 90/120/90 63/70/63
f 64/71/64 43/47/43 33/69/33
f 25/28/25 24/27/24 29/32/29
f 51/56/51 59/64/59 52/57/52
f 74/84/74 61/83/61 70/129/70
f 54/106/54 77/88/77 47/113/47
f 57/108/57 80/93/80 87/102/87
f 109/164/109 82/95/82 74/84/74
f 59/104/59 51/111/51 85/98/85
f 86/124/86 70/78/70 62/67/62
f 93/169/93 91/126/91 75/85/75
vt 0.472108 0.648770
f 39/170/39 56/61/56 59/64/59
f 39/170/39 41/115/41 56/61/56
f 67/74/67 43/47/43 63/70/63
f 49/68/49 38/42/38 50/100/50
f 93/132/93 92/131/92 100/142/100
f 48/52/48 11/11/11 52/57/52
f 109/164/109 74/84/74 65/72/65
f 18/18/18 48/52/48 37/55/37
# 188 faces, 170 coords texture

# End of File
