####
#
# OBJ File Generated by Meshlab
#
####
# Object skirt.obj
#
# Vertices: 127
# Faces: 207
#
####
mtllib ./skirt.obj.mtl

vn -5.312958 2.477938 0.575655
v -0.234225 0.014244 0.013898
vn 5.111055 2.720603 -0.054382
v 0.211072 0.020899 -0.010089
vn -2.793098 0.979282 0.282156
v -0.196075 0.126634 0.010204
vn 2.481092 1.514391 -0.232267
v 0.132171 0.163375 -0.003535
vn -0.348384 0.155556 -3.137684
v -0.041023 0.109935 -0.102644
vn -0.668172 0.136223 -6.243532
v -0.026712 -0.020271 -0.110689
vn -0.363572 0.162349 -3.274230
v 0.032858 0.122128 -0.110243
vn -0.664116 0.105576 -6.243677
v 0.092403 -0.010264 -0.123420
vn -0.362715 0.161959 -3.266722
v -0.143902 0.108785 -0.091278
vn -0.655335 0.264444 -6.242775
v -0.157211 -0.007229 -0.095552
vn -0.364795 0.162876 -3.285509
v -0.096292 0.104986 -0.096753
vn -0.693720 0.196666 -6.240642
v -0.096329 -0.016739 -0.102785
vn 1.068929 0.797163 -2.411770
v 0.078879 0.140220 -0.114457
vn 2.099396 1.258862 -4.611602
v 0.147875 0.004103 -0.128866
vn -0.358274 0.159976 -3.226569
v -0.004054 0.113965 -0.106550
vn -0.674312 0.087078 -6.242282
v 0.033417 -0.019565 -0.117331
vn -1.745083 0.456105 -1.877357
v -0.178717 0.116928 -0.087010
vn -3.160489 1.133300 -4.154412
v -0.205204 0.004818 -0.089626
vn 4.842808 2.774176 -0.522530
v 0.177618 0.092194 -0.009661
vn 2.002742 1.557982 -4.661396
v 0.114601 0.069747 -0.121918
vn -0.692569 0.309206 -6.237240
v 0.063687 0.053584 -0.117065
vn -0.692593 0.309217 -6.237236
v 0.015346 0.044831 -0.112131
vn -0.692553 0.309232 -6.237240
v -0.033613 0.042522 -0.106810
vn -0.692553 0.309246 -6.237239
v -0.096311 0.041964 -0.099876
vn -0.692542 0.309186 -6.237244
v -0.150792 0.048720 -0.093492
vn -3.285644 0.940120 -3.897997
v -0.192430 0.058884 -0.088365
vn -5.413881 1.777160 0.606839
v -0.219047 0.069932 0.013341
vn 5.162799 2.281919 -0.530777
v 0.205393 0.035457 -0.010655
vn 2.033290 1.499069 -4.667577
v 0.140747 0.018166 -0.127377
vn -0.692614 0.309357 -6.237227
v 0.086252 0.003414 -0.122057
vn -0.692551 0.309262 -6.237239
v 0.029546 -0.005769 -0.116217
vn -0.692540 0.309402 -6.237233
v -0.028191 -0.006819 -0.109857
vn -0.692557 0.309257 -6.237238
v -0.096325 -0.004163 -0.102162
vn -0.692556 0.309328 -6.237235
v -0.155836 0.004757 -0.095110
vn -3.277029 0.877442 -3.989242
v -0.202468 0.016401 -0.089355
vn -5.617298 1.719679 0.573901
v -0.230130 0.025592 0.013190
vn -1.729543 5.541087 0.679890
v -0.329824 -0.125543 0.016441
vn -0.040423 3.049824 0.012928
v -0.449056 -0.126778 0.010016
vn 2.123667 5.222617 0.108536
v 0.248264 -0.021940 -0.010481
vn -0.021868 2.696296 -0.512725
v 0.450928 -0.025904 -0.021962
vn -0.037507 3.265493 0.104242
v -0.042517 -0.152955 -0.291026
vn -0.311316 3.082550 -2.765188
v -0.023116 -0.158507 -0.110127
vn -1.371664 2.422199 -4.725799
v 0.097293 -0.130362 -0.121737
vn -1.130305 2.696652 -1.861555
v 0.267652 -0.130732 -0.225714
vn 0.339081 3.031976 -3.703975
v -0.169848 -0.136952 -0.096915
vn 1.024003 3.495083 -1.346196
v -0.308221 -0.131625 -0.188339
vn 0.124436 3.137471 -3.188888
v -0.105382 -0.148851 -0.103196
vn 0.402009 3.510668 -0.087734
v -0.192515 -0.142730 -0.257548
vn -0.870684 3.027460 -3.133115
v 0.041370 -0.148441 -0.115771
vn -0.307030 3.402944 -0.027644
v 0.100618 -0.144535 -0.293058
vn -1.107994 3.961340 -3.974635
v -0.253030 -0.108467 -0.092218
vn -0.063374 3.466418 0.626761
v -0.396808 -0.104624 -0.128008
vn 0.108989 1.962993 -5.572459
v 0.175180 -0.085375 -0.131194
vn -0.092166 3.240433 -0.559614
v 0.371550 -0.087887 -0.178079
vn -0.231495 1.546916 -0.365636
v 0.354450 -0.085576 -0.247192
vn -0.177277 2.234749 -0.023969
v 0.200363 -0.127313 -0.299148
vn -0.150103 2.668579 0.095626
v 0.034943 -0.142801 -0.308659
vn 0.183656 2.768860 0.063213
v -0.139006 -0.143052 -0.282995
vn 0.223242 2.240805 -0.033604
v -0.256585 -0.130720 -0.255413
vn 0.231390 1.531513 -0.229018
v -0.385126 -0.102741 -0.201882
vn -0.127596 2.697796 0.395129
v -0.432088 -0.123086 -0.076205
vn -0.086359 6.257979 0.496264
v -0.340271 -0.125354 0.014232
vn 0.637898 6.015937 -0.397686
v -0.266336 -0.108111 -0.095531
vn 1.294301 5.926297 -1.258631
v -0.182654 -0.136459 -0.105376
vn 0.827823 6.221311 -0.142671
v -0.113445 -0.148284 -0.117482
vn -0.092923 6.230899 0.173037
v -0.024911 -0.157993 -0.126869
vn -1.136738 6.155738 -0.189714
v 0.046853 -0.148079 -0.132176
vn -1.954499 5.059716 -2.478542
v 0.113059 -0.130396 -0.131360
vn -1.347839 5.049553 -3.201680
v 0.193352 -0.085608 -0.135535
vn -0.140891 5.746438 -0.342592
v 0.267191 -0.022310 -0.011531
vn 0.000000 0.000000 3.160784
v -0.018173 0.109763 0.111065
vn 0.004905 0.122453 6.280791
v -0.001996 -0.020473 0.111065
vn 0.000000 0.000000 3.298347
v 0.055993 0.122577 0.111065
vn -0.002498 0.091848 6.281809
v 0.117710 -0.009475 0.111065
vn 0.000000 0.000000 3.290808
v -0.121665 0.107765 0.111065
vn 0.008900 0.104054 6.281434
v -0.133471 -0.008490 0.111065
vn 0.000000 0.000000 3.309690
v -0.073713 0.104354 0.111065
vn 0.007511 0.125393 6.280669
v -0.072087 -0.017510 0.111065
vn 1.363365 0.716097 2.170390
v 0.102048 0.141068 0.111065
vn 2.977539 0.687337 3.666916
v 0.173326 0.005364 0.111065
vn 0.000000 0.000000 3.250361
v 0.018967 0.114101 0.111065
vn -0.009951 0.118128 6.280941
v 0.058491 -0.019272 0.111065
vn -1.439609 0.321589 2.165964
v -0.156803 0.115631 0.111065
vn -2.460771 0.971917 4.854491
v -0.181923 0.003176 0.111065
vn 2.607019 1.406815 4.186976
v 0.138951 0.070809 0.111065
vn 0.000000 0.000000 6.283185
v 0.087946 0.054209 0.111065
vn 0.000000 0.000000 6.283185
v 0.039430 0.045049 0.111065
vn 0.000000 0.000000 6.283185
v -0.009798 0.042335 0.111065
vn 0.000000 0.000000 6.283185
v -0.072871 0.041260 0.111065
vn 0.000000 0.000000 6.283185
v -0.127778 0.047575 0.111065
vn -2.736465 0.708373 4.509386
v -0.169809 0.057409 0.111065
vn 2.628050 1.363624 4.191950
v 0.165962 0.019385 0.111065
vn 0.000000 0.000000 6.283185
v 0.111334 0.004168 0.111065
vn 0.000000 0.000000 6.283185
v 0.054407 -0.005492 0.111065
vn 0.000000 0.000000 6.283185
v -0.003668 -0.007018 0.111065
vn 0.000000 0.000000 6.283185
v -0.072255 -0.004919 0.111065
vn 0.000000 0.000000 6.283185
v -0.132251 0.003521 0.111065
vn -2.694835 0.617442 4.633547
v -0.179327 0.014794 0.111065
vn -0.265678 3.255154 -0.045284
v -0.028446 -0.161349 0.298561
vn -0.302411 3.216986 2.836665
v -0.022257 -0.163375 0.116655
vn -1.018364 2.464670 4.961855
v 0.098643 -0.125825 0.115047
vn -1.089913 2.313283 2.091803
v 0.276142 -0.124707 0.206294
vn 0.381191 3.219771 3.538916
v -0.168446 -0.153129 0.116366
vn 0.733621 3.835415 0.910924
v -0.299820 -0.152073 0.217725
vn 0.206458 3.266811 3.190583
v -0.105467 -0.160170 0.116848
vn 0.235536 3.521886 0.072817
v -0.177493 -0.158968 0.279042
vn -0.777696 3.145115 3.309139
v 0.045991 -0.147656 0.115743
vn -0.417821 3.350124 0.136190
v 0.117993 -0.145691 0.288278
vn -1.008925 3.687385 4.528685
v -0.255834 -0.132962 0.114676
vn 0.053523 3.515100 0.129793
v -0.396648 -0.133635 0.159549
vn 0.501634 2.254604 5.417455
v 0.171388 -0.077323 0.112573
vn -0.152010 3.390946 0.669197
v 0.368782 -0.076849 0.155010
vn -0.071022 2.373521 0.386505
v 0.455911 -0.024206 0.034087
vn -0.270700 1.532025 0.465064
v 0.353211 -0.076073 0.224520
vn -0.257126 2.252822 0.098401
v 0.214366 -0.123870 0.284493
vn -0.278172 2.685546 -0.036055
v 0.053618 -0.145500 0.308659
vn 0.041656 2.749122 -0.028529
v -0.122264 -0.158697 0.300507
vn 0.128600 2.265695 0.033605
v -0.243432 -0.151337 0.280857
vn 0.155852 1.608958 0.164743
v -0.379618 -0.132813 0.232394
vn 0.033466 2.421368 0.075241
v -0.455911 -0.125135 0.074885
vn 0.423759 6.156683 0.996853
v -0.268865 -0.134031 0.117579
vn 0.870376 6.126720 0.842432
v -0.180604 -0.153031 0.125747
vn 0.396413 6.262778 0.128368
v -0.108813 -0.160552 0.133500
vn -0.564881 6.211323 -0.057230
v -0.022830 -0.163187 0.133491
vn -1.494185 6.060344 0.478247
v 0.052655 -0.147475 0.131711
vn -1.968796 4.964813 2.764209
v 0.115069 -0.125722 0.123492
vn -1.302680 5.160942 3.030680
v 0.189656 -0.077279 0.116501
# 127 vertices, 0 vertices normals


usemtl material_0
vt -2.309720 -0.248522
vt -2.300910 -0.237571
vt -2.343900 -0.214386
f 14/1/14 29/2/29 28/3/28
vt -2.350670 -0.226535
f 14/1/14 28/3/28 2/4/2
vt -2.099960 -0.310325
vt -2.097660 -0.299390
vt -2.157730 -0.289511
f 12/5/12 33/6/33 32/7/32
vt -2.161490 -0.300942
f 12/5/12 32/7/32 6/8/6
vt -2.213950 -0.289573
vt -2.208040 -0.278271
vt -2.255950 -0.260144
f 16/9/16 31/10/31 30/11/30
vt -2.263830 -0.270935
f 16/9/16 30/11/30 8/12/8
vt -2.000790 -0.311059
vt -2.001070 -0.300499
vt -2.043980 -0.302281
f 18/13/18 35/14/35 34/15/34
vt -2.044970 -0.312947
f 18/13/18 34/15/34 10/16/10
f 10/16/10 34/15/34 33/6/33
f 10/16/10 33/6/33 12/5/12
f 8/12/8 30/11/30 29/2/29
f 8/12/8 29/2/29 14/1/14
f 6/8/6 32/7/32 31/10/31
f 6/8/6 31/10/31 16/9/16
vt -1.963000 -0.308727
vt -1.963820 -0.298066
f 1/17/1 36/18/36 35/14/35
f 1/17/1 35/14/35 18/13/18
vt -2.268600 -0.197404
vt -2.224460 -0.142526
vt -2.256860 -0.115232
f 20/19/20 13/20/13 4/21/4
vt -2.308860 -0.169650
f 20/19/20 4/21/4 19/22/19
vt -2.227030 -0.220564
vt -2.187530 -0.166487
f 21/23/21 7/24/7 13/20/13
f 21/23/21 13/20/13 20/19/20
vt -2.186360 -0.236820
vt -2.156740 -0.180187
f 22/25/22 15/26/15 7/24/7
f 22/25/22 7/24/7 21/23/21
vt -2.143960 -0.247586
vt -2.125140 -0.190303
f 23/27/23 5/28/5 15/26/15
f 23/27/23 15/26/15 22/25/22
vt -2.089230 -0.259286
vt -2.077710 -0.204492
f 24/29/24 11/30/11 5/28/5
f 24/29/24 5/28/5 23/27/23
vt -2.040340 -0.263158
vt -2.035380 -0.209706
f 25/31/25 9/32/9 11/30/11
f 25/31/25 11/30/11 24/29/24
vt -2.002070 -0.261770
vt -2.003440 -0.208854
f 26/33/26 17/34/17 9/32/9
f 26/33/26 9/32/9 25/31/25
vt -1.976150 -0.205634
f 3/35/3 17/34/17 26/33/26
vt -1.966800 -0.258964
f 3/35/3 26/33/26 27/36/27
f 29/2/29 20/19/20 19/22/19
f 29/2/29 19/22/19 28/3/28
f 30/11/30 21/23/21 20/19/20
f 30/11/30 20/19/20 29/2/29
f 31/10/31 22/25/22 21/23/21
f 31/10/31 21/23/21 30/11/30
f 32/7/32 23/27/23 22/25/22
f 32/7/32 22/25/22 31/10/31
f 33/6/33 24/29/24 23/27/23
f 33/6/33 23/27/23 32/7/32
f 34/15/34 25/31/25 24/29/24
f 34/15/34 24/29/24 33/6/33
f 35/14/35 26/33/26 25/31/25
f 35/14/35 25/31/25 34/15/34
f 36/18/36 27/36/27 26/33/26
f 36/18/36 26/33/26 35/14/35
vt -2.197060 0.086481
vt -2.211570 0.082865
vt -2.189200 0.042081
f 42/37/42 66/38/66 65/39/65
vt -2.172740 0.047657
f 42/37/42 65/39/65 47/40/47
vt -2.118920 -0.007347
vt -2.124810 -0.019635
vt -2.040550 -0.040135
f 45/41/45 64/42/64 63/43/63
vt -2.039250 -0.028033
f 45/41/45 63/43/63 51/44/51
f 47/40/47 65/39/65 64/42/64
f 47/40/47 64/42/64 45/41/45
vt -1.971200 -0.040058
f 51/44/51 63/43/63 62/45/62
vt -1.971580 -0.030497
f 51/44/51 62/45/62 37/46/37
vt -2.094750 0.204681
vt -2.030090 0.211608
vt -2.032410 0.228268
f 53/47/53 39/48/39 70/49/70
vt -2.100760 0.220131
f 53/47/53 70/49/70 69/50/69
vt -2.165240 0.180033
f 43/51/43 53/47/53 69/50/69
vt -2.175610 0.192722
f 43/51/43 69/50/69 68/52/68
vt -2.221930 0.140393
f 49/53/49 43/51/43 68/52/68
vt -2.237020 0.143216
f 49/53/49 68/52/68 67/54/67
f 49/53/49 67/54/67 66/38/66
f 49/53/49 66/38/66 42/37/42
vt -1.998520 -0.150964
vt -1.943840 -0.133400
f 62/45/62 61/55/61 38/56/38
vt -2.053330 -0.158793
f 63/43/63 52/57/52 61/55/61
f 63/43/63 61/55/61 62/45/62
vt -2.119700 -0.157513
f 63/43/63 60/58/60 52/57/52
vt -2.182570 -0.140126
f 64/42/64 46/59/46 60/58/60
f 64/42/64 60/58/60 63/43/63
vt -2.247790 -0.102894
f 64/42/64 59/60/59 46/59/46
vt -2.301330 -0.048628
f 65/39/65 48/61/48 59/60/59
f 65/39/65 59/60/59 64/42/64
vt -2.330170 -0.004682
f 65/39/65 58/62/58 48/61/48
vt -2.348460 0.047406
f 66/38/66 41/63/41 58/62/58
f 66/38/66 58/62/58 65/39/65
vt -2.356560 0.097122
f 57/64/57 41/63/41 66/38/66
f 57/64/57 66/38/66 67/54/67
vt -2.350790 0.156759
f 67/54/67 50/65/50 57/64/57
vt -2.315120 0.247792
f 56/66/56 50/65/50 67/54/67
f 56/66/56 67/54/67 68/52/68
vt -2.258680 0.315887
f 68/52/68 44/67/44 56/66/56
vt -2.211480 0.348168
f 55/68/55 44/67/44 68/52/68
f 55/68/55 68/52/68 69/50/69
vt -2.152770 0.371615
f 69/50/69 54/69/54 55/68/55
vt -2.055160 0.389993
f 40/70/40 54/69/54 69/50/69
f 40/70/40 69/50/69 70/49/70
vt -2.147300 0.027770
vt -2.081840 0.038958
vt -2.113530 0.095121
f 39/71/39 53/72/53 14/73/14
vt -2.157920 0.076959
f 39/71/39 14/73/14 2/74/2
vt -1.883980 0.188771
vt -1.972210 0.253395
vt -1.995380 0.198849
f 47/75/47 12/76/12 6/77/6
vt -1.911010 0.151593
f 47/75/47 6/77/6 42/78/42
vt -1.821340 0.328513
vt -1.954990 0.351637
vt -1.956340 0.306933
f 51/79/51 18/80/18 10/81/10
vt -1.849240 0.254881
f 51/79/51 10/81/10 45/82/45
vt -2.015090 0.065122
vt -1.951690 0.109760
vt -2.027440 0.154954
f 43/83/43 49/84/49 16/85/16
vt -2.070020 0.123043
f 43/83/43 16/85/16 8/86/8
vt -1.805160 0.392723
vt -1.954560 0.390115
f 51/79/51 37/87/37 1/88/1
f 51/79/51 1/88/1 18/80/18
f 45/82/45 10/81/10 12/76/12
f 45/82/45 12/76/12 47/75/47
f 49/84/49 42/78/42 6/77/6
f 49/84/49 6/77/6 16/85/16
f 53/72/53 43/83/43 8/86/8
f 53/72/53 8/86/8 14/73/14
vt -0.902942 -0.243010
vt -0.862366 -0.220309
vt -0.869345 -0.208278
f 80/89/80 2/90/2 28/91/28
vt -0.911938 -0.232213
f 80/89/80 28/91/28 92/92/92
vt -1.111640 -0.308474
vt -1.050280 -0.298018
vt -1.054220 -0.286653
f 78/93/78 72/94/72 95/95/95
vt -1.114130 -0.297580
f 78/93/78 95/95/95 96/96/96
vt -0.998010 -0.285733
vt -0.948443 -0.266224
vt -0.956513 -0.255571
f 82/97/82 74/98/74 93/99/93
vt -1.004120 -0.274534
f 82/97/82 93/99/93 94/100/94
vt -1.210800 -0.310940
vt -1.166590 -0.312057
vt -1.167760 -0.301408
f 84/101/84 76/102/76 97/103/97
vt -1.210710 -0.300375
f 84/101/84 97/103/97 98/104/98
f 76/102/76 78/93/78 96/96/96
f 76/102/76 96/96/96 97/103/97
f 74/98/74 80/89/80 92/92/92
f 74/98/74 92/92/92 93/99/93
f 72/94/72 82/97/82 94/100/94
f 72/94/72 94/100/94 95/95/95
vt -1.248630 -0.309267
f 1/105/1 84/101/84 98/104/98
vt -1.248000 -0.298592
f 1/105/1 98/104/98 36/106/36
vt -0.944934 -0.192611
vt -0.905155 -0.164153
vt -0.958087 -0.110643
f 85/107/85 19/108/19 4/109/4
vt -0.990016 -0.138502
f 85/107/85 4/109/4 79/110/79
vt -0.986108 -0.216496
f 86/111/86 85/107/85 79/110/79
vt -1.026540 -0.163108
f 86/111/86 79/110/79 73/112/73
vt -1.026510 -0.233461
f 87/113/87 86/111/86 73/112/73
vt -1.057100 -0.177346
f 87/113/87 73/112/73 81/114/81
vt -1.068720 -0.244967
f 88/115/88 87/113/87 81/114/81
vt -1.088520 -0.188013
f 88/115/88 81/114/81 71/116/71
vt -1.123250 -0.257623
f 89/117/89 88/115/88 71/116/71
vt -1.135710 -0.203030
f 89/117/89 71/116/71 77/118/77
vt -1.172070 -0.262348
f 90/119/90 89/117/89 77/118/77
vt -1.177950 -0.208984
f 90/119/90 77/118/77 75/120/75
vt -1.210370 -0.261628
f 91/121/91 90/119/90 75/120/75
vt -1.209910 -0.208689
f 91/121/91 75/120/75 83/122/83
vt -1.237250 -0.205944
f 91/121/91 83/122/83 3/123/3
vt -1.245680 -0.259438
f 91/121/91 3/123/3 27/124/27
f 92/92/92 28/91/28 19/108/19
f 92/92/92 19/108/19 85/107/85
f 93/99/93 92/92/92 85/107/85
f 93/99/93 85/107/85 86/111/86
f 94/100/94 93/99/93 86/111/86
f 94/100/94 86/111/86 87/113/87
f 95/95/95 94/100/94 87/113/87
f 95/95/95 87/113/87 88/115/88
f 96/96/96 95/95/95 88/115/88
f 96/96/96 88/115/88 89/117/89
f 97/103/97 96/96/96 89/117/89
f 97/103/97 89/117/89 90/119/90
f 98/104/98 97/103/97 90/119/90
f 98/104/98 90/119/90 91/121/91
f 36/106/36 98/104/98 91/121/91
f 36/106/36 91/121/91 27/124/27
vt -1.037930 0.034160
vt -1.000550 0.091594
vt -1.015120 0.094957
f 123/125/123 124/126/124 100/127/100
vt -1.049660 0.042786
f 123/125/123 100/127/100 105/128/105
vt -1.175790 -0.039425
vt -1.091880 -0.017455
vt -1.109740 -0.009188
f 121/129/121 122/130/122 103/131/103
vt -1.177300 -0.027346
f 121/129/121 103/131/103 109/132/109
f 122/130/122 123/125/123 105/128/105
f 122/130/122 105/128/105 103/131/103
vt -1.245140 -0.040559
f 62/133/62 121/129/121 109/132/109
vt -1.244930 -0.030991
f 62/133/62 109/132/109 37/134/37
vt -1.139280 0.218972
vt -1.133540 0.234526
vt -1.198000 0.247595
f 111/135/111 127/136/127 70/137/70
vt -1.200040 0.230893
f 111/135/111 70/137/70 39/138/39
vt -1.073410 0.198816
vt -1.065660 0.214897
f 101/139/101 126/140/126 127/136/127
f 101/139/101 127/136/127 111/135/111
vt -1.009630 0.154251
vt -0.994589 0.157338
f 107/141/107 125/142/125 126/140/126
f 107/141/107 126/140/126 101/139/101
f 124/126/124 125/142/125 107/141/107
f 124/126/124 107/141/107 100/127/100
vt -1.270900 -0.134378
vt -1.215920 -0.150988
f 62/133/62 38/143/38 120/144/120
f 121/129/121 62/133/62 120/144/120
vt -1.160970 -0.157859
f 121/129/121 120/144/120 110/145/110
vt -1.094630 -0.155421
f 121/129/121 110/145/110 119/146/119
f 122/130/122 121/129/121 119/146/119
vt -1.032050 -0.136936
f 122/130/122 119/146/119 104/147/104
vt -0.967467 -0.098566
f 122/130/122 104/147/104 118/148/118
f 123/125/123 122/130/122 118/148/118
vt -0.914867 -0.043366
f 123/125/123 118/148/118 106/149/106
vt -0.886774 0.001084
f 123/125/123 106/149/106 117/150/117
f 124/126/124 123/125/123 117/150/117
vt -0.869380 0.053491
f 124/126/124 117/150/117 99/151/99
vt -0.862130 0.103348
f 124/126/124 99/151/99 116/152/116
f 124/126/124 116/152/116 125/142/125
vt -0.868929 0.162884
f 125/142/125 116/152/116 108/153/108
vt -0.906160 0.253295
f 125/142/125 108/153/108 115/154/115
f 125/142/125 115/154/115 126/140/126
vt -0.963762 0.320404
f 126/140/126 115/154/115 102/155/102
vt -1.011520 0.363212
f 126/140/126 102/155/102 114/156/114
f 126/140/126 114/156/114 127/136/127
vt -1.070630 0.385634
f 127/136/127 114/156/114 112/157/112
vt -1.116800 0.397471
f 127/136/127 112/157/112 113/158/113
f 127/136/127 113/158/113 70/137/70
vt -1.168560 0.402308
f 70/137/70 113/158/113 40/159/40
vt -1.063650 0.073514
vt -1.104940 0.096072
vt -1.132070 0.036471
f 2/160/2 80/161/80 111/162/111
vt -1.073420 0.024141
f 2/160/2 111/162/111 39/163/39
vt -1.222540 0.196235
vt -1.245830 0.251211
vt -1.342680 0.191502
f 72/164/72 78/165/78 105/166/105
vt -1.306590 0.141042
f 72/164/72 105/166/105 100/167/100
vt -1.263450 0.305040
vt -1.267930 0.350015
vt -1.401970 0.325649
f 76/168/76 84/169/84 109/170/109
vt -1.377970 0.263133
f 76/168/76 109/170/109 103/171/103
vt -1.188020 0.065535
vt -1.148710 0.121557
vt -1.188000 0.154321
f 101/172/101 74/173/74 82/174/82
vt -1.260040 0.102321
f 101/172/101 82/174/82 107/175/107
vt -1.269140 0.389349
f 109/170/109 84/169/84 1/176/1
vt -1.418580 0.389349
f 109/170/109 1/176/1 37/177/37
f 78/165/78 76/168/76 103/171/103
f 78/165/78 103/171/103 105/166/105
f 107/175/107 82/174/82 72/164/72
f 107/175/107 72/164/72 100/167/100
f 111/162/111 80/161/80 74/173/74
f 111/162/111 74/173/74 101/172/101
# 207 faces, 177 coords texture

# End of File
