####
#
# OBJ File Generated by Meshlab
#
####
# Object pointy_ear_small.obj
#
# Vertices: 168
# Faces: 160
#
####
mtllib ./pointy_ear_small.obj.mtl

vn 0.965937 -0.228882 0.120741
v 0.000710 -0.001859 0.009502
vn 0.987513 -0.156989 -0.013102
v -0.000085 -0.007664 0.005417
vn -0.202173 -0.246212 -0.947895
v -0.004878 -0.004107 -0.015058
vn 0.420846 0.517312 -0.745169
v -0.005248 -0.000913 -0.013533
vn 0.794537 -0.027260 -0.606603
v -0.003754 -0.007953 -0.013572
vn -0.725962 0.170465 -0.666273
v -0.003959 0.000415 -0.018729
vn -0.275805 0.787744 -0.550810
v -0.005186 0.001337 -0.011160
vn -0.478378 0.698266 -0.532522
v -0.002201 0.005988 -0.014576
vn 0.763545 -0.630052 0.141536
v -0.000015 -0.004735 0.003810
vn 0.359249 -0.736496 0.573162
v 0.001066 -0.001559 0.008221
vn 0.689501 -0.565908 0.452036
v 0.005039 0.001875 0.012014
vn 0.550500 -0.539748 0.636884
v 0.007717 0.012971 0.019951
vn -0.338633 -0.466696 0.817020
v 0.004932 0.012077 0.019389
vn -0.453775 -0.417671 0.787172
v 0.002332 0.002303 0.012274
vn -0.719441 0.668115 -0.189806
v -0.001160 0.009055 -0.009695
vn 0.479316 0.765895 -0.428557
v -0.004052 0.004241 -0.006462
vn 0.299199 -0.663791 -0.685464
v -0.003110 -0.007598 -0.013405
vn 0.956898 -0.203558 -0.207150
v -0.001500 -0.008106 -0.010234
vn 0.947218 -0.061813 -0.314575
v -0.001580 -0.010483 -0.011057
vn -0.370911 -0.618246 -0.692962
v -0.003773 -0.004496 -0.017855
vn 0.621758 -0.392645 -0.677678
v -0.001461 -0.004465 -0.018189
vn 0.772161 -0.619446 -0.141610
v -0.001292 -0.007109 -0.012903
vn 0.917575 0.155998 0.365678
v 0.008337 0.015061 0.021393
vn -0.560186 0.288979 0.776327
v 0.005855 0.015016 0.021492
vn -0.287155 0.948344 -0.134853
v -0.002714 0.005894 -0.000318
vn -0.523215 0.833268 -0.178635
v 0.000550 0.012791 -0.001306
vn 0.530323 0.846202 0.051951
v 0.007668 0.015572 0.018646
vn -0.540011 0.826101 0.161074
v 0.004891 0.015456 0.018276
vn 0.556716 0.190021 -0.808678
v -0.001236 0.000613 -0.018851
vn 0.987416 -0.143386 -0.066711
v -0.000904 -0.007709 -0.002912
vn 0.988746 -0.138937 -0.055477
v -0.000976 -0.010548 -0.003073
vn -0.608244 0.793631 0.013749
v 0.002224 0.014555 0.005509
vn 0.005281 0.996990 0.077353
v -0.001180 0.006094 0.006227
vn 0.631551 0.745042 -0.214606
v 0.005320 0.014831 0.004780
vn -0.192092 -0.577889 0.793186
v 0.001583 -0.000053 0.010448
vn 0.297607 0.195995 0.934353
v 0.000199 0.002757 0.009689
vn 0.849271 -0.206972 0.485696
v 0.000810 0.000191 0.010391
vn 0.919463 -0.186378 -0.346194
v 0.007815 0.012904 0.016631
vn 0.976621 -0.139977 -0.163149
v -0.000637 -0.003301 -0.015314
vn 0.966375 -0.234363 0.105801
v -0.000684 -0.005494 -0.011860
vn 0.933949 0.195198 -0.299394
v -0.001021 -0.004497 -0.002627
vn 0.502540 0.650462 -0.569520
v 0.003216 -0.002638 0.002623
vn 0.717057 -0.695743 0.042079
v 0.002582 -0.005143 0.003671
vn 0.941402 -0.306381 -0.141046
v -0.000884 -0.006123 -0.002786
vn 0.967043 -0.241763 0.079863
v -0.002195 -0.005261 -0.009131
vn 0.994870 -0.088832 -0.048410
v -0.001801 -0.006886 -0.009881
vn 0.967468 -0.103483 -0.230862
v -0.000413 0.000878 -0.016492
vn 0.650047 0.387890 -0.653438
v 0.000235 0.006217 -0.015213
vn 0.966461 -0.213995 -0.141984
v 0.001332 0.005245 -0.013204
vn 0.695816 -0.718181 -0.007490
v 0.006300 0.012178 0.005236
vn 0.537483 0.658718 -0.526501
v 0.001926 0.008988 -0.011258
vn 0.760920 -0.625535 0.172355
v 0.002103 0.007369 -0.009623
vn 0.376909 0.853755 -0.359224
v 0.003934 0.013186 -0.002127
vn 0.844950 -0.534257 -0.025093
v 0.004738 0.010621 -0.001492
vn 0.629922 0.321178 -0.707137
v 0.005530 0.003270 0.009691
vn 0.584885 -0.639805 0.498556
v 0.004215 -0.000009 0.010486
vn 0.635935 0.360318 -0.682464
v 0.004802 0.001556 0.008323
vn 0.832084 0.315035 -0.456497
v 0.004366 -0.000165 0.006440
vn 0.401941 -0.765010 0.503194
v 0.003690 -0.001941 0.008675
vn -0.577337 0.446569 0.683562
v -0.000455 0.004709 0.008331
vn 0.906060 -0.091067 -0.413234
v 0.003712 0.003577 0.010057
vn 0.962047 -0.217498 -0.164805
v 0.004935 0.007952 0.005081
vn 0.929759 -0.364067 -0.054813
v 0.004179 0.012141 0.005168
vn 0.917256 -0.219977 -0.332042
v 0.005516 0.012955 0.016972
vn 0.349462 -0.517875 -0.780822
v 0.006221 0.013410 0.017972
vn 0.036005 -0.986438 0.160136
v 0.004698 0.012885 0.005064
vn 0.837045 -0.404481 0.368442
v -0.000792 -0.003768 -0.010360
vn 0.976214 0.080275 -0.201400
v -0.002610 -0.003825 -0.008323
vn 0.541739 0.678393 -0.496288
v 0.001208 -0.002924 0.002752
vn 0.839652 0.541326 0.044172
v -0.001196 -0.003536 -0.002620
vn 0.719660 0.225598 -0.656654
v 0.002763 -0.000469 0.006877
vn 0.419766 0.567517 -0.708322
v 0.003301 0.001299 0.008885
vn 0.076689 0.595207 -0.799905
v 0.003809 0.003053 0.010331
vn 0.516608 -0.836213 0.184023
v 0.003301 0.010816 -0.001416
vn 0.979186 -0.008372 -0.202792
v 0.001076 0.007139 -0.009290
vn 0.936080 -0.345990 -0.063612
v 0.001129 0.004793 -0.011938
vn 0.976264 -0.166608 -0.138383
v -0.000084 0.001166 -0.013694
vn 0.983638 -0.176649 -0.035369
v -0.000181 -0.002218 -0.012503
vn 0.836692 0.514574 0.187511
v -0.000172 -0.002298 -0.005178
vn 0.125994 0.980050 0.153713
v -0.000984 -0.001542 -0.005203
vn 0.743295 0.668885 -0.010259
v -0.002120 -0.002297 -0.003191
vn 0.914454 -0.360955 -0.182992
v 0.004422 0.008554 -0.001115
vn 0.955875 0.174351 -0.236441
v 0.002678 0.010212 -0.001269
vn 0.650823 -0.712163 0.263160
v 0.001404 0.006021 -0.007918
vn 0.249398 -0.657911 0.710601
v 0.000201 0.004063 -0.010118
vn 0.871230 -0.426161 0.243608
v 0.002003 0.004011 -0.010549
vn 0.985034 0.064767 -0.159727
v 0.002542 0.006335 -0.008357
vn 0.268839 0.148117 0.951728
v -0.001074 0.001558 -0.011231
vn 0.888238 -0.241521 0.390769
v -0.000269 0.001424 -0.011593
vn -0.098961 0.328588 0.939275
v -0.000462 -0.000867 -0.008256
vn 0.908379 -0.019542 0.417690
v 0.001024 -0.001159 -0.008760
vn 0.594719 -0.315291 0.739528
v -0.001386 -0.002653 -0.009153
vn 0.491318 0.582321 0.647694
v -0.002839 -0.002189 -0.008892
vn 0.038412 0.907980 0.417250
v -0.002867 -0.002955 -0.007114
vn 0.502712 0.845376 -0.180608
v -0.002550 -0.003017 -0.007806
vn 0.989404 -0.076366 -0.123480
v 0.002199 0.005607 0.004430
vn 0.984466 -0.087968 -0.151947
v 0.002936 0.001872 0.008682
vn 0.906119 -0.385504 -0.174170
v 0.001442 0.006835 -0.001139
vn 0.918379 -0.310516 -0.245274
v 0.003303 -0.000027 0.006515
vn 0.664971 -0.563968 -0.489646
v 0.003045 0.003138 0.002837
vn 0.877093 -0.411505 -0.247735
v 0.002890 0.004842 -0.001660
vn 0.952970 0.001857 -0.303058
v 0.001708 0.000736 0.001520
vn 0.883845 -0.082127 -0.460514
v 0.002371 -0.000301 0.005972
vn 0.880851 0.096880 -0.463374
v 0.000787 -0.002357 0.002551
vn 0.862379 -0.240960 -0.445242
v -0.000722 -0.000611 0.000046
vn 0.712479 0.392889 -0.581388
v -0.000476 -0.002576 -0.006914
vn 0.972822 -0.214972 0.086047
v -0.000073 -0.003571 -0.004918
vn 0.812714 0.012252 -0.582534
v -0.000471 -0.003849 -0.007136
vn 0.921223 -0.386014 -0.048386
v -0.000444 0.005630 -0.007372
vn 0.899458 -0.391684 0.193799
v -0.001118 0.004157 -0.009776
vn 0.854513 -0.028916 0.518624
v -0.001548 0.001720 -0.010720
vn 0.578638 0.136181 0.804135
v -0.002102 -0.000269 -0.010326
vn 0.976612 0.074798 0.201580
v -0.003200 -0.001809 -0.008660
vn 0.917617 -0.331731 -0.218938
v 0.000653 0.004148 -0.006756
vn 0.980405 -0.079634 0.180182
v -0.002775 -0.002170 -0.007249
vn 0.947259 -0.273197 -0.167520
v -0.000822 0.002246 -0.009050
vn 0.883512 -0.468028 0.018851
v -0.001564 0.000517 -0.008807
vn 0.941911 -0.215743 -0.257408
v -0.000309 0.003477 -0.008608
vn 0.888681 -0.458457 -0.007923
v -0.001121 0.003352 -0.006414
vn 0.641977 -0.586264 -0.494125
v 0.000579 0.002937 0.002910
vn 0.853713 -0.496526 -0.156956
v -0.000083 0.004435 -0.001786
vn 0.605390 0.755634 -0.250040
v -0.002722 -0.002174 -0.003381
vn 0.928448 -0.369739 -0.035754
v -0.002338 0.000552 -0.005845
vn 0.841402 -0.488484 -0.231140
v -0.001901 0.000699 -0.003435
vn 0.943517 -0.246119 -0.221814
v -0.002142 -0.000819 -0.004260
vn 0.954426 -0.249996 -0.163012
v -0.002245 -0.000544 -0.005739
vn 0.945917 -0.312212 -0.088115
v -0.002773 -0.000740 -0.007874
vn 0.945264 -0.325228 -0.026523
v -0.002649 -0.001355 -0.006899
vn -0.602980 0.797368 -0.024875
v -0.002017 -0.001738 -0.005240
vn 0.122841 0.890618 -0.437846
v -0.001097 -0.001569 -0.006586
vn -0.661123 0.750146 -0.014061
v -0.002221 -0.001894 -0.006201
vn 0.345206 0.580369 -0.737567
v -0.003894 -0.004422 -0.005752
vn 0.894968 0.026604 -0.445336
v -0.004146 -0.004226 -0.005776
vn 0.993556 0.015579 -0.112268
v -0.004336 -0.004393 -0.006058
vn 0.869777 0.183102 0.458217
v -0.004309 -0.004296 -0.006312
vn 0.492421 0.255948 0.831873
v -0.004181 -0.003995 -0.006593
vn -0.336802 0.660084 0.671456
v -0.003934 -0.004298 -0.006549
vn -0.083540 0.843961 0.529860
v -0.003848 -0.004601 -0.006283
vn -0.128083 0.984379 -0.120802
v -0.003892 -0.004655 -0.006072
vn 0.913175 -0.405789 -0.038037
v -0.000923 0.001985 -0.006192
vn 0.919905 -0.223953 -0.321901
v 0.000142 0.002525 -0.002520
vn 0.639803 -0.503429 -0.580699
v 0.003012 0.000048 0.006338
vn 0.982252 -0.171427 0.076113
v 0.000105 -0.003592 0.014492
vn 0.970374 -0.239455 0.032175
v -0.001143 -0.010620 0.009224
vn 0.909824 0.236945 -0.340701
v -0.006930 -0.005313 -0.021492
vn 0.919562 0.196446 -0.340315
v -0.008337 0.000429 -0.020275
vn 0.921109 0.151175 -0.358753
v -0.005225 -0.010700 -0.018887
vn 0.934930 0.185435 -0.302523
v -0.007504 0.005656 -0.016796
vn 0.923926 0.268345 -0.272674
v -0.006272 0.008422 -0.009711
vn 0.945629 0.034831 -0.323378
v -0.003195 -0.014464 -0.015034
vn 0.912531 0.347244 -0.216124
v -0.004442 0.010575 -0.000633
vn 0.967350 -0.245448 -0.063165
v -0.002066 -0.015594 -0.003499
vn 0.931027 0.351468 -0.098283
v -0.002344 0.010097 0.009586
vn 0.959017 0.279447 0.046858
v -0.000659 0.004515 0.014531
vn 0.996966 0.028871 0.072286
v 0.000482 0.000758 0.015360
vn 0.953125 0.302421 0.009716
v -0.001402 0.007723 0.012952
vn 0.630190 -0.545814 0.552220
v 0.007317 0.011491 0.018890
vn 0.641209 0.347840 -0.684002
v 0.007567 0.011520 0.015693
vn 0.390542 0.499406 -0.773350
v 0.005752 0.011474 0.016452
vn 0.967516 0.031116 -0.250887
v 0.005249 0.011440 0.015736
vn 0.995679 0.009339 -0.092394
v 0.004886 0.011138 0.013269
vn 0.895341 -0.436887 -0.086569
v 0.005172 0.012888 0.015287
vn 0.224608 -0.974449 -0.000542
v 0.006148 0.013377 0.015625
vn 0.673568 -0.734437 -0.083117
v 0.007732 0.012955 0.015356
vn 0.598747 0.796140 -0.087539
v 0.007405 0.015594 0.017200
vn -0.047582 0.991203 0.123500
v 0.006524 0.015496 0.019230
vn 0.015222 0.373010 0.927703
v 0.007156 0.015040 0.021440
vn 0.029217 -0.584828 0.810631
v 0.006436 0.013107 0.020109
# 168 vertices, 0 vertices normals


usemtl material_0
vt 0.000000 0.000000
vt 0.000000 0.000000
f 4/1/4 7/1/7 8/1/8 6/2/6
f 10/1/10 1/1/1 2/1/2 9/2/9
f 14/1/14 11/1/11 157/1/157 13/2/13
f 8/1/8 7/1/7 16/1/16 15/2/15
f 18/1/18 19/1/19 5/1/5 17/2/17
f 21/1/21 22/1/22 17/1/17 20/2/20
f 168/1/168 12/1/12 23/1/23 167/2/167
f 26/1/26 15/1/15 16/1/16 25/2/25
f 23/1/23 27/1/27 166/1/166 167/2/167
f 20/1/20 6/1/6 29/1/29 21/2/21
f 9/1/9 2/1/2 31/1/31 30/2/30
f 26/1/26 25/1/25 33/1/33 32/2/32
f 28/1/28 166/1/166 27/1/27 165/2/165
f 14/1/14 36/1/36 37/1/37 35/2/35
f 27/1/27 23/1/23 12/1/12 38/2/38
f 39/1/39 40/1/40 22/1/22 21/2/21
f 42/1/42 43/1/43 44/1/44 41/2/41
f 46/1/46 22/1/22 40/1/40 45/2/45
f 21/1/21 29/1/29 47/1/47 39/2/39
f 29/1/29 48/1/48 49/1/49 47/2/47
f 27/1/27 38/1/38 164/1/164 165/2/165
f 52/1/52 49/1/49 48/1/48 51/2/51
f 53/1/53 54/1/54 52/1/52 51/2/51
f 53/1/53 34/1/34 50/1/50 54/2/54
f 12/1/12 157/1/157 158/1/158 38/2/38
f 56/1/56 57/1/57 55/1/55 11/2/11
f 42/1/42 58/1/58 59/1/59 43/2/43
f 28/1/28 60/1/60 13/1/13 24/2/24
f 35/1/35 37/1/37 1/1/1 10/2/10
f 57/1/57 56/1/56 59/1/59 58/2/58
f 32/1/32 33/1/33 60/1/60 28/2/28
f 26/1/26 32/1/32 34/1/34 53/2/53
f 15/1/15 26/1/26 53/1/53 51/2/51
f 15/1/15 51/1/51 48/1/48 8/2/8
f 5/1/5 3/1/3 20/1/20 17/2/17
f 20/1/20 3/1/3 4/1/4 6/2/6
f 6/1/6 8/1/8 48/1/48 29/2/29
f 17/1/17 22/1/22 46/1/46 18/2/18
f 30/1/30 44/1/44 43/1/43 9/2/9
f 9/1/9 43/1/43 59/1/59 10/2/10
f 10/1/10 59/1/59 56/1/56 35/2/35
f 35/1/35 56/1/56 11/1/11 14/2/14
f 13/1/13 60/1/60 36/1/36 14/2/14
f 160/1/160 161/1/161 162/1/162 64/2/64
f 65/1/65 163/1/163 164/1/164 38/2/38
f 68/1/68 45/1/45 40/1/40 67/2/67
f 42/1/42 41/1/41 70/1/70 69/2/69
f 58/1/58 42/1/42 69/1/69 71/2/71
f 57/1/57 58/1/58 71/1/71 72/2/72
f 55/1/55 57/1/57 72/1/72 73/2/73
f 65/1/65 38/1/38 158/1/158 159/2/159
f 74/1/74 54/1/54 50/1/50 66/2/66
f 75/1/75 52/1/52 54/1/54 74/2/74
f 75/1/75 76/1/76 49/1/49 52/2/52
f 76/1/76 77/1/77 47/1/47 49/2/49
f 77/1/77 78/1/78 39/1/39 47/2/47
f 67/1/67 40/1/40 39/1/39 78/2/78
f 30/1/30 31/1/31 19/1/19 18/2/18
f 44/1/44 30/1/30 18/1/18 46/2/46
f 41/1/41 44/1/44 46/1/46 45/2/45
f 80/1/80 81/1/81 70/1/70 79/2/79
f 82/1/82 83/1/83 63/1/63 62/2/62
f 85/1/85 86/1/86 87/1/87 84/2/84
f 87/1/87 83/1/83 82/1/82 84/2/84
f 88/1/88 89/1/89 86/1/86 85/2/85
f 90/1/90 91/1/91 89/1/89 88/2/88
f 91/1/91 90/1/90 93/1/93 92/2/92
f 94/1/94 95/1/95 92/1/92 93/2/93
f 62/1/62 61/1/61 97/1/97 96/2/96
f 82/1/82 62/1/62 96/1/96 98/2/98
f 100/1/100 96/1/96 97/1/97 99/2/99
f 100/1/100 101/1/101 98/1/98 96/2/96
f 103/1/103 104/1/104 105/1/105 102/2/102
f 69/1/69 70/1/70 81/1/81 104/2/104
f 71/1/71 69/1/69 104/1/104 103/2/103
f 72/1/72 71/1/71 99/1/99 97/2/97
f 73/1/73 72/1/72 97/1/97 61/2/61
f 160/1/160 64/1/64 65/1/65 159/2/159
f 162/1/162 163/1/163 65/1/65 64/2/64
f 66/1/66 63/1/63 83/1/83 74/2/74
f 74/1/74 83/1/83 87/1/87 75/2/75
f 76/1/76 75/1/75 87/1/87 86/2/86
f 77/1/77 76/1/76 86/1/86 89/2/89
f 78/1/78 77/1/77 89/1/89 91/2/91
f 78/1/78 91/1/91 92/1/92 67/2/67
f 67/1/67 92/1/92 95/1/95 68/2/68
f 79/1/79 107/1/107 108/1/108 106/2/106
f 109/1/109 84/1/84 82/1/82 98/2/98
f 84/1/84 109/1/109 110/1/110 85/2/85
f 111/1/111 88/1/88 85/1/85 110/2/110
f 112/1/112 90/1/90 88/1/88 111/2/111
f 113/1/113 93/1/93 90/1/90 112/2/112
f 109/1/109 98/1/98 101/1/101 114/2/114
f 94/1/94 93/1/93 113/1/113 115/2/115
f 116/1/116 117/1/117 112/1/112 111/2/111
f 118/1/118 116/1/116 111/1/111 110/2/110
f 114/1/114 118/1/118 110/1/110 109/2/109
f 114/1/114 119/1/119 116/1/116 118/2/118
f 121/1/121 101/1/101 100/1/100 120/2/120
f 119/1/119 114/1/114 101/1/101 121/2/121
f 104/1/104 81/1/81 122/1/122 105/2/105
f 124/1/124 125/1/125 126/1/126 123/2/123
f 124/1/124 105/1/105 122/1/122 125/2/125
f 128/1/128 115/1/115 113/1/113 127/2/127
f 128/1/128 127/1/127 123/1/123 126/2/126
f 113/1/113 112/1/112 117/1/117 127/2/127
f 81/1/81 80/1/80 129/1/129 122/2/122
f 130/1/130 106/1/106 68/1/68 95/2/95
f 131/1/131 130/1/130 95/1/95 94/2/94
f 80/1/80 79/1/79 106/1/106 130/2/130
f 129/1/129 80/1/80 130/1/130 131/2/131
f 45/1/45 68/1/68 106/1/106 108/2/108
f 79/1/79 70/1/70 41/1/41 107/2/107
f 41/1/41 45/1/45 108/1/108 107/2/107
f 133/1/133 125/1/125 122/1/122 132/2/132
f 135/1/135 128/1/128 126/1/126 134/2/134
f 134/1/134 126/1/126 125/1/125 133/2/133
f 137/1/137 94/1/94 115/1/115 136/2/136
f 136/1/136 115/1/115 128/1/128 135/2/135
f 138/1/138 131/1/131 94/1/94 137/2/137
f 138/1/138 139/1/139 129/1/129 131/2/131
f 139/1/139 132/1/132 122/1/122 129/2/129
f 137/1/137 136/1/136 135/1/135 138/2/138
f 138/1/138 135/1/135 134/1/134 139/2/139
f 134/1/134 133/1/133 132/1/132 139/2/139
f 127/1/127 117/1/117 140/1/140 123/2/123
f 123/1/123 140/1/140 141/1/141 124/2/124
f 124/1/124 141/1/141 102/1/102 105/2/105
f 117/1/117 116/1/116 119/1/119 140/2/140
f 140/1/140 119/1/119 121/1/121 141/2/141
f 141/1/141 121/1/121 120/1/120 102/2/102
f 103/1/103 102/1/102 120/1/120 142/2/142
f 103/1/103 142/1/142 99/1/99 71/2/71
f 120/1/120 100/1/100 99/1/99 142/2/142
f 144/1/144 2/1/2 1/1/1 143/2/143
f 146/1/146 4/1/4 3/1/3 145/2/145
f 145/1/145 3/1/3 5/1/5 147/2/147
f 148/1/148 7/1/7 4/1/4 146/2/146
f 149/1/149 16/1/16 7/1/7 148/2/148
f 147/1/147 5/1/5 19/1/19 150/2/150
f 151/1/151 25/1/25 16/1/16 149/2/149
f 152/1/152 31/1/31 2/1/2 144/2/144
f 153/1/153 33/1/33 25/1/25 151/2/151
f 155/1/155 37/1/37 36/1/36 154/2/154
f 143/1/143 1/1/1 37/1/37 155/2/155
f 156/1/156 60/1/60 33/1/33 153/2/153
f 154/1/154 36/1/36 60/1/60 156/2/156
f 150/1/150 19/1/19 31/1/31 152/2/152
f 157/1/157 11/1/11 55/1/55 158/2/158
f 159/1/159 158/1/158 55/1/55 73/2/73
f 160/1/160 159/1/159 73/1/73 61/2/61
f 62/1/62 63/1/63 162/1/162 161/2/161
f 162/1/162 63/1/63 66/1/66 163/2/163
f 163/1/163 66/1/66 50/1/50 164/2/164
f 165/1/165 164/1/164 50/1/50 34/2/34
f 161/1/161 160/1/160 61/1/61 62/2/62
f 13/1/13 157/1/157 12/1/12 168/2/168
f 165/1/165 34/1/34 32/1/32 28/2/28
f 167/1/167 166/1/166 28/1/28 24/2/24
vt 0.000000 0.000000
f 167/1/167 24/1/24 13/1/13 168/3/168
# 160 faces, 3 coords texture

# End of File
