####
#
# OBJ File Generated by Meshlab
#
####
# Object lasso2d_3.obj
#
# Vertices: 70
# Faces: 70
#
####
mtllib ./lasso2d_3.obj.mtl

vn 0.000000 0.000000 3.434211
v 0.338438 -1.297743 0.000000
vn 0.000000 0.000000 2.850232
v 0.467908 -1.316823 0.000000
vn 0.000000 0.000000 3.322677
v 0.463276 -1.127623 0.000000
vn 0.000000 0.000000 2.706713
v 0.338438 -1.100042 0.000000
vn 0.000000 0.000000 3.008664
v 0.660567 -1.288679 0.000000
vn 0.000000 0.000000 3.481292
v 0.675534 -1.135343 0.000000
vn 0.000000 0.000000 2.677197
v 0.926184 -1.212880 0.000000
vn 0.000000 0.000000 3.714087
v 0.914176 -1.060647 0.000000
vn 0.000000 0.000000 2.425711
v 1.153649 -1.004192 0.000000
vn 0.000000 0.000000 4.011793
v 1.077653 -0.864563 0.000000
vn 0.000000 0.000000 2.457081
v 1.202497 -0.571965 0.000000
vn 0.000000 0.000000 3.821176
v 1.028055 -0.584441 0.000000
vn 0.000000 0.000000 2.405477
v 1.074479 -0.373102 0.000000
vn 0.000000 0.000000 3.734421
v 0.898568 -0.471793 0.000000
vn 0.000000 0.000000 3.156407
v 0.861820 -0.315913 0.000000
vn 0.000000 0.000000 3.226333
v 0.697159 -0.446865 0.000000
vn 0.000000 0.000000 2.953590
v 0.615869 -0.245848 0.000000
vn 0.000000 0.000000 3.180877
v 0.536513 -0.440693 0.000000
vn 0.000000 0.000000 3.147145
v 0.445034 -0.230514 0.000000
vn 0.000000 0.000000 3.038943
v 0.437978 -0.440780 0.000000
vn 0.000000 0.000000 2.951449
v 0.338438 -0.220349 0.000000
vn 0.000000 0.000000 3.345127
v 0.338438 -0.430615 0.000000
vn 0.000000 0.000000 0.000000
v 0.615869 -0.245848 0.000000
vn 0.000000 0.000000 0.000000
v 0.445034 -0.230514 0.000000
vn 0.000000 0.000000 3.322677
v 0.213599 -1.127623 0.000000
vn 0.000000 0.000000 2.850232
v 0.208968 -1.316823 0.000000
vn 0.000000 0.000000 3.481292
v 0.001342 -1.135343 0.000000
vn 0.000000 0.000000 3.008664
v 0.016309 -1.288679 0.000000
vn 0.000000 0.000000 3.714087
v -0.237300 -1.060647 0.000000
vn 0.000000 0.000000 2.677197
v -0.249309 -1.212880 0.000000
vn 0.000000 0.000000 4.005236
v -0.400777 -0.864563 0.000000
vn 0.000000 0.000000 2.430386
v -0.476773 -1.004192 0.000000
vn 0.000000 0.000000 3.763669
v -0.353185 -0.585110 0.000000
vn 0.000000 0.000000 3.491947
v -0.527592 -0.572623 0.000000
vn 0.000000 0.000000 3.779169
v -0.247305 -0.480360 0.000000
vn 0.000000 0.000000 4.272882
v -0.483025 -0.412224 0.000000
vn 0.000000 0.000000 3.236906
v -0.025201 -0.448504 0.000000
vn 0.000000 0.000000 3.209834
v -0.272786 -0.358510 0.000000
vn 0.000000 0.000000 3.189619
v 0.140362 -0.440693 0.000000
vn 0.000000 0.000000 2.961988
v 0.030042 -0.258700 0.000000
vn 0.000000 0.000000 3.038943
v 0.238898 -0.440780 0.000000
vn 0.000000 0.000000 3.097888
v 0.231841 -0.230514 0.000000
vn 0.000000 0.000000 0.000000
v 0.231841 -0.230514 0.000000
vn 0.000000 0.000000 0.000000
v 0.030042 -0.258700 0.000000
vn 0.000000 0.000000 0.000000
v -0.527592 -0.572623 0.000000
vn 0.000000 0.000000 0.000000
v -0.476773 -1.004192 0.000000
vn 0.000000 0.000000 0.799476
v -0.637454 -0.224980 0.000000
vn 0.000000 0.000000 2.564195
v -0.649224 -0.331724 0.000000
vn 0.000000 0.000000 2.555944
v -0.637454 -0.224980 0.000000
vn 0.000000 0.000000 0.956433
v -0.649224 -0.331724 0.000000
vn 0.000000 0.000000 2.399373
v -0.751242 -0.004163 0.000000
vn 0.000000 0.000000 3.287393
v -0.809813 -0.189681 0.000000
vn 0.000000 0.000000 4.062027
v -0.977405 0.079100 0.000000
vn 0.000000 0.000000 2.533084
v -1.090429 -0.006475 0.000000
vn 0.000000 0.000000 3.493404
v -1.025510 0.235940 0.000000
vn 0.000000 0.000000 2.979023
v -1.159361 0.164178 0.000000
vn 0.000000 0.000000 3.626572
v -1.016421 0.403429 0.000000
vn 0.000000 0.000000 2.541882
v -1.202497 0.355882 0.000000
vn 0.000000 0.000000 3.276302
v -0.930297 0.547372 0.000000
vn 0.000000 0.000000 3.019112
v -1.136444 0.522037 0.000000
vn 0.000000 0.000000 3.072653
v -0.823261 0.681399 0.000000
vn 0.000000 0.000000 3.037501
v -1.059079 0.663362 0.000000
vn 0.000000 0.000000 3.090765
v -0.717371 0.834545 0.000000
vn 0.000000 0.000000 3.192414
v -0.953188 0.816507 0.000000
vn 0.000000 0.000000 3.187485
v -0.647818 0.946943 0.000000
vn 0.000000 0.000000 3.095706
v -0.883636 0.928905 0.000000
vn 0.000000 0.000000 3.215529
v -0.520332 1.133279 0.000000
vn 0.000000 0.000000 3.155878
v -0.756149 1.115243 0.000000
vn 0.000000 0.000000 0.964215
v -0.386451 1.300900 0.000000
vn 0.000000 0.000000 2.089157
v -0.622421 1.316823 0.000000
# 70 vertices, 0 vertices normals


usemtl material_0
vt 0.500000 0.000000
vt 1.000000 1.000000
vt 0.500000 1.000000
f 1/1/1 3/2/3 4/3/4
vt 1.000000 0.000000
f 3/2/3 5/4/5 6/2/6
f 6/2/6 7/4/7 8/2/8
f 8/2/8 9/4/9 10/2/10
f 10/2/10 11/4/11 12/2/12
f 12/2/12 13/4/13 14/2/14
f 14/2/14 15/4/15 16/2/16
f 16/2/16 17/4/17 18/2/18
f 18/2/18 19/4/19 20/2/20
f 19/4/19 22/2/22 20/2/20
f 19/4/19 23/4/23 24/4/24
f 1/1/1 25/2/25 26/4/26
f 25/2/25 28/4/28 26/4/26
f 27/2/27 30/4/30 28/4/28
f 29/2/29 32/4/32 30/4/30
f 31/2/31 34/4/34 32/4/32
f 33/2/33 36/4/36 34/4/34
f 35/2/35 38/4/38 36/4/36
f 37/2/37 40/4/40 38/4/38
f 39/2/39 42/4/42 40/4/40
f 22/2/22 42/4/42 41/2/41
f 42/4/42 44/4/44 40/4/40
f 32/4/32 45/4/45 46/4/46
f 36/4/36 48/4/48 34/4/34
f 48/4/48 49/4/49 50/4/50
f 49/4/49 52/4/52 50/4/50
f 52/4/52 53/4/53 54/4/54
f 53/4/53 56/4/56 54/4/54
f 55/4/55 58/4/58 56/4/56
f 57/4/57 60/4/60 58/4/58
f 59/4/59 62/4/62 60/4/60
f 61/4/61 64/4/64 62/4/62
f 63/4/63 66/4/66 64/4/64
f 65/4/65 68/4/68 66/4/66
f 67/4/67 70/4/70 68/4/68
f 1/1/1 2/4/2 3/2/3
f 3/2/3 2/4/2 5/4/5
f 6/2/6 5/4/5 7/4/7
f 8/2/8 7/4/7 9/4/9
f 10/2/10 9/4/9 11/4/11
f 12/2/12 11/4/11 13/4/13
f 14/2/14 13/4/13 15/4/15
f 16/2/16 15/4/15 17/4/17
f 18/2/18 17/4/17 19/4/19
f 19/4/19 21/4/21 22/2/22
f 19/4/19 17/4/17 23/4/23
f 1/1/1 4/3/4 25/2/25
f 25/2/25 27/2/27 28/4/28
f 27/2/27 29/2/29 30/4/30
f 29/2/29 31/2/31 32/4/32
f 31/2/31 33/2/33 34/4/34
f 33/2/33 35/2/35 36/4/36
f 35/2/35 37/2/37 38/4/38
f 37/2/37 39/2/39 40/4/40
f 39/2/39 41/2/41 42/4/42
f 22/2/22 21/4/21 42/4/42
f 42/4/42 43/4/43 44/4/44
f 32/4/32 34/4/34 45/4/45
f 36/4/36 47/4/47 48/4/48
f 48/4/48 47/4/47 49/4/49
f 49/4/49 51/4/51 52/4/52
f 52/4/52 51/4/51 53/4/53
f 53/4/53 55/4/55 56/4/56
f 55/4/55 57/4/57 58/4/58
f 57/4/57 59/4/59 60/4/60
f 59/4/59 61/4/61 62/4/62
f 61/4/61 63/4/63 64/4/64
f 63/4/63 65/4/65 66/4/66
f 65/4/65 67/4/67 68/4/68
f 67/4/67 69/4/69 70/4/70
# 70 faces, 4 coords texture

# End of File
