# Blender v2.93.1 OBJ File: ''
# www.blender.org
mtllib 02265_pants_straight_sides_LU8FLSO6C6_sim.mtl
o pants_straight_sides_LU8FLSO6C6_sim
v -16.280399 -31.644928 9.976214
v -18.980331 -35.849720 5.543921
v -16.207705 -45.332989 8.705743
v -18.218096 -27.853615 6.712979
v -17.396738 -45.250328 6.159260
v -13.017323 -45.675327 11.547215
v -8.200883 -14.180100 14.465920
v -15.764819 -23.249483 9.016672
v -14.702901 -13.021346 7.658451
v -6.076449 -18.671530 15.853168
v -2.460124 -14.764823 16.656895
v -7.182381 -46.286743 12.158085
v 2.428038 -35.506287 11.741903
v -3.882270 -35.406784 12.262315
v -0.212790 -40.890003 7.571176
v -2.206819 -46.949417 8.428643
v -0.399146 -47.339489 3.009152
v -0.084596 -37.195889 7.210096
v -0.056709 -18.930792 17.206596
v -3.610146 -27.953623 13.809330
v 1.147609 -31.206331 12.863730
v -10.261759 -34.325851 13.219513
v -8.957899 -28.462744 12.527300
v -13.845439 -31.753405 11.782186
v -2.365687 -36.434200 11.313310
v -11.083780 -24.573744 11.719501
v -9.624987 -41.829800 13.038730
v -13.616047 -37.481541 12.228048
v -6.236929 -40.466839 12.771152
v -1.459256 -47.479630 -1.869826
v -0.311834 -43.432594 -0.868421
v 0.231413 -37.732159 0.221301
v -1.105768 -37.727291 -3.617383
v -5.714581 -47.505112 -5.734091
v -10.484497 -47.327671 -6.173448
v 0.014005 -36.447769 -4.129354
v 0.037781 -33.415157 -9.814959
v 0.499278 -31.186653 -11.205199
v -2.277217 -15.293693 -9.213304
v -17.887491 -46.221680 1.117537
v -19.435310 -38.551174 1.420735
v -19.803293 -29.977337 1.695061
v -7.755620 -14.597485 -8.528296
v -10.617329 -20.659866 -10.220022
v -18.253386 -20.333298 -0.949354
v -13.444659 -13.309419 -5.396491
v -16.085773 -12.605176 0.238242
v -18.133001 -18.234056 3.297227
v -15.805737 -12.664654 4.803660
v -15.247131 -42.434742 -4.662966
v -15.840096 -46.857220 -3.009855
v -12.410198 -37.384441 -7.571163
v -14.265766 -21.583935 -7.952968
v -4.014886 -36.970089 -6.565095
v -8.681246 -26.501419 -11.997084
v -12.505018 -33.330437 -9.450562
v 0.002532 -41.465714 0.644577
v -7.844507 -32.724312 -11.236271
v -16.385733 -17.496233 -4.495103
v -6.251725 -21.347248 -11.422442
v -9.992865 -42.439987 -6.468271
v -18.162071 -40.210491 -2.243928
v -18.747908 -31.939524 -3.656037
v -19.115942 -29.206446 -2.088066
v -8.100019 -37.103634 -7.888292
v -3.720650 -43.110718 -5.211696
v -15.632965 -32.685890 -7.411143
v 2.588603 -46.699154 8.959070
v 0.487054 -43.073887 6.267794
v 0.188850 -39.188385 7.314987
v 0.374256 -47.154049 3.483079
v 6.857926 -46.285324 12.021947
v 9.829865 -46.005447 12.558768
v 13.424209 -45.643726 11.493431
v 2.073231 -27.038153 14.783925
v 3.115875 -14.706075 16.754522
v 6.786150 -19.008291 15.613723
v 16.660122 -39.900295 9.248378
v 16.860638 -45.157490 7.641157
v 18.807608 -36.233688 6.010052
v 18.278881 -28.239695 7.028121
v 14.603626 -24.136013 10.211010
v 8.111651 -14.183146 14.643847
v 14.857290 -12.960494 7.610144
v 14.232663 -19.436018 10.501138
v 16.782164 -18.764721 7.266849
v 6.631306 -35.939854 13.172377
v 10.814626 -35.362873 13.500033
v 9.296119 -27.959543 12.639694
v 15.843674 -30.295212 10.655936
v 13.605123 -33.845280 12.486724
v 2.300884 -41.324009 10.363841
v 19.841257 -32.136169 2.552449
v 17.665342 -45.611740 4.496816
v 16.746195 -46.630093 -1.504244
v 19.137121 -39.310150 1.522978
v 12.606260 -47.120071 -5.346898
v 17.937414 -17.243023 3.557074
v 18.531719 -20.601440 2.533725
v 16.068398 -12.637914 0.507359
v 14.320375 -13.146935 -4.049306
v 6.463386 -47.369511 -5.835529
v 1.206585 -47.279621 -1.122563
v 10.707458 -14.010705 -7.273780
v 5.858478 -14.990299 -8.725880
v 1.785184 -15.268972 -9.300739
v 1.402050 -37.286858 -3.799766
v 4.378201 -37.155685 -6.156002
v 7.920490 -37.358662 -7.359639
v 16.053333 -30.621626 -7.340764
v 6.265994 -29.844463 -11.898075
v 17.295916 -16.580379 -1.939382
v 10.241822 -26.803469 -11.226566
v 18.636656 -23.935543 -0.087696
v 15.494771 -16.937683 -5.271423
v 7.577943 -21.416464 -11.227466
v 11.486259 -33.232872 -9.936833
v 8.956720 -35.670811 -8.953990
v 10.981779 -43.474438 -6.042521
v 0.275834 -39.644737 -0.866835
v 5.226898 -25.150995 -11.990783
v 12.733149 -38.508797 -6.691018
v 16.156038 -36.947563 -5.364478
v 16.384411 -24.376089 -5.733705
v 12.731241 -19.897825 -8.812371
v 19.230305 -28.491699 -1.169490
v 18.773417 -36.336666 -2.408016
vt -3.156816 9.888073
vt -1.822057 14.072880
vt -5.508191 18.205759
vt 5.403324 34.832817
vt 2.329167 30.156919
vt 6.792879 29.510689
vt 12.095907 13.758141
vt 12.404446 10.338267
vt 15.740955 10.912931
vt 9.887199 11.884259
vt 5.686346 21.390993
vt 8.176768 22.844910
vt 4.559344 11.981575
vt 9.086663 6.231013
vt 8.832766 17.999252
vt 14.596764 0.024383
vt 15.825384 7.115974
vt 0.770226 13.894583
vt 2.606943 18.570375
vt -0.650799 22.847372
vt 0.272681 34.780056
vt -7.240346 34.801910
vt -4.183882 23.549221
vt 2.879059 8.446389
vt 1.813543 0.081223
vt 5.030511 0.105648
vt 7.077177 4.407239
vt 9.704202 0.099586
vt 17.120975 9.045409
vt 17.575954 0.027956
vt 2.022039 10.977310
vt 3.668396 6.245439
vt 2.851861 10.324173
vt 6.490207 10.400588
vt 5.507926 12.241917
vt 2.154461 0.040890
vt 4.832144 4.399565
vt 0.604825 5.872395
vt 6.425834 0.140607
vt 10.891228 0.234999
vt 9.464438 5.441592
vt 9.624432 11.221762
vt 8.649425 15.625698
vt 10.764929 24.444183
vt 14.866938 28.478302
vt 10.347878 28.500467
vt 12.294983 34.821205
vt 17.502665 34.821648
vt 29.605965 6.250150
vt 29.811474 9.891154
vt 27.388092 0.131420
vt 32.821022 17.931381
vt 35.000420 34.809826
vt 31.404562 28.039545
vt 16.075432 22.706963
vt 17.933762 15.443409
vt 20.306454 15.204736
vt 28.424904 26.599337
vt 29.151251 34.665894
vt 18.772671 28.099751
vt 23.501015 34.839737
vt 28.730618 16.087482
vt 14.936543 0.085184
vt 19.651333 0.188064
vt 18.578146 4.969530
vt 25.825253 7.991117
vt 33.087029 34.538719
vt 22.946918 0.274881
vt 22.406744 6.956124
vt 25.553656 29.815151
vt 22.208223 26.043840
vt 14.653164 16.960300
vt 9.722797 18.876888
vt 16.704571 11.081710
vt 23.798328 15.050632
vt 14.571559 5.608025
vt 13.089363 11.309404
vt 26.259930 17.816349
vt 10.465244 31.485630
vt 0.000000 0.000000
vt 3.446873 0.053494
vt 1.578454 3.308767
vt 10.000000 34.832821
vt 10.889606 30.766199
vt 12.693547 34.591663
vt 19.177332 15.541960
vt 20.228577 8.679368
vt 22.810188 17.246292
vt 25.063892 28.111252
vt 20.823795 22.562763
vt 22.115126 28.207647
vt 24.959143 34.831631
vt 17.100262 34.767422
vt 10.902864 22.178431
vt 15.479504 29.671883
vt 5.633470 11.766415
vt 1.804942 7.559246
vt 8.733216 17.273056
vt 15.261476 19.221889
vt 4.884420 5.701748
vt 15.931987 12.027671
vt 17.472897 5.637875
vt 10.504179 -0.010683
vt 13.239523 0.131617
vt 13.046802 10.786342
vt 8.268609 0.226852
vt 9.488493 10.616216
vt 17.126905 0.008882
vt -7.375542 27.994884
vt -5.135468 17.282768
vt -3.257637 25.917715
vt -7.319256 34.828377
vt -4.593535 30.214268
vt -1.710664 34.698242
vt 16.388824 0.748474
vt 21.659266 0.294930
vt 21.402378 10.414751
vt 27.098932 6.154575
vt 25.686428 10.703709
vt 23.101217 8.071297
vt 27.578661 10.469159
vt 11.976209 34.832821
vt 7.035278 34.734932
vt 11.797503 27.810081
vt 13.553015 19.966389
vt 17.825994 18.751095
vt 13.690872 23.703905
vt 18.388369 10.867702
vt 12.289971 4.693365
vt 2.711430 34.820053
vt 0.216077 30.600121
vt 10.802678 15.522295
vt 13.185438 13.529142
vt 6.970435 0.218738
vt 2.303847 6.867664
vt 1.838219 0.135096
vt 22.081650 12.974792
vt 26.860823 4.071682
vt 15.628305 34.660316
vt -1.160521 3.539199
vt -2.050093 9.270500
vt 18.802643 15.517546
vt 3.292186 30.572039
vt -0.819078 14.108297
vt 11.038373 0.186044
vt 6.985247 28.143288
vt 3.609340 23.320105
vt 10.326992 21.715099
vt -1.082900 23.353640
vt 10.660349 9.532634
vt 14.811523 10.647580
vt 0.000000 0.000000
vt -0.389816 1.178757
vt 6.115263 17.391876
vt 7.835504 10.833739
vt 4.180108 10.760939
vt 26.215744 0.110377
vt 1.100631 18.016621
vn -0.9348 -0.0524 0.3512
vn -0.7300 0.0413 0.6822
vn -0.8940 0.0993 0.4369
vn -0.1900 0.0726 0.9791
vn -0.3802 -0.0902 0.9205
vn -0.0155 -0.1242 0.9921
vn -0.2881 -0.3867 0.8760
vn 0.3836 -0.5010 0.7758
vn 0.1642 -0.5741 0.8022
vn 0.1873 -0.2116 0.9592
vn -0.1969 -0.3579 0.9128
vn 0.1051 -0.3368 0.9357
vn -0.1282 0.0482 0.9906
vn 0.2901 -0.1055 0.9512
vn -0.0106 -0.2559 0.9667
vn 0.7787 -0.2288 0.5842
vn 0.9310 -0.1196 0.3449
vn -0.4464 0.1018 0.8890
vn -0.1795 0.0620 0.9818
vn -0.4162 -0.0376 0.9085
vn -0.5494 0.0793 0.8318
vn -0.8053 0.1960 0.5595
vn -0.7023 0.1154 0.7025
vn -0.5029 -0.0497 0.8629
vn -0.7935 -0.0956 0.6010
vn -0.4345 -0.1538 0.8874
vn -0.0903 -0.1096 0.9899
vn 0.2739 -0.2128 0.9379
vn 0.9928 -0.1174 -0.0242
vn 0.9905 -0.1311 0.0409
vn 0.0009 -0.5481 -0.8364
vn 0.7357 -0.4312 -0.5223
vn 0.1227 -0.8810 -0.4569
vn 0.9378 -0.1171 -0.3268
vn 0.8486 -0.1690 -0.5013
vn 0.3537 -0.0939 -0.9306
vn 0.5362 -0.1465 -0.8313
vn 0.3987 -0.5581 -0.7277
vn 0.0337 -0.6733 -0.7386
vn 0.0571 0.0603 -0.9965
vn -0.0985 0.2526 -0.9625
vn 0.1867 0.2506 -0.9499
vn -0.0388 0.3632 -0.9309
vn -0.2288 0.3887 -0.8925
vn -0.9439 -0.1538 0.2923
vn -0.9561 0.2343 0.1759
vn -0.2634 0.0138 -0.9646
vn -0.4508 -0.2384 -0.8602
vn -0.6626 -0.1086 -0.7411
vn -0.9580 0.1921 -0.2130
vn -0.9168 0.3650 -0.1619
vn -0.3984 0.2491 -0.8828
vn -0.6327 0.3909 -0.6685
vn -0.9982 0.0503 0.0337
vn -0.1733 -0.0952 -0.9803
vn -0.7102 -0.2322 -0.6646
vn -0.5596 -0.2148 -0.8004
vn -0.9909 -0.1282 -0.0408
vn -0.9165 0.3137 0.2482
vn -0.9619 -0.2276 -0.1511
vn -0.8662 -0.1811 -0.4657
vn -0.8178 0.2704 -0.5079
vn -0.6661 0.1413 -0.7323
vn -0.1018 -0.3597 -0.9275
vn 0.0069 -0.3213 -0.9470
vn -0.2839 -0.3619 -0.8879
vn -0.8960 -0.0230 -0.4434
vn -0.0777 -0.1702 -0.9823
vn 0.0938 -0.4671 -0.8792
vn -0.9457 0.0870 -0.3130
vn 0.0328 0.3418 -0.9392
vn -0.9924 -0.1047 0.0640
vn -0.7707 -0.2038 0.6037
vn -0.9582 -0.1251 0.2573
vn 0.2015 0.0270 0.9791
vn 0.6348 0.1097 0.7648
vn 0.9296 -0.0777 0.3603
vn 0.8862 0.1011 0.4522
vn 0.8527 0.1635 0.4963
vn 0.5927 0.0519 0.8037
vn 0.6836 0.0932 0.7239
vn 0.8123 0.3071 0.4959
vn 0.5331 0.0897 0.8413
vn 0.3995 -0.1102 0.9101
vn -0.9542 -0.1310 0.2689
vn 0.2399 0.1089 0.9647
vn -0.6847 -0.1687 0.7090
vn 0.4763 0.0606 0.8772
vn 0.7995 -0.1023 0.5918
vn 0.0562 -0.1064 0.9927
vn 0.5082 -0.1142 0.8536
vn 0.1543 0.0107 0.9880
vn -0.3522 -0.1457 0.9245
vn -0.1944 -0.1119 0.9745
vn 0.9013 -0.0921 0.4233
vn 0.9887 0.1358 0.0630
vn 0.9538 0.2591 0.1522
vn 0.8973 0.4324 -0.0891
vn -0.3077 -0.1235 -0.9434
vn -0.8749 -0.1487 -0.4609
vn -0.6338 -0.5612 -0.5323
vn -0.9730 -0.0070 -0.2308
vn 0.1446 0.3903 -0.9093
vn 0.4099 0.3809 -0.8288
vn 0.0720 -0.1963 -0.9779
vn -0.3503 -0.5372 -0.7672
vn 0.1123 -0.1178 -0.9867
vn 0.7044 0.4336 -0.5620
vn 0.9125 0.2779 -0.3003
vn 0.3452 -0.3249 -0.8805
vn 0.0331 -0.5745 -0.8178
vn 0.8536 -0.2455 -0.4595
vn 0.9851 -0.1659 -0.0444
vn 0.9758 -0.1808 0.1227
vn 0.7277 0.2892 -0.6220
vn 0.9977 -0.0009 0.0677
vn 0.3597 -0.1724 -0.9170
vn 0.5338 0.2297 -0.8138
vn 0.8322 0.1223 -0.5408
vn 0.3769 0.0155 -0.9261
vn 0.9543 0.1563 -0.2548
vn 0.3325 -0.2435 -0.9111
vn -0.2067 -0.4742 -0.8558
vn 0.7270 -0.0457 -0.6851
vn 0.6262 -0.2296 -0.7451
vn 0.9014 -0.1229 -0.4152
vn 0.9569 0.0929 -0.2752
usemtl Default_OBJ.988
s 1
f 2/1/1 1/2/2 4/3/3
f 11/4/4 10/5/5 19/6/6
f 13/7/7 25/8/8 18/9/9
f 13/7/7 14/10/10 25/8/8
f 20/11/11 75/12/12 19/6/6
f 22/13/13 29/14/14 14/10/10
f 21/15/15 75/12/12 20/11/11
f 16/16/16 15/17/17 25/8/8
f 24/18/18 23/19/19 26/20/20
f 11/4/4 7/21/21 10/5/5
f 23/19/19 21/15/15 20/11/11
f 21/15/15 14/10/10 13/7/7
f 15/17/17 18/9/9 25/8/8
f 9/22/22 4/3/3 8/23/23
f 20/11/11 19/6/6 10/5/5
f 7/21/21 9/22/22 8/23/23
f 28/24/24 24/18/18 1/2/2
f 3/25/25 6/26/26 28/24/24
f 27/27/27 12/28/28 29/14/14
f 1/2/2 2/1/1 3/25/25
f 3/25/25 28/24/24 1/2/2
f 14/10/10 21/15/15 22/13/13
f 1/2/2 8/23/23 4/3/3
f 10/5/5 7/21/21 8/23/23
f 57/29/29 18/9/9 15/17/17
f 26/20/20 10/5/5 8/23/23
f 26/20/20 20/11/11 10/5/5
f 6/26/26 27/27/27 28/24/24
f 28/24/24 27/27/27 22/13/13
f 6/26/26 12/28/28 27/27/27
f 23/19/19 24/18/18 22/13/13
f 27/27/27 29/14/14 22/13/13
f 14/10/10 29/14/14 25/8/8
f 16/16/16 17/30/30 15/17/17
f 23/19/19 20/11/11 26/20/20
f 22/13/13 21/15/15 23/19/19
f 25/8/8 12/28/28 16/16/16
f 28/24/24 22/13/13 24/18/18
f 8/23/23 24/18/18 26/20/20
f 8/23/23 1/2/2 24/18/18
f 29/14/14 12/28/28 25/8/8
f 18/31/9 57/32/29 32/33/31
f 32/33/31 33/34/32 36/35/33
f 17/36/30 31/37/34 15/38/17
f 30/39/35 34/40/36 66/41/37
f 30/39/35 31/37/34 17/36/30
f 54/42/38 37/43/39 36/35/33
f 121/44/40 60/45/41 116/46/42
f 39/47/43 60/45/41 43/48/44
f 3/49/25 2/50/1 5/51/45
f 4/52/3 9/53/22 48/54/46
f 55/55/47 56/56/48 67/57/49
f 45/58/50 48/54/46 47/59/51
f 43/48/44 44/60/52 46/61/53
f 2/50/1 4/52/3 42/62/54
f 35/63/55 51/64/56 50/65/57
f 2/50/1 41/66/58 5/51/45
f 36/35/33 33/34/32 54/42/38
f 49/67/59 48/54/46 9/53/22
f 5/51/45 41/66/58 40/68/60
f 60/45/41 44/60/52 43/48/44
f 40/68/60 62/69/61 51/64/56
f 42/62/54 4/52/3 48/54/46
f 59/70/62 47/59/51 46/61/53
f 2/50/1 42/62/54 41/66/58
f 59/70/62 46/61/53 53/71/63
f 53/71/63 44/60/52 55/55/47
f 58/72/64 38/73/65 37/43/39
f 52/74/66 56/56/48 58/72/64
f 60/45/41 121/44/40 55/55/47
f 55/55/47 121/44/40 38/73/65
f 55/55/47 44/60/52 60/45/41
f 53/71/63 67/57/49 63/75/67
f 38/73/65 58/72/64 55/55/47
f 61/76/68 34/40/36 35/63/55
f 65/77/69 61/76/68 52/74/66
f 52/74/66 58/72/64 65/77/69
f 62/69/61 41/66/58 63/75/67
f 63/75/67 64/78/70 53/71/63
f 58/72/64 56/56/48 55/55/47
f 53/71/63 46/61/53 44/60/52
f 48/54/46 45/58/50 42/62/54
f 61/76/68 50/65/57 52/74/66
f 61/76/68 35/63/55 50/65/57
f 62/69/61 67/57/49 50/65/57
f 41/66/58 62/69/61 40/68/60
f 53/71/63 55/55/47 67/57/49
f 64/78/70 59/70/62 53/71/63
f 45/58/50 59/70/62 64/78/70
f 60/45/41 106/79/71 116/46/42
f 32/33/31 57/32/29 31/37/34
f 60/45/41 39/47/43 106/79/71
f 49/67/59 47/59/51 48/54/46
f 15/38/17 31/37/34 57/32/29
f 64/78/70 63/75/67 42/62/54
f 59/70/62 45/58/50 47/59/51
f 65/77/69 58/72/64 37/43/39
f 54/42/38 65/77/69 37/43/39
f 30/39/35 66/41/37 31/37/34
f 64/78/70 42/62/54 45/58/50
f 32/33/31 31/37/34 33/34/32
f 33/34/32 31/37/34 66/41/37
f 66/41/37 34/40/36 61/76/68
f 54/42/38 66/41/37 65/77/69
f 66/41/37 61/76/68 65/77/69
f 67/57/49 52/74/66 50/65/57
f 56/56/48 52/74/66 67/57/49
f 63/75/67 41/66/58 42/62/54
f 62/69/61 63/75/67 67/57/49
f 33/34/32 66/41/37 54/42/38
f 62/69/61 50/65/57 51/64/56
f 71/80/72 68/81/73 69/82/74
f 11/83/4 19/84/6 76/85/75
f 90/86/76 80/87/77 81/88/78
f 81/88/78 86/89/79 82/90/80
f 86/89/79 85/91/81 82/90/80
f 85/91/81 84/92/82 83/93/83
f 19/84/6 75/94/12 77/95/84
f 13/96/7 18/31/9 70/97/85
f 21/98/15 89/99/86 75/94/12
f 70/97/85 69/82/74 92/100/87
f 90/86/76 91/101/88 78/102/89
f 73/103/90 74/104/91 88/105/92
f 92/100/87 68/81/73 72/106/93
f 90/86/76 81/88/78 82/90/80
f 89/99/86 21/98/15 88/105/92
f 90/86/76 78/102/89 80/87/77
f 88/105/92 87/107/94 73/103/90
f 85/91/81 77/95/84 82/90/80
f 77/95/84 75/94/12 82/90/80
f 82/90/80 75/94/12 89/99/86
f 89/99/86 90/86/76 82/90/80
f 69/82/74 68/81/73 92/100/87
f 77/95/84 85/91/81 83/93/83
f 77/95/84 76/85/75 19/84/6
f 83/93/83 76/85/75 77/95/84
f 13/96/7 87/107/94 21/98/15
f 88/105/92 91/101/88 89/99/86
f 91/101/88 90/86/76 89/99/86
f 85/91/81 86/89/79 84/92/82
f 92/100/87 13/96/7 70/97/85
f 88/105/92 21/98/15 87/107/94
f 91/101/88 74/104/91 78/102/89
f 88/105/92 74/104/91 91/101/88
f 92/100/87 87/107/94 13/96/7
f 79/108/95 78/102/89 74/104/91
f 72/106/93 73/103/90 87/107/94
f 92/100/87 72/106/93 87/107/94
f 86/109/79 81/110/78 99/111/96
f 84/112/82 86/109/79 98/113/97
f 100/114/98 84/112/82 98/113/97
f 102/115/99 103/116/100 107/117/101
f 70/118/85 32/119/31 120/120/102
f 70/118/85 18/121/9 32/119/31
f 105/122/103 104/123/104 116/124/42
f 111/125/105 38/126/65 121/127/40
f 102/115/99 108/128/106 119/129/107
f 101/130/108 100/114/98 112/131/109
f 117/132/110 118/133/111 111/125/105
f 95/134/112 96/135/113 94/136/114
f 99/111/96 98/113/97 86/109/79
f 107/117/101 103/116/100 120/120/102
f 32/119/31 36/137/33 107/117/101
f 120/120/102 69/138/74 70/118/85
f 106/139/71 105/122/103 116/124/42
f 78/140/89 94/136/114 80/141/77
f 107/117/101 36/137/33 37/142/39
f 112/131/109 115/143/115 101/130/108
f 120/120/102 32/119/31 107/117/101
f 81/110/78 93/144/116 99/111/96
f 107/117/101 37/142/39 108/128/106
f 102/115/99 119/129/107 97/145/117
f 80/141/77 94/136/114 96/135/113
f 125/146/118 104/123/104 101/130/108
f 115/143/115 124/147/119 125/146/118
f 113/148/120 116/124/42 125/146/118
f 112/131/109 114/149/121 124/147/119
f 80/141/77 93/144/116 81/110/78
f 112/131/109 124/147/119 115/143/115
f 99/111/96 112/131/109 98/113/97
f 122/150/122 119/129/107 109/151/123
f 79/152/95 94/136/114 78/153/89
f 113/148/120 110/154/124 117/132/110
f 123/155/125 122/150/122 118/133/111
f 109/151/123 118/133/111 122/150/122
f 125/146/118 101/130/108 115/143/115
f 96/135/113 95/134/112 127/156/126
f 116/124/42 113/148/120 121/127/40
f 93/144/116 96/135/113 127/156/126
f 125/146/118 116/124/42 104/123/104
f 123/155/125 127/156/126 95/134/112
f 119/129/107 123/155/125 97/145/117
f 122/150/122 123/155/125 119/129/107
f 120/120/102 103/116/100 71/157/72
f 102/115/99 107/117/101 108/128/106
f 117/132/110 123/155/125 118/133/111
f 126/158/127 127/156/126 110/154/124
f 93/144/116 127/156/126 126/158/127
f 125/146/118 110/154/124 113/148/120
f 114/149/121 126/158/127 124/147/119
f 99/111/96 126/158/127 114/149/121
f 95/134/112 97/145/117 123/155/125
f 38/126/65 111/125/105 118/133/111
f 113/148/120 117/132/110 111/125/105
f 37/142/39 118/133/111 108/128/106
f 118/133/111 37/142/39 38/126/65
f 98/113/97 112/131/109 100/114/98
f 71/157/72 69/138/74 120/120/102
f 96/135/113 93/144/116 80/141/77
f 112/131/109 99/111/96 114/149/121
f 99/111/96 93/144/116 126/158/127
f 121/127/40 113/148/120 111/125/105
f 123/155/125 117/132/110 110/154/124
f 123/155/125 110/154/124 127/156/126
f 119/129/107 108/128/106 109/151/123
f 109/151/123 108/128/106 118/133/111
f 110/154/124 124/147/119 126/158/127
f 124/147/119 110/154/124 125/146/118
