# Blender v2.93.1 OBJ File: ''
# www.blender.org
mtllib 02591_pants_straight_sides_JO3HAAYA2B_sim.mtl
o pants_straight_sides_JO3HAAYA2B_sim
v -18.281778 -25.538204 6.065951
v -16.510139 -31.084196 9.730310
v -4.269889 -19.818880 16.318991
v -15.664477 -43.339237 9.775232
v -17.205736 -46.928047 5.357169
v -11.607200 -30.327047 12.420270
v -18.961746 -35.830994 5.750860
v -14.524730 -17.322735 9.362167
v -14.862429 -11.521626 6.244990
v -13.397593 -7.619800 7.723591
v -0.501903 -18.398195 17.207739
v -6.344489 -8.819462 14.609287
v -14.327423 -53.362270 6.220411
v -13.012568 -53.989216 8.803177
v -11.246274 -48.733776 11.514860
v -1.708580 -52.971390 3.248882
v -0.850572 -49.566059 2.606633
v -3.388400 -50.998260 8.235240
v -7.207083 -54.682732 9.831280
v -0.355204 -45.005241 4.602280
v -1.199083 -43.271465 7.808864
v -9.791210 -54.527676 10.142196
v -2.570688 -54.702187 6.205117
v -13.287809 -36.780212 12.479657
v -0.000089 -39.884857 5.803936
v 1.298516 -26.811729 15.049129
v -0.810995 -8.979183 15.872139
v -3.880078 -36.446609 12.681368
v -0.727741 -38.996498 9.406105
v -4.730420 -29.900795 12.847022
v -13.248469 -23.897116 10.862949
v -7.539713 -15.272861 15.077161
v -8.461700 -41.314503 13.178824
v -5.964386 -48.557755 11.084889
v -1.848529 -48.334263 -2.327868
v -1.693094 -54.363461 -0.581464
v -0.068982 -42.126072 -0.866590
v -3.914446 -54.118992 -4.116083
v -5.873724 -54.052624 -5.488569
v -10.046632 -53.846832 -6.041666
v -14.558664 -53.689247 -3.740659
v 0.161860 -39.186916 -1.290951
v -15.046922 -50.961884 -3.570567
v 0.712273 -9.635984 -6.934312
v -2.915167 -9.577040 -7.726626
v -6.936416 -11.042039 -7.300384
v -16.468987 -53.541847 3.169616
v -19.958979 -34.445583 2.183842
v -17.801991 -42.627880 -1.725093
v -17.677925 -16.865486 3.995921
v -11.402422 -8.317286 -5.715893
v -12.516523 -11.130237 -4.780072
v -15.121346 -7.400554 1.269008
v -15.353002 -10.774082 0.805212
v -7.695068 -22.710852 -11.821854
v -14.105738 -43.933205 -5.142300
v -17.889965 -29.971382 -4.897016
v -10.285939 -22.236069 -10.846357
v -3.195405 -44.203640 -4.496380
v -7.574345 -30.868975 -11.826651
v -8.215220 -37.782993 -7.696922
v -17.170238 -49.231777 1.192328
v -14.350868 -20.602644 -7.679720
v -17.840391 -17.005604 -0.684464
v -2.915335 -37.992474 -5.841356
v -18.906527 -35.150669 -2.704725
v -19.341181 -27.513258 0.144730
v -9.773914 -49.265316 -6.233219
v -16.115339 -36.390434 -5.885734
v -7.009752 -44.008327 -6.201276
v -16.397808 -18.087746 -4.772194
v -10.082601 -35.998951 -8.966512
v -12.940105 -32.539291 -9.542422
v 3.059402 -54.936478 6.934348
v 5.802091 -53.082714 9.808330
v 3.206230 -50.695198 8.151494
v 1.146908 -51.328503 3.299756
v 1.382317 -43.880898 8.157525
v 0.245051 -45.394611 4.076906
v 8.969691 -54.880585 9.938583
v 12.277189 -54.605057 9.306991
v 13.935499 -53.765503 6.193112
v 16.291252 -45.013996 8.207232
v 10.082928 -35.184341 13.437377
v 6.196963 -28.941620 12.995538
v 8.997779 -49.784325 11.529961
v 16.612316 -38.753754 9.455191
v 18.903658 -31.635410 6.140862
v 16.255009 -29.943649 10.117576
v 12.507772 -25.206518 11.324935
v 16.903652 -24.661140 8.305499
v 5.509884 -19.098856 16.238039
v 17.291691 -17.046534 5.561228
v 2.557864 -8.984546 15.966946
v 12.704346 -7.666827 8.586498
v 13.540889 -15.199265 10.210718
v 12.765140 -46.833080 11.557692
v 9.850401 -17.138924 13.816812
v 7.839087 -42.008480 13.110609
v 12.484632 -31.668203 12.814393
v 3.250218 -38.434334 11.710604
v 3.395813 -43.052963 10.735771
v 13.188907 -38.455078 12.676779
v 6.619557 -8.694869 14.469733
v 19.227701 -29.565912 -1.483295
v 18.712372 -40.347618 4.345629
v 18.715466 -22.530861 3.081813
v 19.880501 -32.914982 2.185694
v 15.112629 -54.013332 -3.027915
v 15.802666 -53.817036 3.639196
v 17.806196 -45.406193 1.704777
v 14.665133 -11.256180 6.459212
v 14.083667 -7.324346 5.492591
v 13.535378 -7.707408 -2.582184
v 8.259577 -11.423660 -7.015111
v 6.661785 -9.114094 -6.918073
v 4.317469 -54.028397 -4.606010
v 1.486264 -54.416607 0.675129
v 6.314512 -43.714474 -5.936796
v 15.347036 -17.397999 -5.783829
v 9.874604 -46.743687 -6.119202
v 7.555929 -21.338837 -11.235829
v 12.978398 -10.235754 -3.412763
v 12.578420 -31.617373 -10.047413
v 6.016481 -31.778780 -11.248663
v 12.780687 -37.423862 -6.986244
v 7.966192 -37.643337 -7.287998
v 2.262380 -33.771194 -10.024995
v 4.966873 -49.008648 -5.206059
v 14.904999 -45.208923 -3.930150
v 1.830539 -49.986977 -1.655986
v 16.131544 -49.688023 -1.597310
v 3.821292 -38.225033 -5.837454
v 15.028433 -10.130575 1.379945
v 1.405878 -40.175541 -3.246506
v 10.417212 -53.957787 -5.855923
v 7.742813 -26.441399 -12.063954
v 16.804592 -21.072643 -4.518555
v 17.540033 -15.977913 -0.782814
v 12.396863 -18.168453 -8.436198
v 18.456264 -37.561241 -2.430407
v 16.286829 -32.020462 -7.045222
vt 7.536507 2.533809
vt 7.208343 6.456118
vt 5.807682 4.593868
vt 7.002214 0.120311
vt 6.966885 10.711145
vt -5.949375 36.496689
vt -2.051991 29.475245
vt -3.491810 38.176590
vt -4.001719 26.610291
vt 1.102124 19.098621
vt -0.329707 24.358559
vt -2.606715 43.701027
vt -4.127392 47.663780
vt -10.723446 30.430820
vt -9.443815 40.351284
vt -14.961008 37.060089
vt -8.655987 47.589188
vt 5.887051 13.858077
vt 4.785459 16.794085
vt -8.992053 22.079422
vt -4.084240 10.784504
vt -4.557746 17.145338
vt 0.011176 -0.022849
vt 1.217241 0.154504
vt -3.770705 7.801291
vt 4.210958 0.308937
vt 3.360924 7.036685
vt -17.051392 47.683937
vt 0.607323 6.458327
vt 2.473572 0.677620
vt -12.633110 27.963017
vt -6.481809 23.552498
vt 7.552288 16.662321
vt -0.182563 13.779875
vt -17.347950 42.893070
vt 1.495792 1.869412
vt 1.128021 0.089566
vt 3.310822 0.619744
vt 16.221720 0.173734
vt 17.780027 -0.022849
vt 20.352596 7.728296
vt 28.751337 47.633961
vt 33.048512 43.102043
vt 34.501862 47.665215
vt 21.390137 47.587788
vt 22.546558 44.549118
vt 23.349741 19.689850
vt 24.848263 26.546761
vt 20.382332 20.017864
vt 15.240799 33.497307
vt 10.882985 45.171604
vt 11.194255 35.479000
vt 17.350349 45.241047
vt 2.194481 5.928138
vt 5.403970 7.467916
vt 24.695486 17.582951
vt 24.233995 13.511602
vt 25.803238 16.950943
vt 30.161695 37.342834
vt 29.298346 27.883747
vt 33.512459 36.673534
vt 4.561162 13.898417
vt 1.673661 16.082291
vt 1.432071 13.581024
vt 12.890799 47.660019
vt 7.516082 0.756659
vt 9.630617 0.248840
vt 10.516178 6.105452
vt 12.239580 18.316988
vt 9.981692 12.119321
vt 14.213146 11.935631
vt 9.476911 24.335327
vt 14.112364 26.322348
vt 11.165635 27.730038
vt 27.321463 20.379841
vt 28.473446 43.899689
vt 1.763748 10.909010
vt 7.553443 18.476728
vt 14.016571 20.937092
vt 21.068758 25.380791
vt 26.900040 37.325661
vt 24.167580 36.331390
vt 11.206825 30.007965
vt 16.717838 5.598786
vt 13.525739 3.976882
vt 12.411112 0.067460
vt 17.655067 12.531582
vt 17.511431 19.366091
vt 7.402437 11.995340
vt 3.901208 17.753788
vt 5.713460 0.242632
vt 16.349281 23.742104
vt 21.398230 34.443878
vt 18.008083 33.788002
vt 0.322405 3.261350
vt 3.428377 2.898358
vt 2.058468 5.107257
vt 2.178172 12.364241
vt 4.284506 12.925976
vt 11.345487 8.551331
vt 6.542662 0.156164
vt 7.784532 -0.013672
vt 0.723082 8.866809
vt 4.725263 0.116963
vt 1.247860 0.035754
vt 3.767713 19.020689
vt 5.358627 17.370678
vt 6.183514 20.781113
vt 10.640476 30.138554
vt 8.776947 25.922623
vt 12.416748 26.567070
vt 8.895196 8.477148
vt 14.051532 14.946190
vt 17.541508 20.894836
vt 17.183277 23.237284
vt 20.025024 28.351620
vt 17.193254 29.077278
vt 22.328377 39.498268
vt 23.962290 37.817253
vt 24.555248 47.654877
vt 25.235058 43.769211
vt 12.961949 47.352303
vt 14.238382 36.669571
vt 16.691837 47.627975
vt 11.351474 19.571390
vt 7.466376 13.187234
vt 11.494643 15.635926
vt 6.036795 5.867290
vt 18.297825 38.091270
vt 14.265924 22.471272
vt 10.996071 38.244877
vt -8.818363 21.541737
vt -7.055216 14.859930
vt -4.364288 14.492937
vt -11.076784 44.773094
vt -7.342364 47.653122
vt -14.500796 47.555481
vt 10.952119 0.386422
vt 14.435776 0.350162
vt 12.761748 5.371898
vt 16.242836 4.752930
vt 15.992527 10.742674
vt 6.403578 47.685181
vt -0.584783 44.866791
vt 1.979101 35.531174
vt 2.448727 30.121265
vt 1.259386 25.080067
vt 4.389933 25.955696
vt 3.149944 18.642288
vt 6.230636 18.510170
vt 7.169330 24.014536
vt 0.758028 47.554996
vt -10.308577 31.271832
vt -6.084077 21.182972
vt -5.397208 25.030815
vt -4.192077 9.706017
vt 0.006672 -0.013672
vt 1.329120 0.124960
vt 14.494328 18.340199
vt 16.508650 12.975374
vt 9.340641 18.316715
vt 11.688971 16.044109
vt 11.387564 20.579708
vt 8.182308 12.858267
vt -0.873920 9.797653
vt -12.085250 27.157089
vt -6.218283 45.083530
vt -5.091769 37.403152
vt -9.276268 38.074707
vt 6.508314 8.516761
vt -15.706944 43.229103
vt -13.618511 37.076115
vt -1.270333 23.795679
vt -1.628129 17.741709
vt 2.792629 10.350524
vt -6.063252 33.693089
vt 2.322875 5.453828
vt 4.704275 0.447002
vt 7.853249 1.014972
vt 9.909691 6.184467
vt -2.235111 37.266094
vt 17.458214 16.493092
vt 16.771248 -0.001294
vt -17.208796 47.684559
vn 0.9635 -0.2039 0.1736
vn 0.9829 -0.1685 0.0747
vn 0.7443 -0.2411 0.6228
vn 0.8792 -0.1180 0.4616
vn 0.9786 -0.0469 0.2002
vn -0.2984 -0.1375 0.9445
vn 0.0726 -0.4118 0.9084
vn -0.0368 -0.0445 0.9983
vn -0.1156 -0.1233 0.9856
vn 0.1577 -0.1868 0.9697
vn 0.1388 -0.0599 0.9885
vn 0.1649 0.1190 0.9791
vn -0.1247 0.1349 0.9830
vn -0.5540 0.0210 0.8323
vn -0.4721 0.0769 0.8782
vn -0.7476 0.1410 0.6490
vn -0.4526 0.1586 0.8775
vn 0.9398 -0.2126 0.2677
vn 0.4050 -0.7114 0.5744
vn -0.7159 0.0802 0.6935
vn -0.7335 -0.1745 0.6569
vn -0.4303 -0.0128 0.9026
vn -0.8474 -0.2976 0.4397
vn -0.6605 -0.2864 0.6941
vn -0.9273 -0.1984 0.3174
vn 0.3397 -0.2431 0.9086
vn 0.3769 -0.2256 0.8984
vn -0.8333 0.2184 0.5079
vn -0.2718 -0.2409 0.9317
vn -0.1154 -0.2249 0.9675
vn -0.9044 0.1323 0.4057
vn -0.2440 0.1274 0.9614
vn 0.0806 -0.9085 0.4099
vn 0.0218 -0.1207 0.9924
vn -0.9156 0.2441 0.3195
vn 0.9619 -0.1415 -0.2342
vn -0.9631 -0.2207 0.1542
vn -0.9829 0.1370 -0.1234
vn -0.5971 0.0314 -0.8015
vn -0.6795 0.2504 -0.6896
vn -0.9984 -0.0451 0.0342
vn -0.9885 0.1177 -0.0947
vn -0.9053 -0.1016 -0.4123
vn -0.1725 0.1657 -0.9710
vn 0.0314 0.2643 -0.9639
vn 0.2001 0.2490 -0.9476
vn -0.1992 0.2640 -0.9437
vn 0.8775 -0.1056 -0.4677
vn -0.9189 -0.0535 0.3907
vn -0.9442 0.2309 0.2348
vn 0.9474 -0.1172 -0.2978
vn 0.1395 -0.5402 -0.8299
vn 0.3748 -0.0138 -0.9270
vn -0.1632 -0.0221 -0.9863
vn -0.1439 -0.0303 -0.9891
vn 0.1977 -0.3285 -0.9236
vn 0.1690 -0.1176 -0.9786
vn -0.4602 -0.1678 -0.8718
vn 0.0028 -0.6042 -0.7968
vn -0.1518 -0.2104 -0.9658
vn 0.0813 -0.3706 -0.9252
vn -0.9481 0.2605 -0.1825
vn 0.2935 -0.5869 -0.7546
vn -0.1291 -0.4601 -0.8784
vn -0.8398 0.0234 -0.5423
vn -0.9462 0.2663 -0.1836
vn -0.7934 0.2683 -0.5463
vn 0.2231 0.0259 -0.9745
vn -0.9670 -0.2083 -0.1466
vn -0.7544 -0.1330 -0.6428
vn -0.7477 -0.0976 -0.6568
vn -0.8892 -0.1792 -0.4211
vn -0.6450 -0.1977 -0.7382
vn 0.6060 -0.1379 -0.7834
vn -0.0334 -0.6103 -0.7915
vn 0.6937 -0.0619 -0.7176
vn -0.4948 -0.1941 -0.8470
vn -0.6318 0.2003 -0.7488
vn -0.4282 0.1746 -0.8867
vn -0.9758 -0.1659 0.1423
vn -0.4185 -0.3641 0.8321
vn -0.7728 -0.3388 0.5366
vn -0.8876 -0.1333 0.4409
vn -0.6079 -0.1942 0.7699
vn 0.8519 -0.1959 0.4858
vn 0.4889 -0.2960 0.8206
vn 0.8210 -0.3254 0.4691
vn -0.9918 -0.0593 0.1136
vn 0.0445 0.1687 0.9847
vn -0.7951 -0.0371 0.6054
vn -0.3000 -0.4136 0.8596
vn 0.4581 -0.2017 0.8657
vn 0.7959 -0.1089 0.5955
vn 0.9191 0.0216 0.3934
vn 0.6977 0.1024 0.7090
vn 0.7898 0.1149 0.6025
vn 0.4550 0.0388 0.8897
vn 0.7289 0.1851 0.6591
vn 0.9138 0.2465 0.3229
vn 0.7912 0.2235 0.5693
vn 0.9103 0.2581 0.3235
vn 0.3261 -0.0979 0.9402
vn 0.4959 0.1565 0.8541
vn 0.0666 -0.0043 0.9978
vn -0.1410 -0.1378 0.9804
vn 0.4458 -0.0761 0.8919
vn -0.0307 -0.2790 0.9598
vn 0.5641 0.0480 0.8243
vn 0.3394 0.1115 0.9340
vn 0.9709 -0.1697 0.1690
vn 0.9345 0.3451 -0.0870
vn 0.8525 0.1299 -0.5064
vn 0.9447 0.2535 0.2081
vn -0.5929 -0.0979 -0.7993
vn -0.9790 -0.1465 -0.1417
vn -0.8998 -0.1053 -0.4234
vn 0.3004 0.3514 -0.8867
vn 0.4436 -0.1945 -0.8748
vn 0.2785 -0.3092 -0.9093
vn -0.0267 -0.4053 -0.9138
vn 0.1725 0.1684 -0.9705
vn 0.9860 0.1413 0.0884
vn 0.9991 -0.0333 0.0275
vn 0.9558 0.0570 -0.2885
vn 0.9447 -0.2551 0.2059
vn -0.2926 -0.5418 -0.7879
vn -0.7603 -0.0338 -0.6487
vn -0.2848 -0.0984 -0.9535
vn 0.9782 -0.2066 -0.0216
vn 0.7160 0.2620 -0.6471
vn 0.7291 0.2723 -0.6279
vn 0.9339 0.2989 -0.1962
vn 0.1076 -0.0789 -0.9911
vn 0.7252 -0.0868 -0.6831
vn 0.9022 -0.1621 -0.3996
vn 0.5881 -0.1676 -0.7913
vn 0.8842 0.1203 -0.4514
vn 0.9265 -0.1634 -0.3389
vn 0.8107 -0.1209 -0.5728
vn 0.1616 -0.0620 -0.9849
vn -0.4612 -0.0732 -0.8843
vn 0.4921 0.2749 -0.8260
usemtl Default_OBJ.610
s 1
f 16/1/1 17/2/2 18/3/3
f 23/4/4 16/1/1 18/3/3
f 18/3/3 17/2/2 20/5/5
f 3/6/6 26/7/7 11/8/8
f 30/9/9 28/10/10 85/11/11
f 11/8/8 94/12/12 27/13/13
f 26/7/7 3/6/6 30/9/9
f 31/14/14 32/15/15 8/16/16
f 8/16/16 32/15/15 12/17/17
f 21/18/18 29/19/19 18/3/3
f 2/20/20 4/21/21 24/22/22
f 12/17/17 11/8/8 27/13/13
f 13/23/23 14/24/24 5/25/25
f 19/26/26 23/4/4 34/27/27
f 12/17/17 10/28/28 8/16/16
f 28/10/10 34/27/27 29/19/19
f 14/24/24 15/29/29 4/21/21
f 32/15/15 3/6/6 11/8/8
f 15/29/29 14/24/24 22/30/30
f 31/14/14 30/9/9 3/6/6
f 18/3/3 20/5/5 21/18/18
f 1/31/31 2/20/20 31/14/14
f 6/32/32 31/14/14 2/20/20
f 4/21/21 5/25/25 14/24/24
f 29/19/19 21/18/18 25/33/33
f 34/27/27 22/30/30 19/26/26
f 11/8/8 12/17/17 32/15/15
f 30/9/9 33/34/34 28/10/10
f 6/32/32 2/20/20 24/22/22
f 28/10/10 33/34/34 34/27/27
f 31/14/14 8/16/16 1/31/31
f 33/34/34 24/22/22 15/29/29
f 3/6/6 32/15/15 31/14/14
f 9/35/35 8/16/16 10/28/28
f 34/27/27 23/4/4 18/3/3
f 31/14/14 6/32/32 30/9/9
f 33/34/34 30/9/9 6/32/32
f 15/29/29 34/27/27 33/34/34
f 29/19/19 34/27/27 18/3/3
f 15/29/29 22/30/30 34/27/27
f 15/29/29 24/22/22 4/21/21
f 6/32/32 24/22/22 33/34/34
f 16/36/1 23/37/4 36/38/36
f 47/39/37 13/40/23 5/41/25
f 53/42/38 9/43/35 10/44/28
f 51/45/39 52/46/40 53/42/38
f 48/47/41 67/48/42 66/49/43
f 55/50/44 44/51/45 122/52/46
f 51/45/39 46/53/47 52/46/40
f 17/54/2 36/38/36 35/55/48
f 7/56/49 4/57/21 2/58/20
f 50/59/50 1/60/31 8/61/16
f 37/62/51 25/63/33 21/64/18
f 44/51/45 46/53/47 45/65/52
f 39/66/53 40/67/54 68/68/55
f 48/47/41 1/60/31 67/48/42
f 61/69/56 70/70/57 56/71/58
f 128/72/59 60/73/60 125/74/61
f 2/75/20 1/60/31 7/56/49
f 53/42/38 54/76/62 9/43/35
f 37/62/51 20/77/5 17/54/2
f 65/78/63 72/79/64 128/72/59
f 57/80/65 64/81/66 71/82/67
f 122/52/46 137/83/68 55/50/44
f 64/81/66 67/48/42 1/60/31
f 9/43/35 50/59/50 8/61/16
f 17/54/2 16/36/1 36/38/36
f 62/84/69 47/39/37 5/41/25
f 21/64/18 20/77/5 37/62/51
f 47/39/37 43/85/70 41/86/71
f 43/85/70 49/87/72 56/71/58
f 5/41/25 7/56/49 48/47/41
f 40/67/54 41/86/71 43/85/70
f 53/42/38 52/46/40 54/76/62
f 4/57/21 7/56/49 5/41/25
f 54/76/62 71/82/67 64/81/66
f 46/53/47 51/45/39 45/65/52
f 49/87/72 62/84/69 48/47/41
f 49/87/72 69/88/73 56/71/58
f 69/88/73 66/49/43 57/80/65
f 125/74/61 60/73/60 137/83/68
f 70/70/57 61/69/56 65/78/63
f 59/89/74 65/78/63 42/90/75
f 70/70/57 65/78/63 59/89/74
f 25/63/33 37/62/51 42/90/75
f 66/49/43 49/87/72 48/47/41
f 66/49/43 69/88/73 49/87/72
f 56/71/58 69/88/73 72/79/64
f 38/91/76 39/66/53 70/70/57
f 62/84/69 49/87/72 43/85/70
f 54/76/62 52/46/40 71/82/67
f 73/92/77 55/50/44 60/73/60
f 72/79/64 60/73/60 128/72/59
f 57/80/65 71/82/67 63/93/78
f 67/48/42 57/80/65 66/49/43
f 64/81/66 1/60/31 50/59/50
f 63/93/78 71/82/67 52/46/40
f 56/71/58 72/79/64 61/69/56
f 52/46/40 46/53/47 58/94/79
f 55/50/44 58/94/79 46/53/47
f 35/55/48 38/91/76 59/89/74
f 59/89/74 42/90/75 37/62/51
f 72/79/64 69/88/73 73/92/77
f 56/71/58 68/68/55 43/85/70
f 52/46/40 58/94/79 63/93/78
f 73/92/77 69/88/73 57/80/65
f 7/56/49 1/60/31 48/47/41
f 46/53/47 44/51/45 55/50/44
f 38/91/76 35/55/48 36/38/36
f 43/85/70 47/39/37 62/84/69
f 55/50/44 73/92/77 58/94/79
f 73/92/77 60/73/60 72/79/64
f 62/84/69 5/41/25 48/47/41
f 50/59/50 9/43/35 54/76/62
f 37/62/51 17/54/2 35/55/48
f 60/73/60 55/50/44 137/83/68
f 65/78/63 61/69/56 72/79/64
f 73/92/77 57/80/65 63/93/78
f 68/68/55 56/71/58 70/70/57
f 63/93/78 58/94/79 73/92/77
f 35/55/48 59/89/74 37/62/51
f 67/48/42 64/81/66 57/80/65
f 54/76/62 64/81/66 50/59/50
f 59/89/74 38/91/76 70/70/57
f 39/66/53 68/68/55 70/70/57
f 68/68/55 40/67/54 43/85/70
f 77/95/80 75/96/81 76/97/82
f 78/98/83 76/97/82 102/99/84
f 83/100/85 81/101/86 82/102/87
f 77/95/80 76/97/82 79/103/88
f 80/104/89 75/96/81 74/105/90
f 29/106/19 25/63/33 101/107/91
f 28/108/10 29/106/19 101/107/91
f 26/109/7 30/110/9 85/111/11
f 83/100/85 97/112/92 81/101/86
f 87/113/93 88/114/94 89/115/95
f 91/116/96 90/117/97 89/115/95
f 96/118/98 91/116/96 93/119/99
f 95/120/100 96/118/98 112/121/101
f 94/122/12 92/123/102 104/124/103
f 84/125/104 101/107/91 99/126/105
f 87/113/93 103/127/106 83/100/85
f 112/121/101 96/118/98 93/119/99
f 104/124/103 96/118/98 95/120/100
f 80/104/89 81/101/86 75/96/81
f 97/112/92 86/128/107 81/101/86
f 88/114/94 91/116/96 89/115/95
f 98/129/108 91/116/96 96/118/98
f 100/130/109 85/111/11 84/125/104
f 87/113/93 89/115/95 103/127/106
f 101/107/91 25/63/33 78/98/83
f 97/112/92 103/127/106 99/126/105
f 99/126/105 75/96/81 86/128/107
f 75/96/81 102/99/84 76/97/82
f 102/99/84 75/96/81 99/126/105
f 92/123/102 98/129/108 104/124/103
f 92/123/102 90/117/97 91/116/96
f 103/127/106 84/125/104 99/126/105
f 75/96/81 81/101/86 86/128/107
f 11/131/8 26/109/7 92/123/102
f 102/99/84 99/126/105 101/107/91
f 85/111/11 90/117/97 26/109/7
f 76/97/82 78/98/83 79/103/88
f 89/115/95 100/130/109 103/127/106
f 90/117/97 85/111/11 100/130/109
f 92/123/102 91/116/96 98/129/108
f 99/126/105 86/128/107 97/112/92
f 77/95/80 74/105/90 75/96/81
f 85/111/11 28/108/10 84/125/104
f 28/108/10 101/107/91 84/125/104
f 102/99/84 101/107/91 78/98/83
f 92/123/102 94/122/12 11/131/8
f 103/127/106 97/112/92 83/100/85
f 84/125/104 103/127/106 100/130/109
f 90/117/97 100/130/109 89/115/95
f 104/124/103 98/129/108 96/118/98
f 90/117/97 92/123/102 26/109/7
f 88/132/94 87/133/93 106/134/110
f 134/135/111 114/136/112 113/137/113
f 117/138/114 118/139/115 131/140/116
f 77/141/80 79/142/88 131/140/116
f 44/143/45 115/144/117 122/145/46
f 137/146/68 124/147/118 125/148/61
f 126/149/119 127/150/120 128/151/59
f 116/152/121 115/144/117 44/143/45
f 118/139/115 77/141/80 131/140/116
f 107/153/122 108/154/123 105/155/124
f 106/134/110 87/133/93 83/156/85
f 82/157/87 110/158/125 83/156/85
f 42/159/75 79/142/88 78/160/83
f 116/152/121 114/136/112 115/144/117
f 108/154/123 88/132/94 106/134/110
f 133/161/126 135/162/127 42/159/75
f 128/151/59 133/161/126 65/163/63
f 127/150/120 126/149/119 119/164/128
f 111/165/129 83/156/85 110/158/125
f 127/150/120 133/161/126 128/151/59
f 107/153/122 91/166/96 88/132/94
f 79/142/88 42/159/75 131/140/116
f 134/135/111 123/167/130 114/136/112
f 120/168/131 123/167/130 139/169/132
f 83/156/85 111/165/129 106/134/110
f 114/136/112 123/167/130 115/144/117
f 126/149/119 121/170/133 119/164/128
f 139/169/132 112/171/101 93/172/99
f 139/169/132 93/172/99 107/153/122
f 142/173/134 141/174/135 130/175/136
f 105/155/124 138/176/137 107/153/122
f 138/176/137 142/173/134 120/168/131
f 112/171/101 139/169/132 134/135/111
f 111/165/129 110/158/125 132/177/138
f 109/178/139 132/177/138 110/158/125
f 130/175/136 141/174/135 132/177/138
f 135/162/127 131/140/116 42/159/75
f 136/179/140 121/170/133 130/175/136
f 119/164/128 121/170/133 129/180/141
f 111/165/129 132/177/138 141/174/135
f 136/179/140 129/180/141 121/170/133
f 42/159/75 65/163/63 133/161/126
f 142/173/134 105/155/124 141/174/135
f 131/140/116 129/180/141 117/138/114
f 135/162/127 129/180/141 131/140/116
f 120/168/131 142/173/134 124/147/118
f 122/145/46 115/144/117 140/181/142
f 123/167/130 140/181/142 115/144/117
f 129/180/141 135/162/127 119/164/128
f 135/162/127 133/161/126 119/164/128
f 78/160/83 25/182/33 42/159/75
f 134/135/111 139/169/132 123/167/130
f 138/176/137 120/168/131 139/169/132
f 106/134/110 111/165/129 141/174/135
f 106/134/110 141/174/135 108/154/123
f 140/181/142 124/147/118 137/146/68
f 105/155/124 108/154/123 141/174/135
f 133/161/126 127/150/120 119/164/128
f 74/183/90 77/141/80 118/139/115
f 124/147/118 126/149/119 125/148/61
f 126/149/119 124/147/118 142/173/134
f 138/176/137 105/155/124 142/173/134
f 95/184/100 112/171/101 113/137/113
f 112/171/101 134/135/111 113/137/113
f 108/154/123 107/153/122 88/132/94
f 138/176/137 139/169/132 107/153/122
f 120/168/131 124/147/118 140/181/142
f 122/145/46 140/181/142 137/146/68
f 121/170/133 126/149/119 130/175/136
f 130/175/136 109/178/139 136/179/140
f 132/177/138 109/178/139 130/175/136
f 126/149/119 128/151/59 125/148/61
f 130/175/136 126/149/119 142/173/134
f 117/138/114 129/180/141 136/179/140
f 107/153/122 93/172/99 91/166/96
f 120/168/131 140/181/142 123/167/130
