# Blender v2.93.1 OBJ File: ''
# www.blender.org
mtllib 02809_tee_sleeveless_QPT1ORFPUK_sim.mtl
o tee_sleeveless_QPT1ORFPUK_sim
v 14.287700 1.278852 3.430288
v 14.190359 1.278081 -1.457064
v 15.534016 3.598282 1.138242
v 14.390233 -2.432524 2.056854
v 13.686519 -3.250645 -1.757493
v 15.954852 6.227427 1.829873
v 14.815464 4.685992 -3.717741
v 15.935051 6.451443 -0.571681
v 15.557062 7.237329 -3.424878
v 9.517186 -4.044050 -6.438253
v 15.081646 8.354528 -5.712692
v 5.407949 -4.191491 -7.941623
v 11.354445 11.700098 -10.382735
v 6.003955 11.909267 -11.766237
v 14.267127 10.352481 -7.811819
v -5.152789 -4.287127 -8.370391
v 14.822995 24.606535 -6.429874
v 13.582772 12.804526 -8.963503
v 13.618546 20.531403 -8.988338
v 10.475286 26.545517 -6.280091
v 14.182967 22.860798 -7.910268
v 16.019867 26.580671 -3.583301
v 16.862667 27.231014 -1.419561
v 13.254214 17.512339 -9.514483
v 10.657138 23.973400 -8.646996
v 10.294394 16.220398 -11.118773
v 4.661292 28.470171 -6.098943
v 2.483600 27.826433 -7.109843
v 6.715240 29.034567 -4.113600
v 11.678692 27.546515 -3.469150
v 8.658911 28.196623 -3.681663
v 13.292520 14.920934 -9.418888
v -7.937941 -4.268544 -7.789219
v -13.709592 13.834911 -9.366920
v -8.593571 0.765576 -8.864839
v -11.802321 -3.901685 -5.301840
v -14.494778 -3.065161 -0.943105
v -11.695856 -1.516687 -6.518003
v -14.114644 11.698599 -8.695351
v -13.988464 -1.264512 -3.128367
v -14.621737 -2.403999 1.958816
v -14.824775 1.782787 -0.744423
v -15.486704 4.264121 2.301154
v -15.396616 8.275779 -5.852273
v -15.906696 7.090976 -3.466763
v -14.736405 9.877282 -7.623247
v -12.993998 8.327719 -8.864315
v -16.082741 6.434106 -0.763016
v -15.842189 6.226980 1.959143
v -1.898065 27.542221 -7.240077
v -4.529794 28.112207 -6.393790
v -13.479005 16.716141 -9.493791
v 0.338015 27.491398 -7.421558
v -6.743592 28.669422 -4.392867
v -7.601894 28.108389 -2.340302
v -10.125934 27.423033 -3.731267
v -17.171467 27.038940 -1.417665
v -13.960364 20.287706 -9.051235
v -14.512402 22.507864 -8.039427
v -15.193353 24.386234 -6.365097
v -16.400280 26.435482 -3.511729
v 12.102166 7.325390 -8.732630
v -4.929154 26.003824 -8.119016
v -4.290427 4.087709 -10.592526
v -1.912125 24.898207 -8.565103
v 7.061654 17.792980 -11.284218
v -13.720089 1.624499 -4.089982
v -10.270326 14.884992 -11.259681
v -10.878183 21.327106 -9.873985
v -9.815955 24.949339 -7.860939
v 5.895916 26.101364 -7.918222
v 7.290396 28.580149 -2.233970
v 12.710551 1.766339 -5.143963
v 10.359683 20.900211 -10.250758
v 7.498256 2.215381 -8.977298
v -7.676989 17.221859 -11.526578
v 11.974166 -1.609672 -5.218198
v 4.336819 -0.098810 -8.984553
v 7.904963 21.479328 -10.281193
v 2.789632 4.549520 -10.498601
v -7.151595 21.831322 -10.075261
v 10.593189 1.631941 -7.248194
v -6.887480 14.165288 -11.899868
v 2.322832 18.288851 -10.549520
v -1.388406 16.769213 -10.919964
v -10.213915 8.521667 -10.593784
v -14.162792 4.871983 -5.937890
v -10.910954 1.893269 -7.854291
v 0.222782 10.509317 -11.624259
v -9.214043 26.672516 -6.129570
v -7.408187 10.666286 -11.691699
v 7.986989 9.257892 -11.044191
v -14.088555 -2.357043 4.327412
v -15.341994 7.106498 5.402580
v -14.120443 6.877409 9.957548
v -12.006268 -2.290474 8.108431
v -6.889393 -1.934956 12.987569
v -14.461908 10.378848 9.458399
v -14.201316 12.342604 10.153887
v -10.822799 13.813925 10.653050
v -12.470263 11.504098 11.103641
v -13.504894 18.522861 6.880193
v 3.976417 -1.814205 14.502473
v -1.541777 19.166758 8.209905
v 0.095701 16.662691 9.933922
v -14.196490 22.095045 4.677059
v -12.051032 23.679464 3.437665
v -13.456959 14.945107 8.881138
v -16.157320 26.959318 0.748856
v -15.287194 25.736401 2.614531
v -5.160366 19.724356 7.402346
v -4.474600 24.123312 4.534430
v -6.489537 26.959078 0.827422
v -9.235868 27.019430 -1.210011
v 7.595520 -2.043656 12.776715
v 0.290884 3.976316 13.346065
v 11.596750 9.709982 13.335877
v 10.983317 -2.293974 9.480605
v 13.804191 14.338045 9.160873
v 13.695176 -2.393878 5.580791
v 9.796799 1.370788 10.480500
v 13.565010 16.502453 8.186161
v 6.058156 3.169900 12.837219
v 15.320249 8.680980 8.246611
v 15.495211 7.714975 6.942159
v 14.340821 12.575830 9.882513
v 14.839345 10.139794 9.339375
v 15.798001 6.683600 4.287683
v 4.139873 23.829308 5.146143
v 1.802469 19.509853 8.154444
v 9.546523 27.360064 -1.344205
v 6.343371 27.334192 1.069795
v 13.596148 18.883677 6.886246
v 14.141400 22.736242 4.777686
v 14.971132 26.284304 2.801132
v 15.788779 27.318098 0.867015
v -14.646300 8.481296 7.898223
v 1.757105 8.489596 14.691854
v -8.414132 10.134731 14.378613
v -12.353925 7.817482 12.702224
v -2.725914 -1.756800 14.621043
v 14.772410 5.746034 8.823501
v 12.365288 1.516397 7.787882
v -14.105277 2.218937 4.150589
v 11.267958 21.216501 5.563862
v 7.410576 11.053012 14.090350
v 8.595379 8.719961 14.929586
v 9.875643 25.756216 1.496204
v -9.360420 25.580914 1.140993
v 13.611835 7.966121 11.744215
v -10.172897 1.817987 9.506575
v 9.038775 23.582987 3.899753
v 5.963213 19.990000 7.386898
v -6.482626 2.923639 12.414810
v -0.816415 11.939648 13.176969
v 13.288329 11.502004 10.743430
v -7.474545 1.805044 11.495074
v 3.799198 2.451462 13.138252
v 12.636899 4.716891 11.763772
v -11.622019 4.527030 11.939558
v -8.790321 4.917541 13.881984
v -2.888346 2.574065 13.004030
v -0.336592 6.084893 14.593409
v 8.647586 2.003819 11.295115
v -8.257326 22.774836 4.427015
v -12.018320 1.800122 7.476708
v 8.081703 7.017579 14.961393
v 9.105673 5.149776 14.304430
v -7.115187 11.365431 13.746541
v 9.435850 11.381606 13.375191
v 11.266806 7.263427 14.007197
v -8.267031 7.386973 14.924313
vt -3.219322 9.539461
vt -1.727261 7.081808
vt -1.952690 10.349098
vt 1.483379 8.911523
vt -0.352871 11.711748
vt 12.121191 0.017879
vt 13.058161 4.335833
vt 9.934076 6.703754
vt 20.429070 0.518794
vt 6.234325 25.010426
vt 2.627181 27.907970
vt 3.123922 25.300514
vt 3.405539 22.261919
vt 6.814335 20.676960
vt 10.932873 35.004982
vt 8.999555 35.922363
vt 8.773763 34.577343
vt 6.511242 31.828312
vt 10.848328 30.438488
vt 12.813383 33.773582
vt 27.252205 2.529607
vt 23.743441 0.026384
vt 27.645271 0.057215
vt 27.629635 25.813450
vt 27.126858 19.544333
vt 30.851284 21.654705
vt 23.021591 34.867508
vt 20.966599 33.524979
vt 25.947533 32.196373
vt 2.191055 15.388918
vt 5.306034 11.893794
vt 2.997517 17.741159
vt 3.334477 19.757479
vt 16.642523 32.554104
vt 21.586056 30.845137
vt 18.659119 32.685730
vt 21.122076 9.268140
vt 30.842333 5.352215
vt 30.780016 2.239974
vt 26.742302 29.942276
vt 34.669693 11.594432
vt 34.109035 5.122086
vt 36.185131 10.341263
vt 4.346535 5.971118
vt 5.809735 2.339574
vt 7.107659 6.069058
vt 31.584463 27.688726
vt 32.276390 30.234615
vt 3.121514 0.570189
vt 7.898979 0.342034
vt 0.874110 33.555000
vt 2.004123 30.190565
vt 5.934586 16.571634
vt 29.293177 13.209808
vt 31.526522 16.766348
vt 31.079081 18.752518
vt 14.748354 32.909573
vt 18.163660 28.522320
vt 32.279137 14.916298
vt 34.233917 -0.000320
vt 31.665897 0.629991
vt 33.306545 33.839405
vt 27.282541 34.552265
vt 6.346540 28.664015
vt 10.148556 22.117060
vt 9.021896 26.144741
vt 26.808416 13.279255
vt 23.778931 15.471444
vt 16.846100 15.440149
vt 14.331834 9.126172
vt 9.445178 13.795069
vt 1.427549 4.662014
vt -1.353003 4.009205
vt 30.606522 9.164869
vt 5.443703 34.524719
vt -0.087557 35.922363
vt 18.300999 21.248508
vt 24.561110 21.935087
vt 23.899097 25.950600
vt 33.314243 13.183464
vt 26.734838 6.512572
vt 24.095463 5.140301
vt 11.374739 16.536825
vt 14.270533 22.777767
vt 23.794903 18.596788
vt 34.341354 35.921593
vt 37.474770 9.539461
vt 36.228127 7.149378
vt 0.039016 -0.001149
vt 0.961621 13.212769
vt 10.009396 35.922363
vt 24.246496 35.922199
vt 31.123072 25.262381
vt -1.599222 4.738799
vt 0.000108 -0.000321
vt 0.941197 4.768443
vt -1.963058 7.622867
vt 2.921799 10.837034
vt -1.112821 11.019001
vt -3.051073 9.644058
vt 6.225376 18.210203
vt 9.350882 13.682985
vt 10.472816 15.052187
vt 5.041610 29.532494
vt 1.875202 31.132849
vt 2.687052 27.586018
vt 3.328158 23.577944
vt 3.284085 19.573538
vt 12.487777 24.587015
vt 15.708031 24.033688
vt 12.931358 29.669779
vt 7.203398 35.922363
vt 8.049587 34.994221
vt 10.008801 35.922363
vt 4.960194 35.922363
vt 1.076211 33.310478
vt 31.618465 9.242316
vt 36.553200 6.937622
vt 36.150135 10.408996
vt 21.034378 29.119354
vt 23.115322 24.593607
vt 25.798267 29.218338
vt 24.246052 35.922363
vt 22.976557 33.258209
vt 26.636044 34.801342
vt 29.143049 26.136599
vt 30.932833 23.530209
vt 31.583851 27.622978
vt 33.382469 33.859550
vt 34.343002 35.922363
vt 29.751726 35.922363
vt 18.504772 11.874132
vt 24.440876 12.162788
vt 23.344229 14.077368
vt 10.003210 11.074893
vt 7.755210 32.139633
vt 8.636427 28.569027
vt 5.846171 11.861662
vt 1.922839 14.825398
vt 0.555462 12.719537
vt 31.534496 16.741642
vt 30.406582 15.523602
vt 32.505341 14.092233
vt 27.372351 32.008656
vt 32.358711 31.164505
vt 20.584435 4.494298
vt 15.412889 0.446996
vt 20.194740 0.390982
vt 25.199272 4.564035
vt 23.665758 0.111504
vt 1.813803 0.476975
vt 5.317312 0.049647
vt 33.983055 4.055846
vt 31.812382 0.161906
vt 34.255081 -0.001090
vt 34.533455 11.779633
vt 2.709665 16.662968
vt 4.379154 15.485133
vt 30.877312 20.701832
vt 27.275572 35.922363
vt 26.265732 35.922363
vt 10.981121 33.629124
vt 29.771812 11.805166
vt 33.619659 12.777349
vt 31.072052 18.661959
vt 25.789280 14.895173
vt 18.840891 24.125952
vt 16.707352 8.941074
vt 9.365623 8.613020
vt 10.951866 5.932064
vt 4.248720 4.631392
vt 26.450109 3.535512
vt 27.625360 0.016429
vt 29.929142 4.249950
vt 14.410034 4.590169
vt 17.284771 6.651551
vt 6.382528 8.265666
vt 6.891046 4.342484
vt 28.245964 8.232856
vt 24.764990 8.666916
vt 16.193125 15.537248
vt 9.685461 3.778249
vt 10.820042 -0.016100
vt 17.126890 21.067057
vt 22.615124 5.830866
vt 23.845373 10.453669
vt 26.874912 11.004030
vt 37.474770 9.539461
vt 27.694342 13.262727
vn 0.9843 -0.1702 0.0462
vn 0.9485 -0.3165 -0.0138
vn 0.9626 -0.2260 -0.1492
vn 0.8827 -0.3169 -0.3470
vn 0.9362 -0.2413 -0.2555
vn 0.1824 -0.2422 -0.9529
vn 0.1022 -0.2481 -0.9633
vn 0.3098 -0.2695 -0.9118
vn -0.0859 -0.2403 -0.9669
vn 0.2259 0.2998 -0.9269
vn 0.3366 0.4555 -0.8241
vn 0.3828 0.2351 -0.8934
vn 0.4567 0.0544 -0.8880
vn 0.2874 0.0461 -0.9567
vn 0.3522 0.8976 -0.2649
vn 0.1553 0.9325 0.3259
vn 0.3466 0.9377 -0.0242
vn 0.2503 0.7724 -0.5837
vn 0.1074 0.5624 -0.8199
vn 0.1986 0.7037 -0.6822
vn -0.6743 -0.2070 -0.7089
vn -0.3436 -0.2569 -0.9033
vn -0.7131 -0.3073 -0.6301
vn -0.2279 0.3482 -0.9093
vn -0.3312 0.0271 -0.9432
vn -0.4088 0.0851 -0.9086
vn -0.3291 0.8810 -0.3399
vn -0.1803 0.6922 -0.6988
vn -0.2805 0.7899 -0.5453
vn 0.6541 -0.2563 -0.7116
vn 0.5622 -0.2982 -0.7714
vn 0.5829 -0.1449 -0.7995
vn 0.5014 -0.0447 -0.8641
vn 0.0561 0.3766 -0.9247
vn -0.0917 0.5257 -0.8457
vn -0.0594 0.5940 -0.8023
vn -0.0635 -0.2307 -0.9710
vn -0.8783 -0.1954 -0.4363
vn -0.8961 -0.1519 -0.4170
vn -0.2099 0.6122 -0.7623
vn -0.9083 -0.3141 -0.2763
vn -0.9796 -0.1765 -0.0965
vn -0.9669 -0.2488 -0.0568
vn 0.7963 -0.2690 -0.5418
vn 0.7527 -0.2588 -0.6054
vn 0.5545 -0.2681 -0.7878
vn -0.2846 0.4963 -0.8202
vn -0.2589 0.6800 -0.6859
vn 0.9115 -0.1624 -0.3780
vn 0.5129 -0.2781 -0.8122
vn 0.2215 0.8717 -0.4371
vn 0.3027 0.6621 -0.6855
vn 0.4372 -0.1509 -0.8866
vn -0.6126 -0.2479 -0.7505
vn -0.5918 -0.1578 -0.7905
vn -0.4866 -0.0796 -0.8700
vn 0.0607 0.4861 -0.8718
vn 0.0171 0.3598 -0.9329
vn -0.7059 -0.2723 -0.6539
vn -0.9946 -0.0084 0.1034
vn -0.9646 -0.1308 -0.2292
vn -0.1873 0.8884 -0.4191
vn -0.2230 0.9687 -0.1091
vn 0.2206 0.5389 -0.8129
vn -0.0107 0.1738 -0.9847
vn 0.0223 0.3589 -0.9331
vn -0.3620 -0.2070 -0.9089
vn -0.1358 -0.1299 -0.9822
vn 0.0192 -0.0424 -0.9989
vn 0.0664 -0.2440 -0.9675
vn 0.2338 -0.2107 -0.9492
vn 0.9396 -0.2361 -0.2479
vn 0.9605 -0.2033 0.1901
vn -0.7984 -0.3325 -0.5020
vn 0.1382 0.9749 -0.1743
vn 0.1128 0.9841 -0.1369
vn 0.0691 0.1977 -0.9778
vn -0.0634 0.1959 -0.9786
vn -0.0192 0.3751 -0.9268
vn -0.8014 -0.3012 -0.5167
vn -0.6046 -0.2587 -0.7534
vn -0.3446 -0.2494 -0.9050
vn 0.0619 -0.0362 -0.9974
vn -0.0610 0.2052 -0.9768
vn -0.0437 0.0451 -0.9980
vn -0.0593 0.9941 -0.0906
vn -0.9802 -0.1540 0.1242
vn -0.9436 -0.2955 0.1492
vn 0.9994 -0.0325 0.0138
vn 0.7800 -0.3090 -0.5441
vn 0.4080 0.8884 0.2105
vn -0.3321 0.9079 0.2558
vn -0.3116 0.1987 -0.9292
vn -0.9212 -0.2215 0.3200
vn -0.8760 -0.2225 0.4280
vn -0.9571 -0.1699 0.2347
vn -0.3888 0.4514 0.8032
vn -0.2536 0.3625 0.8968
vn -0.0662 0.5365 0.8413
vn 0.0776 0.6139 0.7856
vn 0.1552 0.7429 0.6512
vn 0.0987 0.5312 0.8415
vn -0.1426 0.5748 0.8058
vn -0.3394 0.4527 0.8245
vn -0.1146 0.5839 0.8037
vn -0.1085 0.5258 0.8436
vn -0.2218 0.6184 0.7539
vn -0.1633 0.9126 0.3749
vn 0.0742 0.9644 0.2539
vn 0.8864 -0.2989 0.3536
vn 0.9618 -0.2254 0.1551
vn 0.1902 0.5995 0.7775
vn 0.1103 0.5785 0.8082
vn 0.2008 0.6583 0.7254
vn 0.2716 0.7716 0.5752
vn 0.0456 0.5821 0.8118
vn -0.0211 0.4794 0.8773
vn -0.0190 0.4892 0.8719
vn -0.0531 0.9760 0.2114
vn -0.0327 0.1768 0.9837
vn 0.1786 0.1788 0.9675
vn 0.0729 0.4802 0.8741
vn -0.2298 -0.0846 0.9696
vn -0.0703 0.7868 0.6132
vn -0.1518 0.6447 0.7493
vn -0.6509 -0.0167 0.7590
vn -0.7999 -0.0027 0.6001
vn -0.9744 -0.0221 0.2237
vn 0.4283 0.2785 0.8597
vn 0.6005 0.2741 0.7512
vn 0.8134 0.0695 0.5775
vn 0.0286 0.7737 0.6329
vn -0.1846 0.7685 0.6127
vn 0.1650 0.1666 0.9721
vn -0.1698 0.3290 0.9289
vn 0.2103 0.2891 0.9339
vn 0.4775 -0.2896 0.8295
vn 0.5337 0.1534 0.8317
vn -0.9340 0.0153 0.3569
vn -0.7846 0.0665 0.6165
vn 0.9209 0.0036 0.3899
vn 0.9658 -0.1636 0.2010
vn -0.3848 0.1915 0.9029
vn -0.5128 0.3110 0.8002
vn 0.2675 0.5277 0.8062
vn -0.2957 0.7650 0.5721
vn 0.7938 -0.0047 0.6081
vn 0.9265 -0.0910 0.3652
vn 0.4599 0.3964 0.7946
vn 0.2883 0.5210 0.8034
vn 0.1017 0.4971 0.8617
vn -0.0006 -0.3039 0.9527
vn -0.2710 -0.5064 0.8186
vn -0.1796 -0.5527 0.8138
vn -0.7934 -0.2628 0.5491
vn 0.6859 0.1927 0.7017
vn 0.7509 0.0111 0.6603
vn 0.7979 -0.2896 0.5287
vn -0.1712 0.1733 0.9699
vn -0.0122 -0.3521 0.9359
vn -0.5743 -0.5300 0.6239
vn -0.6197 -0.3362 0.7092
vn 0.6373 -0.4832 0.6002
vn 0.2469 -0.4661 0.8496
vn 0.0005 0.5104 0.8599
vn -0.5149 0.0522 0.8557
vn -0.4860 0.2354 0.8416
vn -0.0038 0.5552 0.8317
vn 0.1237 -0.5355 0.8354
vn 0.1033 -0.1456 0.9839
vn 0.5220 -0.0969 0.8474
vn 0.5391 0.3326 0.7738
usemtl Default_OBJ.302
s 1
f 6/1/1 3/2/2 8/3/3
f 8/3/3 7/4/4 9/5/5
f 12/6/6 78/7/7 75/8/8
f 12/6/6 16/9/9 78/7/7
f 74/10/10 21/11/11 19/12/12
f 19/12/12 24/13/13 26/14/14
f 29/15/15 131/16/16 31/17/17
f 20/18/18 71/19/19 27/20/20
f 38/21/21 33/22/22 36/23/23
f 69/24/24 68/25/25 52/26/26
f 54/27/27 51/28/28 90/29/29
f 15/30/30 62/31/31 18/32/32
f 24/13/13 32/33/33 26/14/14
f 53/34/34 63/35/35 50/36/36
f 64/37/37 78/7/7 16/9/9
f 67/38/38 38/21/21 40/39/39
f 20/18/18 27/20/20 29/15/15
f 70/40/40 51/28/28 63/35/35
f 45/41/41 42/42/42 48/43/43
f 73/44/44 77/45/45 82/46/46
f 70/40/40 59/47/47 60/48/48
f 5/49/49 10/50/50 77/45/45
f 22/51/51 17/52/52 20/18/18
f 26/14/14 32/33/33 13/53/53
f 47/54/54 39/55/55 34/56/56
f 50/36/36 63/35/35 51/28/28
f 31/17/17 20/18/18 29/15/15
f 68/25/25 34/56/56 52/26/26
f 27/20/20 71/19/19 28/57/57
f 28/57/57 65/58/58 53/34/34
f 13/53/53 32/33/33 18/32/32
f 39/55/55 47/54/54 46/59/59
f 62/31/31 13/53/53 18/32/32
f 41/60/60 42/42/42 37/61/61
f 61/62/62 56/63/63 90/29/29
f 25/64/64 71/19/19 20/18/18
f 66/65/65 79/66/66 74/10/10
f 26/14/14 66/65/65 74/10/10
f 68/25/25 86/67/67 34/56/56
f 91/68/68 89/69/69 64/37/37
f 42/42/42 67/38/38 40/39/39
f 62/31/31 73/44/44 82/46/46
f 62/31/31 82/46/46 75/8/8
f 64/37/37 89/69/69 80/70/70
f 92/71/71 62/31/31 75/8/8
f 2/72/72 3/2/2 1/73/73
f 42/42/42 45/41/41 87/74/74
f 22/51/51 30/75/75 23/76/76
f 65/58/58 85/77/77 76/78/78
f 65/58/58 81/79/79 63/35/35
f 69/24/24 70/40/40 81/79/79
f 45/41/41 44/80/80 87/74/74
f 87/74/74 67/38/38 42/42/42
f 87/74/74 88/81/81 67/38/38
f 33/22/22 35/82/82 16/9/9
f 7/4/4 2/72/72 73/44/44
f 7/4/4 8/3/3 3/2/2
f 38/21/21 67/38/38 88/81/81
f 20/18/18 31/17/17 30/75/75
f 14/83/83 84/84/84 66/65/65
f 16/9/9 35/82/82 64/37/37
f 75/8/8 78/7/7 92/71/71
f 80/70/70 92/71/71 78/7/7
f 14/83/83 80/70/70 89/69/69
f 86/67/67 64/37/37 35/82/82
f 91/68/68 83/85/85 89/69/69
f 83/85/85 91/68/68 68/25/25
f 86/67/67 91/68/68 64/37/37
f 86/67/67 35/82/82 88/81/81
f 88/81/81 47/54/54 86/67/67
f 47/54/54 34/56/56 86/67/67
f 68/25/25 76/78/78 83/85/85
f 65/58/58 71/19/19 79/66/66
f 76/78/78 81/79/79 65/58/58
f 56/63/63 61/62/62 57/86/86
f 74/10/10 19/12/12 26/14/14
f 71/19/19 25/64/64 79/66/66
f 85/77/77 65/58/58 84/84/84
f 65/58/58 79/66/66 84/84/84
f 53/34/34 65/58/58 63/35/35
f 89/69/69 84/84/84 14/83/83
f 92/71/71 14/83/83 26/14/14
f 84/84/84 89/69/69 85/77/77
f 36/23/23 37/61/61 40/39/39
f 69/24/24 59/47/47 70/40/40
f 56/63/63 54/27/27 90/29/29
f 49/87/87 48/43/43 43/88/88
f 25/64/64 20/18/18 17/52/52
f 77/45/45 73/44/44 2/72/72
f 75/8/8 82/46/46 10/50/50
f 47/54/54 87/74/74 44/80/80
f 14/83/83 92/71/71 80/70/70
f 62/31/31 92/71/71 13/53/53
f 4/89/89 2/72/72 1/73/73
f 22/51/51 20/18/18 30/75/75
f 26/14/14 14/83/83 66/65/65
f 25/64/64 74/10/10 79/66/66
f 11/90/90 62/31/31 15/30/30
f 69/24/24 81/79/79 76/78/78
f 37/61/61 42/42/42 40/39/39
f 89/69/69 83/85/85 85/77/77
f 79/66/66 66/65/65 84/84/84
f 75/8/8 10/50/50 12/6/6
f 131/16/16 29/15/15 72/91/91
f 56/63/63 55/92/92 54/27/27
f 69/24/24 52/26/26 58/93/93
f 7/4/4 11/90/90 9/5/5
f 58/93/93 59/47/47 69/24/24
f 65/58/58 28/57/57 71/19/19
f 5/49/49 77/45/45 2/72/72
f 44/80/80 46/59/59 47/54/54
f 11/90/90 73/44/44 62/31/31
f 2/72/72 4/89/89 5/49/49
f 51/28/28 70/40/40 90/29/29
f 61/62/62 70/40/40 60/48/48
f 70/40/40 61/62/62 90/29/29
f 35/82/82 33/22/22 38/21/21
f 11/90/90 7/4/4 73/44/44
f 82/46/46 77/45/45 10/50/50
f 78/7/7 64/37/37 80/70/70
f 21/11/11 74/10/10 25/64/64
f 36/23/23 40/39/39 38/21/21
f 68/25/25 69/24/24 76/78/78
f 70/40/40 63/35/35 81/79/79
f 48/43/43 42/42/42 43/88/88
f 26/14/14 13/53/53 92/71/71
f 2/72/72 7/4/4 3/2/2
f 86/67/67 68/25/25 91/68/68
f 17/52/52 21/11/11 25/64/64
f 35/82/82 38/21/21 88/81/81
f 88/81/81 87/74/74 47/54/54
f 83/85/85 76/78/78 85/77/77
f 42/94/42 41/95/60 144/96/94
f 43/97/88 95/98/95 94/99/96
f 49/100/87 43/97/88 94/99/96
f 100/101/97 139/102/98 169/103/99
f 107/104/100 110/105/101 106/106/102
f 100/101/97 102/107/103 108/108/104
f 111/109/105 104/110/106 112/111/107
f 56/112/63 114/113/108 55/114/92
f 57/115/86 109/116/109 114/113/108
f 142/117/110 3/118/2 128/119/111
f 129/120/112 153/121/113 152/122/114
f 72/123/91 132/124/115 131/125/16
f 145/126/116 133/127/117 134/128/118
f 136/129/119 23/130/76 30/131/75
f 138/132/120 147/133/121 146/134/122
f 172/135/123 138/132/120 139/102/98
f 149/136/124 107/104/100 165/137/125
f 107/104/100 149/136/124 110/105/101
f 95/98/95 140/138/126 98/139/127
f 95/98/95 137/140/128 94/99/96
f 126/141/129 156/142/130 127/143/131
f 148/144/132 132/124/115 152/122/114
f 144/96/94 43/97/88 42/94/42
f 145/126/116 134/128/118 135/145/133
f 158/146/134 141/147/135 103/148/136
f 158/146/134 103/148/136 164/149/137
f 103/148/136 115/150/138 164/149/137
f 144/96/94 93/151/139 96/152/140
f 57/115/86 114/113/108 56/112/63
f 1/153/73 120/154/141 4/155/89
f 125/156/142 142/117/110 128/119/111
f 108/108/104 99/157/143 101/158/144
f 112/111/107 165/137/125 111/109/105
f 133/127/117 145/126/116 122/159/145
f 30/160/75 31/161/17 131/125/16
f 114/113/108 149/136/124 113/162/146
f 150/163/147 142/117/110 124/164/148
f 119/165/149 170/166/150 156/142/130
f 130/167/151 153/121/113 129/120/112
f 149/136/124 114/113/108 109/116/109
f 163/168/152 161/169/153 154/170/154
f 166/171/155 144/96/94 96/152/140
f 121/172/156 115/150/138 118/173/157
f 112/111/107 113/162/146 165/137/125
f 148/144/132 145/126/116 135/145/133
f 115/150/138 121/172/156 164/149/137
f 121/172/156 118/173/157 143/174/158
f 164/149/137 121/172/156 143/174/158
f 162/175/159 116/176/160 154/170/154
f 142/117/110 1/153/73 3/118/2
f 119/165/149 156/142/130 126/141/129
f 144/96/94 160/177/161 95/98/95
f 161/169/153 151/178/162 154/170/154
f 1/153/73 142/117/110 159/179/163
f 164/149/137 143/174/158 159/179/163
f 164/149/137 159/179/163 168/180/164
f 166/171/155 96/152/140 151/178/162
f 146/134/122 155/181/165 138/132/120
f 157/182/166 97/183/167 141/147/135
f 104/110/106 111/109/105 105/184/168
f 148/144/132 152/122/114 145/126/116
f 97/183/167 151/178/162 96/152/140
f 151/178/162 157/182/166 154/170/154
f 131/125/16 136/129/119 30/131/75
f 55/114/92 114/113/108 113/162/146
f 149/136/124 165/137/125 113/162/146
f 111/109/105 155/181/165 105/184/168
f 155/181/165 169/103/99 139/102/98
f 129/120/112 152/122/114 132/124/115
f 153/121/113 155/181/165 146/134/122
f 157/182/166 162/175/159 154/170/154
f 163/168/152 116/176/160 123/185/169
f 111/109/105 169/103/99 155/181/165
f 165/137/125 107/104/100 102/107/103
f 165/137/125 102/107/103 169/103/99
f 101/158/144 140/138/126 139/102/98
f 163/168/152 168/180/164 167/186/170
f 123/185/169 168/180/164 163/168/152
f 160/177/161 161/169/153 140/138/126
f 172/135/123 161/169/153 163/168/152
f 138/132/120 155/181/165 139/102/98
f 158/146/134 116/176/160 162/175/159
f 145/126/116 152/122/114 153/121/113
f 158/146/134 123/185/169 116/176/160
f 168/180/164 123/185/169 164/149/137
f 123/185/169 158/146/134 164/149/137
f 171/187/171 159/179/163 150/163/147
f 156/142/130 150/163/147 127/143/131
f 166/171/155 151/178/162 160/177/161
f 143/174/158 1/153/73 159/179/163
f 6/188/1 128/119/111 3/118/2
f 100/101/97 169/103/99 102/107/103
f 161/169/153 172/135/123 140/138/126
f 171/187/171 167/186/170 168/180/164
f 138/132/120 167/186/170 147/133/121
f 147/133/121 167/186/170 171/187/171
f 117/189/172 147/133/121 171/187/171
f 170/166/150 147/133/121 117/189/172
f 170/166/150 146/134/122 147/133/121
f 171/187/171 168/180/164 159/179/163
f 141/147/135 162/175/159 157/182/166
f 161/169/153 160/177/161 151/178/162
f 93/151/139 144/96/94 41/95/60
f 153/121/113 130/167/151 105/184/168
f 145/126/116 153/121/113 146/134/122
f 146/134/122 170/166/150 122/159/145
f 111/109/105 165/137/125 169/103/99
f 138/132/120 172/135/123 163/168/152
f 153/121/113 105/184/168 155/181/165
f 170/166/150 117/189/172 156/142/130
f 132/124/115 148/144/132 131/125/16
f 98/139/127 137/140/128 95/98/95
f 142/117/110 150/163/147 159/179/163
f 101/158/144 98/139/127 140/138/126
f 149/136/124 109/116/109 110/105/101
f 160/177/161 144/96/94 166/171/155
f 108/108/104 101/158/144 100/101/97
f 150/163/147 124/164/148 127/143/131
f 125/156/142 124/164/148 142/117/110
f 135/145/133 136/129/119 131/125/16
f 98/139/127 101/158/144 99/157/143
f 122/159/145 170/166/150 119/165/149
f 102/107/103 107/104/100 106/106/102
f 117/189/172 150/163/147 156/142/130
f 120/154/141 143/174/158 118/173/157
f 172/135/123 139/102/98 140/138/126
f 157/182/166 151/178/162 97/183/167
f 95/98/95 43/97/88 144/96/94
f 101/158/144 139/102/98 100/101/97
f 116/176/160 163/168/152 154/170/154
f 163/168/152 167/186/170 138/132/120
f 141/147/135 158/146/134 162/175/159
f 117/189/172 171/187/171 150/163/147
f 1/153/73 143/174/158 120/154/141
f 95/98/95 160/177/161 140/138/126
f 146/134/122 122/159/145 145/126/116
f 131/125/16 148/144/132 135/145/133
