# Blender v2.93.1 OBJ File: ''
# www.blender.org
mtllib 02917_pants_straight_sides_IQL2CUHOC7_sim.mtl
o pants_straight_sides_IQL2CUHOC7_sim
v -19.121813 -36.074799 5.411541
v -17.726969 -27.382120 7.353227
v -17.170860 -45.647072 6.703271
v -16.676395 -41.120899 8.898823
v -13.498839 -46.093834 11.194274
v -9.712702 -46.434662 12.106769
v -6.061194 -46.837582 11.490060
v -13.454838 -39.387669 12.278067
v -15.413505 -18.881565 8.798997
v -14.262078 -11.709515 7.522130
v -12.577527 -4.818502 7.861697
v -14.722014 -23.979774 9.834202
v -5.804246 -5.304551 14.276894
v -2.935952 -47.160881 9.049667
v -2.158928 -33.405670 12.423859
v -5.362189 -30.986191 12.779793
v -0.544677 -44.232368 6.617431
v 0.020037 -41.101589 6.299937
v -0.428026 -47.669033 4.082924
v -0.033567 -35.989994 7.289137
v -2.209380 -35.361790 11.120550
v -0.128206 -13.446736 16.781811
v 2.329859 -19.287289 16.981825
v -1.442964 -5.381219 15.541991
v 0.269727 -5.233558 15.577820
v 3.597458 -30.890131 12.889725
v 0.576391 -27.544422 14.783362
v -4.302611 -18.724472 16.597080
v -6.107501 -11.253374 15.018055
v -10.505260 -34.807121 13.274384
v -11.230175 -16.567327 12.401587
v -1.787023 -38.846970 10.593610
v -5.616723 -27.427307 13.368037
v -12.397325 -28.278635 11.799953
v -16.352865 -31.787825 9.861781
v -6.640917 -39.843697 12.931148
v -9.807394 -42.412407 12.963024
v -13.570768 -32.195347 12.021244
v -1.211562 -47.704960 -1.356898
v -3.339866 -47.729874 -4.371087
v 0.115059 -40.911819 0.375296
v -10.782196 -47.522480 -6.079746
v 0.015842 -37.046089 -0.007343
v -1.917393 -35.509041 -6.416746
v -5.798215 -42.491360 -6.049095
v -7.124367 -27.224075 -12.323516
v -0.211036 -29.391188 -11.663134
v 0.599649 -32.726467 -10.162775
v 0.212016 -11.465925 -7.737434
v 0.847794 -5.679224 -7.055115
v -0.192602 -5.511263 -7.850226
v -0.424986 -24.124022 -11.917178
v -15.987823 -47.104340 -2.931362
v -17.794670 -46.522137 1.222868
v -7.723120 -5.402192 -7.755442
v -12.391741 -4.623258 -4.278822
v -14.478239 -4.181853 0.698452
v -16.813259 -16.172735 5.489978
v -13.802350 -4.355889 5.505329
v -15.492197 -11.542343 3.765567
v -11.655099 -16.452925 -8.031422
v -12.748013 -38.465481 -7.007320
v -18.948032 -35.048504 -2.567217
v -3.983209 -37.807590 -6.320495
v -18.240652 -23.545736 -1.936733
v -7.915561 -10.678274 -6.975455
v -12.920273 -10.977574 -4.149219
v -1.066772 -37.702900 -3.498449
v -10.168715 -42.670269 -6.482806
v -1.436692 -33.821522 -9.260729
v -6.317962 -33.598324 -10.845190
v -2.198817 -41.977139 -4.156515
v -17.520786 -16.814304 -1.355295
v -19.539236 -29.618139 -0.617637
v -18.127655 -17.582090 1.627504
v -15.488258 -41.414818 -4.741342
v -17.492256 -30.208179 -5.271336
v -6.828283 -20.273794 -11.057355
v -18.513216 -23.581959 4.468160
v -19.916967 -32.677349 2.103858
v -19.349720 -38.913864 1.337587
v -8.620222 -37.044315 -8.135461
v -15.206038 -10.937224 0.107389
v -11.716404 -34.544437 -9.274568
v -12.285439 -21.619471 -9.585928
v -13.465420 -31.560322 -9.334686
v -16.175821 -17.741350 -4.869967
v -16.417904 -35.441139 -5.928634
v 1.350990 -47.376171 6.840911
v 0.412132 -41.682919 3.488701
v 0.459914 -39.320202 8.476180
v 0.437597 -37.011631 3.844651
v 1.763556 -35.400806 10.274806
v 2.894526 -47.086601 8.994735
v 10.053353 -46.421822 12.359383
v 6.171334 -46.767117 11.595820
v 4.627704 -34.254116 12.382452
v 11.303739 -24.591850 11.909884
v 4.710472 -12.423471 15.930857
v 3.092626 -5.339362 15.403985
v 4.899714 -21.039543 15.981070
v 13.350416 -46.101410 11.324556
v 7.166767 -39.223866 13.190432
v 16.524462 -41.278099 9.176466
v 17.071562 -45.545506 6.799733
v 18.494339 -39.577599 5.563422
v 18.532793 -29.423616 6.925543
v 13.628649 -39.639736 12.358181
v 16.349712 -30.158251 10.122195
v 15.688243 -21.204542 9.145417
v 10.542704 -27.710081 12.337825
v 17.111544 -17.311018 6.085994
v 14.581610 -10.222718 6.086365
v 11.506982 -12.139631 11.339321
v 12.719466 -4.619684 7.770566
v 10.455936 -34.373177 13.447854
v 8.007648 -16.598818 15.079423
v 14.007550 -32.180855 12.210288
v 6.699633 -5.158550 13.686576
v 3.777803 -40.109707 11.676407
v 10.305723 -40.571144 13.317221
v 18.894560 -24.446577 2.981820
v 15.587701 -46.957123 -3.164498
v 17.622286 -46.293934 1.576288
v 19.128160 -39.314316 1.380577
v 17.459673 -41.922169 -2.139158
v 10.727193 -47.346226 -5.959985
v 11.953279 -4.451729 -4.029316
v 14.273946 -4.014925 1.702595
v 13.648847 -4.255481 5.598567
v 14.982631 -10.054085 2.069331
v 1.985089 -47.613838 -2.648022
v 5.180413 -47.569016 -5.231406
v 2.223059 -35.511665 -6.617086
v 0.427589 -47.470078 3.312503
v 2.779669 -5.625264 -7.838986
v 4.302925 -37.945312 -6.047958
v 8.408401 -20.730606 -10.933291
v 19.850197 -32.434219 2.455948
v 18.692902 -27.370312 -2.071208
v 18.920279 -34.199768 -2.588381
v 14.403357 -17.315096 -6.679066
v 8.503758 -37.190220 -7.531327
v 7.374326 -11.066069 -6.936227
v 11.049220 -10.396873 -5.150405
v 0.253322 -41.786362 -0.634469
v 18.036203 -17.050390 2.189028
v 11.871675 -42.527252 -5.853243
v 1.388714 -36.505470 -4.031792
v 5.990853 -42.758488 -5.891701
v 6.180852 -32.452530 -11.206116
v 6.212874 -26.045832 -12.212232
v 8.664751 -5.054659 -6.690801
v 14.086834 -9.945911 -1.519381
v 13.008705 -36.111004 -7.524821
v 13.592338 -32.112156 -9.205834
v 16.221992 -32.359558 -6.897241
v 15.252732 -25.162285 -7.364047
v 17.413044 -17.025352 -2.280686
v 9.925200 -25.500584 -11.387040
v 10.163518 -33.666073 -10.169038
vt 7.246586 4.322244
vt 7.738590 0.000000
vt 10.628071 0.137728
vt -2.711510 23.384567
vt -5.314434 28.678555
vt -4.228613 18.919464
vt 12.734922 11.992533
vt 16.548901 12.165724
vt 11.520321 14.147058
vt 3.625453 6.969990
vt 4.431175 0.172041
vt 3.947423 30.983299
vt -0.819889 32.398804
vt 2.548374 44.076733
vt -6.242500 44.085461
vt 8.131924 29.065567
vt 8.822556 22.138767
vt 14.012964 0.203322
vt 13.286745 8.051706
vt -6.664096 35.500092
vt 9.322567 7.286275
vt 10.298790 18.737835
vt 7.722274 16.376305
vt 7.220962 37.300739
vt 8.799224 44.125191
vt 6.989563 44.123127
vt -0.781479 14.147307
vt 5.189830 21.004120
vt 0.572803 4.830976
vt -2.071210 9.421099
vt 2.272877 38.003113
vt 17.271360 3.853453
vt 2.067662 14.087105
vt 0.987665 18.663219
vt 5.338274 11.876862
vt 18.240734 10.172513
vt 17.440514 7.353771
vt 18.388535 0.021352
vt 0.151574 0.000000
vt 3.863090 7.068978
vt 0.542207 6.931166
vt 0.363796 3.173763
vt 3.039448 12.268343
vt 6.526290 10.610162
vt 7.897268 12.893790
vt 8.708815 15.805420
vt 33.140793 30.853088
vt 35.040016 28.612520
vt 34.780678 35.853111
vt 9.583046 10.760419
vt 13.903445 11.288515
vt 35.000103 44.128567
vt 32.601028 44.013557
vt 26.815865 17.166077
vt 31.533773 23.040962
vt 30.203144 29.448719
vt 20.236715 0.150131
vt 21.053394 12.268730
vt 19.580130 6.197502
vt 33.175499 18.763371
vt 11.731302 25.189274
vt 14.914356 22.137924
vt 16.388405 28.844097
vt 24.101398 12.182262
vt 28.237545 13.618795
vt 23.289160 44.130238
vt 17.547770 44.041283
vt 23.597160 37.472038
vt 30.101891 10.138343
vt 28.447655 0.013379
vt 29.740532 3.727079
vt 31.504131 36.401585
vt 10.029118 44.128841
vt 11.806470 38.326832
vt 10.526741 20.837929
vt 18.445869 38.465115
vt 20.711136 31.544350
vt 8.954565 0.197488
vt 14.994932 0.231369
vt 11.257517 5.648292
vt 28.116188 43.875511
vt 28.076187 37.299362
vt 14.923679 5.252917
vt 17.506195 9.834203
vt 10.471978 41.723022
vt 0.892404 0.059435
vt 4.499478 0.740097
vt 16.739317 13.911065
vt 18.815376 16.801193
vt 8.058208 6.112132
vt 13.021896 16.013683
vt 27.150593 23.489429
vt 25.046883 29.916656
vt 27.968491 30.424452
vt 20.125093 26.190754
vt 23.417231 17.149279
vt 26.141693 7.724341
vt 9.169216 18.444748
vt 24.074371 0.014559
vt 5.186328 12.337170
vt 2.149006 12.229991
vt 3.177073 8.801112
vt 10.104654 17.621897
vt 5.990693 15.566748
vt 8.249999 13.139408
vt 10.091922 44.125320
vt 14.567255 36.795666
vt 13.167198 43.952347
vt 14.157918 27.285810
vt 16.891045 31.874716
vt 11.925583 30.084068
vt 25.171265 29.694725
vt 25.811285 38.431740
vt 21.533091 36.357887
vt 17.763767 4.590932
vt 20.222469 5.695815
vt 22.305977 16.451460
vt 24.812933 44.116535
vt 17.450571 44.009567
vt 19.563154 15.845810
vt 22.324341 25.574795
vt 6.594189 7.215967
vt 0.706687 0.647444
vt 10.807070 0.086251
vt 11.867522 6.161366
vt 9.727845 7.775238
vt 4.039826 0.164976
vt 7.498739 0.003763
vt 9.806000 21.733278
vt 17.778824 22.986294
vt 0.430705 4.916310
vt 0.253739 2.592463
vt 11.629139 35.694397
vt 0.633621 10.424742
vt 14.654483 6.500471
vt 14.256369 0.231089
vt 16.405519 14.246300
vt 16.175797 19.623674
vt 13.182684 12.583360
vt 18.517700 0.000227
vt 6.373041 5.122035
vt 4.374752 0.099533
vt 8.663157 0.201481
vt -5.254517 29.883499
vt -4.001127 17.465872
vt -2.161825 21.789646
vt 13.472164 0.065353
vt 12.293550 4.857041
vt 25.950853 11.861950
vt 20.398745 13.016966
vt 21.867537 11.331293
vt 21.239380 16.464125
vt 15.173969 44.176323
vt 16.943310 38.198418
vt 17.539799 44.165672
vt 6.783256 15.382436
vt 6.133706 22.960625
vt 2.029245 19.592754
vt 14.734909 11.195383
vt 19.284857 17.660919
vt 15.058057 17.109570
vt -1.714251 37.758682
vt -0.729615 44.006176
vt -5.394936 38.040257
vt 28.227324 7.791413
vt 27.925430 10.502951
vt 27.104095 5.920536
vt 4.484958 43.934933
vt 1.683317 37.934700
vt 6.619652 38.067688
vt 8.936001 44.061352
vt 2.748553 6.904021
vt 0.229354 0.003236
vt 18.056885 20.953823
vt 23.802526 5.771017
vt 22.701075 0.740410
vt 26.612543 0.199416
vt 1.099341 29.932526
vt -2.323366 29.731533
vt -0.548734 6.322240
vt -0.046698 13.854731
vt 10.255786 37.720207
vt 11.319975 28.611980
vt 17.302488 25.172344
vt 17.336960 30.914579
vt -0.494710 1.949344
vt 18.599215 0.665738
vt 16.961979 5.719644
vt 13.464502 23.069317
vt 18.885937 10.255681
vt 4.177152 12.759738
vt 5.233199 30.189486
vt 10.544580 22.810747
vt 10.750728 11.774389
vt 9.618998 16.036533
vt 12.914576 15.172428
vt -4.601248 44.121712
vt -6.202778 44.119717
vn -0.0745 -0.1419 0.9871
vn -0.0390 -0.2027 0.9785
vn 0.3856 -0.1983 0.9011
vn -0.5859 0.0454 0.8091
vn -0.7704 0.1459 0.6207
vn -0.8533 0.0942 0.5128
vn 0.6130 -0.1932 0.7661
vn 0.0003 -0.5860 0.8103
vn -0.0648 -0.4726 0.8789
vn -0.4923 -0.0646 0.8680
vn -0.5201 -0.1747 0.8361
vn -0.2879 -0.0835 0.9540
vn -0.6181 0.0922 0.7807
vn -0.4660 0.1506 0.8719
vn -0.7808 0.1871 0.5960
vn 0.1201 -0.1020 0.9875
vn 0.0199 -0.3422 0.9394
vn 0.7290 -0.2486 0.6378
vn 0.7203 -0.0932 0.6874
vn -0.8379 0.2163 0.5012
vn 0.2572 -0.0855 0.9626
vn 0.0423 -0.2163 0.9754
vn -0.0446 -0.1289 0.9907
vn -0.0345 0.1118 0.9931
vn 0.0338 0.1252 0.9916
vn -0.1672 0.1180 0.9788
vn -0.7343 0.0567 0.6764
vn -0.2789 -0.1874 0.9419
vn -0.7969 -0.1174 0.5925
vn -0.9389 -0.0566 0.3396
vn -0.4030 0.1219 0.9070
vn 0.9253 -0.1827 0.3323
vn -0.4690 0.1159 0.8756
vn -0.3362 0.1751 0.9254
vn -0.1296 0.0453 0.9905
vn 0.0456 -0.4970 -0.8665
vn 0.9723 -0.0984 0.2119
vn 0.9832 -0.1491 0.1048
vn -0.9056 -0.1869 0.3808
vn 0.9846 -0.0714 -0.1598
vn 0.8769 -0.1282 -0.4633
vn 0.5012 -0.6536 -0.5672
vn 0.1302 -0.8259 -0.5486
vn -0.8944 0.2539 0.3682
vn 0.4544 -0.2901 -0.8423
vn 0.0593 -0.4565 -0.8877
vn -0.9330 0.1829 0.3100
vn -0.9770 0.0796 -0.1976
vn -0.9539 0.1254 0.2725
vn -0.9698 0.2419 0.0310
vn -0.7378 -0.2136 -0.6404
vn -0.6868 -0.1683 -0.7071
vn -0.4293 -0.2337 -0.8724
vn 0.0091 0.1188 -0.9929
vn -0.1754 -0.0307 -0.9840
vn -0.1550 0.2753 -0.9488
vn -0.9111 -0.0999 -0.3999
vn -0.9982 0.0065 0.0603
vn -0.7753 0.0680 -0.6279
vn -0.3188 -0.0693 -0.9453
vn -0.7135 0.2366 -0.6595
vn -0.9498 0.2741 0.1505
vn 0.2856 -0.0069 -0.9583
vn 0.0294 0.1843 -0.9824
vn 0.0146 -0.2125 -0.9770
vn -0.2947 0.1392 -0.9454
vn -0.4608 0.3497 -0.8157
vn 0.5698 -0.1506 -0.8079
vn -0.1603 -0.1443 -0.9765
vn 0.2931 -0.1838 -0.9383
vn -0.9783 0.1500 -0.1428
vn -0.9338 0.2601 -0.2459
vn -0.1086 -0.1690 -0.9796
vn -0.2338 -0.3795 -0.8952
vn 0.1258 0.0904 -0.9879
vn 0.9177 -0.1307 -0.3751
vn -0.2992 -0.3623 -0.8827
vn -0.5394 -0.1112 -0.8347
vn 0.6845 -0.1336 -0.7167
vn 0.0144 -0.4948 -0.8689
vn -0.9399 0.1326 -0.3148
vn -0.7796 0.2645 -0.5676
vn -0.9180 0.2865 -0.2743
vn -0.5269 0.1742 -0.8319
vn -0.8203 0.0324 -0.5710
vn -0.9833 -0.1749 -0.0506
vn -0.0060 -0.6112 -0.7915
vn -0.9685 -0.2089 -0.1354
vn -0.4930 -0.5215 0.6965
vn -0.9064 -0.1149 0.4065
vn -0.2461 -0.1996 0.9485
vn 0.2868 0.1159 0.9509
vn 0.2273 0.1220 0.9662
vn 0.3247 -0.2202 0.9198
vn 0.4977 0.0298 0.8668
vn 0.8833 0.2347 0.4058
vn 0.9135 0.2241 0.3395
vn 0.7023 0.1814 0.6883
vn 0.8033 -0.1220 0.5830
vn 0.9500 -0.1260 0.2856
vn 0.9103 0.0517 0.4108
vn 0.8177 0.1774 0.5477
vn 0.5454 0.1795 0.8187
vn 0.6854 0.0759 0.7242
vn 0.7107 0.1137 0.6942
vn -0.5558 -0.1281 0.8214
vn -0.9195 -0.0982 0.3806
vn 0.0602 -0.1747 0.9828
vn 0.1120 -0.1126 0.9873
vn -0.2241 -0.0615 0.9726
vn -0.7269 -0.1568 0.6685
vn -0.3881 -0.1925 0.9013
vn 0.4323 -0.0369 0.9010
vn -0.9974 -0.0329 0.0639
vn -0.9964 -0.0662 0.0521
vn -0.9417 -0.3323 0.0525
vn 0.5248 -0.0703 0.8483
vn 0.5379 -0.1826 0.8230
vn 0.4877 0.1080 0.8663
vn 0.2575 0.0878 0.9623
vn 0.1048 0.0555 0.9929
vn 0.9076 -0.1965 0.3711
vn 0.8803 -0.1995 -0.4305
vn 0.9651 -0.2325 -0.1203
vn 0.7026 -0.2100 -0.6799
vn 0.9900 0.1198 0.0746
vn 0.1739 -0.0624 -0.9828
vn 0.2337 -0.1824 -0.9550
vn -0.3157 -0.7971 -0.5147
vn -0.8712 -0.1512 -0.4671
vn -0.0048 -0.0188 -0.9998
vn 0.7316 -0.1057 -0.6735
vn 0.7312 0.1031 -0.6743
vn 0.9431 0.0973 -0.3180
vn -0.0456 -0.4632 -0.8851
vn 0.0252 -0.3887 -0.9210
vn 0.9670 0.2505 -0.0471
vn 0.9824 0.1518 -0.1088
vn 0.7840 0.0830 -0.6152
vn 0.8695 0.2613 -0.4191
vn 0.5747 0.2145 -0.7897
vn 0.4104 -0.0146 -0.9118
vn 0.9824 -0.1699 -0.0771
vn -0.9724 -0.0855 -0.2173
vn -0.8079 -0.1281 -0.5752
vn 0.8973 0.2703 -0.3490
vn 0.9619 0.2704 0.0413
vn 0.9987 0.0036 0.0502
vn 0.2463 0.1976 -0.9488
vn 0.2426 0.2867 -0.9268
vn -0.4295 -0.0499 -0.9017
vn -0.2805 -0.1451 -0.9488
vn 0.1038 0.0061 -0.9946
vn -0.4219 -0.3023 -0.8548
vn 0.9212 -0.0631 -0.3839
vn 0.6354 0.2892 -0.7160
vn 0.3798 0.0516 -0.9236
vn 0.3762 -0.3935 -0.8388
vn 0.5207 -0.1758 -0.8354
vn 0.2201 -0.4110 -0.8847
vn 0.9438 0.1675 0.2848
usemtl Default_OBJ.746
s 1
f 37/1/1 6/2/2 7/3/3
f 12/4/4 9/5/5 2/6/6
f 21/7/7 20/8/8 15/9/9
f 8/10/10 5/11/11 37/1/1
f 12/4/4 28/12/12 31/13/13
f 13/14/14 11/15/15 31/13/13
f 23/16/16 28/12/12 27/17/17
f 37/1/1 5/11/11 6/2/2
f 7/3/3 14/18/18 32/19/19
f 31/13/13 11/15/15 10/20/20
f 37/1/1 7/3/3 36/21/21
f 15/9/9 26/22/22 16/23/23
f 31/13/13 10/20/20 9/5/5
f 23/16/16 22/24/24 28/12/12
f 25/25/25 24/26/26 22/24/24
f 26/22/22 27/17/17 16/23/23
f 12/4/4 2/6/6 35/27/27
f 27/17/17 28/12/12 33/28/28
f 4/29/29 8/10/10 35/27/27
f 4/29/29 35/27/27 1/30/30
f 31/13/13 9/5/5 12/4/4
f 31/13/13 29/31/31 13/14/14
f 24/26/26 13/14/14 22/24/24
f 35/27/27 2/6/6 1/30/30
f 32/19/19 14/18/18 17/32/32
f 8/10/10 38/33/33 35/27/27
f 34/34/34 33/28/28 12/4/4
f 33/28/28 34/34/34 16/23/23
f 33/28/28 16/23/23 27/17/17
f 34/34/34 30/35/35 16/23/23
f 38/33/33 30/35/35 34/34/34
f 43/36/36 20/8/8 18/37/37
f 30/35/35 8/10/10 37/1/1
f 36/21/21 21/7/7 16/23/23
f 16/23/23 30/35/35 36/21/21
f 13/14/14 29/31/31 22/24/24
f 28/12/12 29/31/31 31/13/13
f 29/31/31 28/12/12 22/24/24
f 36/21/21 7/3/3 32/19/19
f 38/33/33 34/34/34 35/27/27
f 17/32/32 14/18/18 19/38/38
f 30/35/35 37/1/1 36/21/21
f 30/35/35 38/33/33 8/10/10
f 5/11/11 4/29/29 3/39/39
f 20/8/8 32/19/19 18/37/37
f 21/7/7 32/19/19 20/8/8
f 17/32/32 18/37/37 32/19/19
f 12/4/4 35/27/27 34/34/34
f 21/7/7 36/21/21 32/19/19
f 8/10/10 4/29/29 5/11/11
f 12/4/4 33/28/28 28/12/12
f 21/7/7 15/9/9 16/23/23
f 41/40/40 18/41/37 17/42/32
f 43/43/36 68/44/41 44/45/42
f 70/46/43 43/43/36 44/45/42
f 58/47/44 9/48/5 10/49/20
f 44/45/42 64/50/45 82/51/46
f 11/52/15 59/53/47 10/49/20
f 74/54/48 79/55/49 75/56/50
f 53/57/51 88/58/52 76/59/53
f 9/48/5 79/55/49 2/60/6
f 52/61/54 46/62/55 78/63/56
f 63/64/57 80/65/58 74/54/48
f 56/66/59 55/67/60 67/68/61
f 1/69/30 3/70/39 4/71/29
f 10/49/20 59/53/47 60/72/62
f 55/67/60 51/73/63 49/74/64
f 46/62/55 52/61/54 47/75/65
f 66/76/66 78/63/56 61/77/67
f 40/78/68 42/79/69 45/80/70
f 57/81/71 56/66/59 83/82/72
f 69/83/73 76/59/53 62/84/74
f 51/73/63 50/85/75 49/74/64
f 19/86/38 39/87/76 41/40/40
f 84/88/77 86/89/78 46/62/55
f 68/44/41 39/87/76 72/90/79
f 45/80/70 72/90/79 40/78/68
f 44/45/42 82/51/46 71/91/80
f 71/91/80 70/46/43 44/45/42
f 75/56/50 65/92/81 74/54/48
f 87/93/82 73/94/83 67/68/61
f 79/55/49 9/48/5 58/47/44
f 43/43/36 18/41/37 41/40/40
f 78/63/56 46/62/55 85/95/84
f 69/83/73 45/80/70 42/79/69
f 68/44/41 43/43/36 41/40/40
f 42/79/69 53/57/51 76/59/53
f 46/62/55 71/91/80 84/88/77
f 67/68/61 55/67/60 66/76/66
f 40/78/68 72/90/79 39/87/76
f 46/62/55 47/75/65 71/91/80
f 77/96/85 86/89/78 88/58/52
f 80/65/58 1/69/30 79/55/49
f 86/89/78 77/96/85 85/95/84
f 79/55/49 74/54/48 80/65/58
f 69/83/73 42/79/69 76/59/53
f 60/72/62 75/56/50 58/47/44
f 60/72/62 59/53/47 57/81/71
f 64/50/45 72/90/79 45/80/70
f 45/80/70 69/83/73 82/51/46
f 45/80/70 82/51/46 64/50/45
f 44/45/42 68/44/41 64/50/45
f 1/69/30 80/65/58 81/97/86
f 63/64/57 88/58/52 53/57/51
f 88/58/52 86/89/78 84/88/77
f 76/59/53 88/58/52 84/88/77
f 82/51/46 62/84/74 84/88/77
f 78/63/56 85/95/84 61/77/67
f 85/95/84 77/96/85 87/93/82
f 79/55/49 1/69/30 2/60/6
f 75/56/50 79/55/49 58/47/44
f 63/64/57 81/97/86 80/65/58
f 41/40/40 17/42/32 19/86/38
f 60/72/62 57/81/71 83/82/72
f 85/95/84 46/62/55 86/89/78
f 87/93/82 77/96/85 65/92/81
f 65/92/81 75/56/50 73/94/83
f 71/91/80 47/75/65 48/98/87
f 71/91/80 48/98/87 70/46/43
f 66/76/66 61/77/67 67/68/61
f 74/54/48 65/92/81 77/96/85
f 68/44/41 41/40/40 39/87/76
f 60/72/62 58/47/44 10/49/20
f 75/56/50 83/82/72 73/94/83
f 73/94/83 83/82/72 67/68/61
f 77/96/85 88/58/52 63/64/57
f 61/77/67 87/93/82 67/68/61
f 65/92/81 73/94/83 87/93/82
f 63/64/57 54/99/88 81/97/86
f 3/70/39 81/97/86 54/99/88
f 1/69/30 81/97/86 3/70/39
f 54/99/88 63/64/57 53/57/51
f 55/67/60 49/74/64 66/76/66
f 78/63/56 66/76/66 49/74/64
f 56/66/59 67/68/61 83/82/72
f 69/83/73 62/84/74 82/51/46
f 75/56/50 60/72/62 83/82/72
f 72/90/79 64/50/45 68/44/41
f 74/54/48 77/96/85 63/64/57
f 82/51/46 84/88/77 71/91/80
f 62/84/74 76/59/53 84/88/77
f 87/93/82 61/77/67 85/95/84
f 93/100/89 20/101/8 91/102/90
f 26/103/22 15/104/9 97/105/91
f 25/106/25 99/107/92 100/108/93
f 101/109/94 117/110/95 23/111/16
f 112/112/96 113/113/97 114/114/98
f 104/115/99 106/116/100 107/117/101
f 114/114/98 115/118/102 119/119/103
f 109/120/104 107/117/101 110/121/105
f 114/114/98 110/121/105 112/112/96
f 120/122/106 91/102/90 89/123/107
f 95/124/108 121/125/109 103/126/110
f 93/100/89 15/104/9 20/101/8
f 117/110/95 99/107/92 23/111/16
f 104/115/99 107/117/101 109/120/104
f 94/127/111 96/128/112 120/122/106
f 96/128/112 95/124/108 103/126/110
f 101/109/94 27/129/17 98/130/113
f 90/131/114 135/132/115 89/123/107
f 110/121/105 107/117/101 112/112/96
f 99/107/92 22/133/24 23/111/16
f 23/111/16 27/129/17 101/109/94
f 93/100/89 97/105/91 15/104/9
f 92/134/116 91/102/90 20/101/8
f 89/123/107 91/102/90 90/131/114
f 25/106/25 22/133/24 99/107/92
f 96/128/112 103/126/110 120/122/106
f 108/135/117 121/125/109 102/136/118
f 101/109/94 98/130/113 117/110/95
f 109/120/104 118/137/119 104/115/99
f 110/121/105 98/130/113 109/120/104
f 111/138/120 118/137/119 109/120/104
f 114/114/98 117/110/95 110/121/105
f 102/136/118 104/115/99 108/135/117
f 108/135/117 116/139/121 121/125/109
f 111/138/120 109/120/104 98/130/113
f 121/125/109 95/124/108 102/136/118
f 114/114/98 113/113/97 115/118/102
f 104/115/99 102/136/118 105/140/122
f 119/119/103 100/108/93 99/107/92
f 116/139/121 118/137/119 111/138/120
f 103/126/110 116/139/121 97/105/91
f 118/137/119 116/139/121 108/135/117
f 120/122/106 103/126/110 97/105/91
f 97/105/91 93/100/89 120/122/106
f 26/103/22 111/138/120 27/129/17
f 120/122/106 89/123/107 94/127/111
f 93/100/89 91/102/90 120/122/106
f 98/130/113 110/121/105 117/110/95
f 118/137/119 108/135/117 104/115/99
f 43/43/36 92/134/116 20/101/8
f 26/103/22 97/105/91 116/139/121
f 99/107/92 117/110/95 119/119/103
f 116/139/121 111/138/120 26/103/22
f 103/126/110 121/125/109 116/139/121
f 111/138/120 98/130/113 27/129/17
f 117/110/95 114/114/98 119/119/103
f 126/141/123 124/142/124 123/143/125
f 112/144/96 107/145/101 122/146/126
f 123/143/125 127/147/127 148/148/128
f 43/149/36 134/150/129 149/151/130
f 134/150/129 43/149/36 70/152/43
f 136/153/131 49/154/64 50/155/75
f 157/156/132 158/157/133 140/158/134
f 143/159/135 48/160/87 151/161/136
f 131/162/137 129/163/138 113/164/97
f 91/165/90 92/166/116 90/167/114
f 128/168/139 129/163/138 154/169/140
f 145/170/141 153/171/142 128/168/139
f 134/150/129 70/152/43 48/160/87
f 125/172/143 105/173/122 124/142/124
f 48/160/87 47/174/65 151/161/136
f 146/175/144 132/176/145 135/177/115
f 122/146/126 159/178/146 147/179/147
f 106/180/100 125/172/143 139/181/148
f 145/170/141 144/182/149 153/171/142
f 138/183/150 52/184/54 78/185/56
f 104/186/99 105/173/122 106/180/100
f 125/172/143 106/180/100 105/173/122
f 138/183/150 49/154/64 144/182/149
f 144/182/149 49/154/64 153/171/142
f 133/187/151 150/188/152 127/147/127
f 152/189/153 52/184/54 138/183/150
f 146/175/144 149/151/130 132/176/145
f 132/176/145 149/151/130 137/190/154
f 157/156/132 140/158/134 141/191/155
f 143/159/135 150/188/152 137/190/154
f 150/188/152 143/159/135 148/148/128
f 133/187/151 132/176/145 150/188/152
f 43/149/36 149/151/130 146/175/144
f 43/149/36 146/175/144 90/167/114
f 148/148/128 157/156/132 123/143/125
f 125/172/143 124/142/124 126/141/123
f 159/178/146 142/192/156 154/169/140
f 159/178/146 158/157/133 142/192/156
f 158/157/133 160/193/157 142/192/156
f 157/156/132 155/194/158 156/195/159
f 159/178/146 122/146/126 140/158/134
f 160/193/157 138/183/150 142/192/156
f 122/146/126 107/145/101 139/181/148
f 157/156/132 126/141/123 123/143/125
f 141/191/155 125/172/143 126/141/123
f 141/191/155 126/141/123 157/156/132
f 48/160/87 143/159/135 134/150/129
f 131/162/137 112/144/96 147/179/147
f 90/167/114 92/166/116 43/149/36
f 160/193/157 156/195/159 161/196/160
f 151/161/136 160/193/157 161/196/160
f 156/195/159 160/193/157 158/157/133
f 128/168/139 154/169/140 145/170/141
f 47/174/65 152/189/153 151/161/136
f 150/188/152 148/148/128 127/147/127
f 145/170/141 138/183/150 144/182/149
f 145/170/141 154/169/140 142/192/156
f 49/154/64 138/183/150 78/185/56
f 49/154/64 136/153/131 153/171/142
f 113/164/97 130/197/161 115/198/102
f 90/167/114 146/175/144 135/177/115
f 131/162/137 154/169/140 129/163/138
f 141/191/155 140/158/134 139/181/148
f 149/151/130 134/150/129 137/190/154
f 143/159/135 137/190/154 134/150/129
f 132/176/145 137/190/154 150/188/152
f 148/148/128 155/194/158 157/156/132
f 125/172/143 141/191/155 139/181/148
f 138/183/150 160/193/157 152/189/153
f 151/161/136 152/189/153 160/193/157
f 47/174/65 52/184/54 152/189/153
f 106/180/100 139/181/148 107/145/101
f 156/195/159 158/157/133 157/156/132
f 143/159/135 155/194/158 148/148/128
f 143/159/135 151/161/136 161/196/160
f 113/164/97 129/163/138 130/197/161
f 142/192/156 138/183/150 145/170/141
f 158/157/133 159/178/146 140/158/134
f 122/146/126 147/179/147 112/144/96
f 147/179/147 159/178/146 154/169/140
f 156/195/159 155/194/158 161/196/160
f 143/159/135 161/196/160 155/194/158
f 122/146/126 139/181/148 140/158/134
f 113/164/97 112/144/96 131/162/137
f 131/162/137 147/179/147 154/169/140
