# Blender v2.93.1 OBJ File: 'HUMANBASE_FROMSCRATCH.blend'
# www.blender.org
mtllib lasso2d_2.mtl
o lasso_plane_base_Plane.033
v 0.407597 -1.066920 -0.000000
v 0.537067 -1.085999 -0.000000
v 0.532436 -0.896800 -0.000000
v 0.407597 -0.869219 -0.000000
v 0.729726 -1.057856 -0.000000
v 0.744693 -0.904520 -0.000000
v 0.995344 -0.982057 -0.000000
v 0.983335 -0.829824 -0.000000
v 1.222808 -0.773369 -0.000000
v 1.146812 -0.633739 -0.000000
v 1.271657 -0.341142 -0.000000
v 1.097214 -0.353618 -0.000000
v 1.143638 -0.142279 -0.000000
v 0.967728 -0.240970 -0.000000
v 0.930979 -0.085090 -0.000000
v 0.766318 -0.216042 -0.000000
v 0.685028 -0.015025 -0.000000
v 0.605673 -0.209870 -0.000000
v 0.514194 0.000309 0.000000
v 0.507137 -0.209957 -0.000000
v 0.407597 0.010474 0.000000
v 0.407597 -0.199792 -0.000000
v 0.685028 -0.015025 -0.000000
v 0.514194 0.000309 0.000000
v 0.282758 -0.896800 -0.000000
v 0.278127 -1.085999 -0.000000
v 0.070501 -0.904520 -0.000000
v 0.085468 -1.057856 -0.000000
v -0.168141 -0.829824 -0.000000
v -0.180150 -0.982057 -0.000000
v -0.331618 -0.633739 -0.000000
v -0.407614 -0.773369 -0.000000
v -0.282020 -0.353618 -0.000000
v -0.456463 -0.341142 -0.000000
v -0.152534 -0.240970 -0.000000
v -0.328444 -0.142279 -0.000000
v 0.048876 -0.216042 -0.000000
v -0.115785 -0.085090 -0.000000
v 0.209521 -0.209870 -0.000000
v 0.130166 -0.015025 -0.000000
v 0.308057 -0.209957 -0.000000
v 0.301000 0.000309 0.000000
v 0.301000 0.000309 0.000000
v 0.130166 -0.015025 -0.000000
v -0.456463 -0.341142 -0.000000
v -0.407614 -0.773369 -0.000000
v -0.315798 0.173891 0.000000
v -0.443816 -0.024972 -0.000000
v -0.315798 0.173891 0.000000
v -0.443816 -0.024972 -0.000000
v -0.322121 0.414179 0.000000
v -0.450139 0.215316 0.000000
v -0.350925 0.668038 0.000000
v -0.522510 0.505269 0.000000
v -0.382542 0.845093 0.000000
v -0.554127 0.682323 0.000000
v -0.458422 0.990530 0.000000
v -0.630007 0.827761 0.000000
v -0.540626 1.116998 0.000000
v -0.712211 0.954229 0.000000
v -0.679741 1.205526 0.000000
v -0.851326 1.042756 0.000000
v -0.907383 1.287730 0.000000
v -1.078968 1.124960 0.000000
v -1.027527 1.382580 0.000000
v -1.199112 1.219811 0.000000
v -1.128701 1.578605 0.000000
v -1.300286 1.415836 0.000000
v -1.130577 1.793121 0.000000
v -1.323705 1.656604 0.000000
vt 0.500000 0.000000
vt 1.000000 1.000000
vt 0.500000 1.000000
vt 1.000000 0.000000
vt 1.000000 1.000000
vt 1.000000 0.000000
vt 1.000000 1.000000
vt 1.000000 0.000000
vt 1.000000 1.000000
vt 1.000000 0.000000
vt 1.000000 1.000000
vt 1.000000 0.000000
vt 1.000000 1.000000
vt 1.000000 0.000000
vt 1.000000 1.000000
vt 1.000000 0.000000
vt 1.000000 1.000000
vt 1.000000 0.000000
vt 1.000000 1.000000
vt 1.000000 1.000000
vt 1.000000 0.000000
vt 1.000000 0.000000
vt 1.000000 1.000000
vt 1.000000 0.000000
vt 1.000000 0.000000
vt 1.000000 1.000000
vt 1.000000 0.000000
vt 1.000000 1.000000
vt 1.000000 0.000000
vt 1.000000 1.000000
vt 1.000000 0.000000
vt 1.000000 1.000000
vt 1.000000 0.000000
vt 1.000000 1.000000
vt 1.000000 0.000000
vt 1.000000 1.000000
vt 1.000000 0.000000
vt 1.000000 1.000000
vt 1.000000 0.000000
vt 1.000000 1.000000
vt 1.000000 0.000000
vt 1.000000 0.000000
vt 1.000000 0.000000
vt 1.000000 0.000000
vt 1.000000 0.000000
vt 1.000000 0.000000
vt 1.000000 0.000000
vt 1.000000 0.000000
vt 1.000000 0.000000
vt 1.000000 0.000000
vt 1.000000 0.000000
vt 1.000000 0.000000
vt 1.000000 0.000000
vt 1.000000 0.000000
vt 1.000000 0.000000
vt 1.000000 0.000000
vt 1.000000 0.000000
vt 1.000000 0.000000
vt 1.000000 0.000000
vt 1.000000 0.000000
vt 1.000000 0.000000
vt 1.000000 0.000000
vt 1.000000 0.000000
vt 1.000000 0.000000
vt 1.000000 0.000000
vt 1.000000 0.000000
vt 1.000000 0.000000
vt 1.000000 0.000000
vt 1.000000 0.000000
vt 1.000000 0.000000
vn 0.0000 -0.0000 1.0000
usemtl None.013
s 1
f 1/1/1 3/2/1 4/3/1
f 3/2/1 5/4/1 6/5/1
f 6/5/1 7/6/1 8/7/1
f 8/7/1 9/8/1 10/9/1
f 10/9/1 11/10/1 12/11/1
f 12/11/1 13/12/1 14/13/1
f 14/13/1 15/14/1 16/15/1
f 16/15/1 17/16/1 18/17/1
f 18/17/1 19/18/1 20/19/1
f 19/18/1 22/20/1 20/19/1
f 19/18/1 23/21/1 24/22/1
f 1/1/1 25/23/1 26/24/1
f 25/23/1 28/25/1 26/24/1
f 27/26/1 30/27/1 28/25/1
f 29/28/1 32/29/1 30/27/1
f 31/30/1 34/31/1 32/29/1
f 33/32/1 36/33/1 34/31/1
f 35/34/1 38/35/1 36/33/1
f 37/36/1 40/37/1 38/35/1
f 39/38/1 42/39/1 40/37/1
f 22/20/1 42/39/1 41/40/1
f 42/39/1 44/41/1 40/37/1
f 32/29/1 45/42/1 46/43/1
f 36/33/1 48/44/1 34/31/1
f 48/44/1 49/45/1 50/46/1
f 49/45/1 52/47/1 50/46/1
f 51/48/1 54/49/1 52/47/1
f 53/50/1 56/51/1 54/49/1
f 55/52/1 58/53/1 56/51/1
f 57/54/1 60/55/1 58/53/1
f 60/55/1 61/56/1 62/57/1
f 62/57/1 63/58/1 64/59/1
f 64/59/1 65/60/1 66/61/1
f 65/60/1 68/62/1 66/61/1
f 67/63/1 70/64/1 68/62/1
f 1/1/1 2/65/1 3/2/1
f 3/2/1 2/65/1 5/4/1
f 6/5/1 5/4/1 7/6/1
f 8/7/1 7/6/1 9/8/1
f 10/9/1 9/8/1 11/10/1
f 12/11/1 11/10/1 13/12/1
f 14/13/1 13/12/1 15/14/1
f 16/15/1 15/14/1 17/16/1
f 18/17/1 17/16/1 19/18/1
f 19/18/1 21/66/1 22/20/1
f 19/18/1 17/16/1 23/21/1
f 1/1/1 4/3/1 25/23/1
f 25/23/1 27/26/1 28/25/1
f 27/26/1 29/28/1 30/27/1
f 29/28/1 31/30/1 32/29/1
f 31/30/1 33/32/1 34/31/1
f 33/32/1 35/34/1 36/33/1
f 35/34/1 37/36/1 38/35/1
f 37/36/1 39/38/1 40/37/1
f 39/38/1 41/40/1 42/39/1
f 22/20/1 21/66/1 42/39/1
f 42/39/1 43/67/1 44/41/1
f 32/29/1 34/31/1 45/42/1
f 36/33/1 47/68/1 48/44/1
f 48/44/1 47/68/1 49/45/1
f 49/45/1 51/48/1 52/47/1
f 51/48/1 53/50/1 54/49/1
f 53/50/1 55/52/1 56/51/1
f 55/52/1 57/54/1 58/53/1
f 57/54/1 59/69/1 60/55/1
f 60/55/1 59/69/1 61/56/1
f 62/57/1 61/56/1 63/58/1
f 64/59/1 63/58/1 65/60/1
f 65/60/1 67/63/1 68/62/1
f 67/63/1 69/70/1 70/64/1
